<?xml version="1.0" encoding="UTF-8"?> <svg xmlns="http://www.w3.org/2000/svg" width="1954" height="414" viewBox="0 0 1954 414" fill="none"><g clip-path="url(#clip0_53_2)"><path d="M995.972 56.4546C980.256 56.4546 967.516 69.0923 967.516 84.6818V131.727H1052.89L1033.91 188.182H967.516V414H910.603V84.6818C910.603 37.9133 948.825 0 995.972 0H1062.37L1043.4 56.4546H995.972Z" fill="white"></path><path fill-rule="evenodd" clip-rule="evenodd" d="M455.303 18.8184H597.584C660.448 18.8184 711.409 69.3694 711.409 131.727C711.409 163.266 698.373 191.786 677.353 212.271C703.866 232.944 720.894 265.044 720.894 301.091C720.894 363.449 669.933 414 607.069 414H455.303V18.8184ZM512.215 75.2728H597.584C629.016 75.2728 654.497 100.548 654.497 131.727C654.497 162.907 629.016 188.183 597.584 188.183H512.215V75.2728ZM512.215 244.637V357.546H607.069C638.501 357.546 663.982 332.27 663.982 301.091C663.982 269.913 638.501 244.637 607.069 244.637H512.215Z" fill="white"></path><path d="M834.72 18.8184H777.807V75.2728H834.72V18.8184Z" fill="white"></path><path d="M834.72 131.727H777.807V414H834.72V131.727Z" fill="white"></path><path d="M1100.31 131.727V414H1157.22V188.182H1233.11L1252.08 131.727H1100.31Z" fill="white"></path><path fill-rule="evenodd" clip-rule="evenodd" d="M1517.68 270.511C1517.68 349.757 1471.94 414 1389.62 414C1307.3 414 1261.56 349.757 1261.56 270.511C1261.56 191.265 1307.3 127.022 1389.62 127.022C1471.94 127.022 1517.68 191.265 1517.68 270.511ZM1460.76 270.511C1460.76 299.883 1452.26 322.124 1440.72 335.921C1430.16 348.533 1414.41 357.546 1389.62 357.546C1364.82 357.546 1349.08 348.533 1338.52 335.921C1326.97 322.124 1318.47 299.883 1318.47 270.511C1318.47 241.139 1326.97 218.898 1338.52 205.102C1349.08 192.488 1364.82 183.477 1389.62 183.477C1414.41 183.477 1430.16 192.488 1440.72 205.102C1452.26 218.898 1460.76 241.139 1460.76 270.511Z" fill="white"></path><path d="M1726.39 217.561C1726.09 213.563 1724.98 209.667 1723.12 206.106C1721.09 201.79 1718.42 197.792 1715.22 194.239C1708.51 186.943 1699.92 181.605 1690.38 178.8C1685.28 177.309 1680.03 176.387 1674.72 176.051C1668.9 175.712 1663.06 175.849 1657.26 176.463C1647.27 177.198 1637.67 180.55 1629.42 186.176C1626.61 188.319 1624.27 190.999 1622.53 194.057C1621.07 196.692 1620.14 199.588 1619.8 202.578C1619.83 202.867 1619.83 203.159 1619.8 203.448V204.548C1619.76 205.419 1619.76 206.291 1619.8 207.16C1619.93 208.569 1620.24 209.955 1620.73 211.283C1621.85 214.077 1623.57 216.594 1625.77 218.66C1633.74 225.526 1643.02 230.744 1653.06 234.008C1658.83 236.07 1664.92 237.857 1671.21 239.506L1675.83 240.651L1680.91 241.843C1684.56 242.622 1688.2 243.447 1691.91 244.363C1699.24 246.15 1706.68 248.166 1714.34 250.594C1722.44 253.022 1730.34 256.087 1737.95 259.758C1746.89 264.08 1755.08 269.804 1762.18 276.71C1770.23 284.671 1776.19 294.474 1779.51 305.254C1781.12 310.293 1782.19 315.482 1782.75 320.74C1783.33 325.866 1783.42 331.035 1783.02 336.179C1782.07 346.977 1778.8 357.446 1773.42 366.876C1768.23 375.886 1761.38 383.844 1753.23 390.334C1745.61 396.332 1737.12 401.166 1728.06 404.676C1711.79 410.636 1694.6 413.737 1677.26 413.839C1659.83 414.684 1642.4 412.195 1625.91 406.508C1608.3 400.192 1592.6 389.514 1580.32 375.49C1574.26 368.493 1569.06 360.803 1564.84 352.582C1560.56 343.977 1557.45 334.839 1555.62 325.413L1608.87 317.12C1609.41 321.61 1610.63 325.995 1612.46 330.132C1615.38 336.865 1619.63 342.942 1624.99 347.99C1630.34 353.038 1636.66 356.954 1643.59 359.5C1653.95 363.194 1664.92 364.829 1675.92 364.311C1687.03 364.274 1698.01 362.048 1708.25 357.759C1716.12 354.681 1722.64 348.977 1726.72 341.631C1728.26 338.68 1729.17 335.457 1729.45 332.148C1729.55 330.271 1729.55 328.39 1729.45 326.512C1729.29 324.745 1728.97 322.997 1728.48 321.29C1727.67 318.49 1726.21 315.917 1724.23 313.775C1721.25 310.704 1717.79 308.136 1713.97 306.17C1703.09 300.667 1691.57 296.512 1679.66 293.799L1669.92 291.417L1664.56 290.225L1658.97 288.943C1651.44 287.155 1643.87 285.048 1636.2 282.482C1628.21 280.001 1620.42 276.937 1612.88 273.319C1604.32 269.157 1596.41 263.838 1589.33 257.513C1580.86 249.974 1574.33 240.531 1570.3 229.977C1568.31 224.689 1566.98 219.182 1566.33 213.575C1565.98 210.946 1565.8 208.299 1565.78 205.648V201.433C1565.78 199.875 1565.78 198.454 1566.14 196.852C1567.41 185.816 1571.28 175.233 1577.46 165.971C1583.37 157.088 1591.1 149.535 1600.13 143.796C1616 134.259 1633.98 128.751 1652.5 127.76C1660.89 126.992 1669.31 126.824 1677.72 127.256C1686.61 127.767 1695.43 129.226 1704 131.608C1722.03 136.455 1738.52 145.756 1751.94 158.641C1758.7 165.178 1764.62 172.535 1769.53 180.54C1774.88 189.204 1778.76 198.676 1781.04 208.581L1726.39 217.561Z" fill="white"></path><path d="M1830.69 329.317V75.2725H1887.6V131.727H1954V188.182H1887.6V329.317C1887.6 344.907 1900.35 357.546 1916.06 357.546H1954V414H1916.06C1868.92 414 1830.69 376.086 1830.69 329.317Z" fill="white"></path><mask id="mask0_53_2" style="mask-type:luminance" maskUnits="userSpaceOnUse" x="0" y="131" width="380" height="283"><path d="M379.418 131.727H0V414H379.418V131.727Z" fill="white"></path></mask><g mask="url(#mask0_53_2)"><path d="M189.709 414H0L284.563 131.727H379.418L189.709 414Z" fill="url(#paint0_linear_53_2)"></path></g></g><defs><linearGradient id="paint0_linear_53_2" x1="189.709" y1="131.727" x2="189.709" y2="414" gradientUnits="userSpaceOnUse"><stop stop-color="#7AEDCF"></stop><stop offset="0.201333" stop-color="#68CEFA"></stop><stop offset="0.403244" stop-color="#689CF8"></stop><stop offset="0.602076" stop-color="#AC57C0"></stop><stop offset="0.801867" stop-color="#E65659"></stop><stop offset="1" stop-color="#F2C241"></stop></linearGradient><clipPath id="clip0_53_2"><rect width="1954" height="414" fill="white"></rect></clipPath></defs></svg> 