<svg id="fantom" xmlns="http://www.w3.org/2000/svg" width="100.851" height="26.195" viewBox="0 0 100.851 26.195">
  <path id="Path_8014" data-name="Path 8014" d="M9.2,1.147,2.7,4.561a1.043,1.043,0,0,0-.621.812h0v.044q0,.036,0,.072V22.446c0,.024,0,.052,0,.087a1.057,1.057,0,0,0,.624.893L9.2,26.84a2.628,2.628,0,0,0,2.241,0l6.494-3.414a1.066,1.066,0,0,0,.637-.893h0V5.373h-.006a1.1,1.1,0,0,0-.632-.812L11.438,1.147A2.628,2.628,0,0,0,9.2,1.147ZM3.1,22.5l6.1,3.188a2.566,2.566,0,0,0,1.121.387,2.391,2.391,0,0,0,1.011-.325l.065-.032,6.154-3.245V14.946l-6.109,3.212a2.627,2.627,0,0,1-2.241,0l-6.1-3.2Zm0-9.791L8.912,9.653,3.1,6.6ZM17.547,6.59v6.125L11.721,9.653ZM10.96,2.047l6.494,3.414.015.008.01.006-.006,0-.02.011L10.96,8.9a1.62,1.62,0,0,1-1.286,0L3.18,5.488,3.165,5.48l-.01-.006.005,0,.019-.011L9.674,2.047A1.62,1.62,0,0,1,10.96,2.047Zm0,8.356,6.494,3.414.015.008.01.006-.006,0-.014.007-.006,0L10.96,17.259a.926.926,0,0,1-.132.056V10.347A.936.936,0,0,1,10.96,10.4Zm-1.154-.056a.937.937,0,0,0-.132.056L3.18,13.817l-.019.011-.005,0,.01.006.015.008,6.494,3.414a.928.928,0,0,0,.132.056Zm8.7-7.926-.529.871.369.222.12.073c.1.063.186.116.261.167l.02.013a1.779,1.779,0,0,1,.662.68,3.15,3.15,0,0,1,.229,1.394h1.022V5.795A2.946,2.946,0,0,0,19.3,2.91c-.092-.062-.191-.125-.311-.2l-.069-.042ZM2.684,24.709l-.529.871-.413-.248-.069-.042c-.119-.073-.218-.136-.311-.2A2.946,2.946,0,0,1,0,22.206V22.16H1.022a3.15,3.15,0,0,0,.229,1.394,1.778,1.778,0,0,0,.662.68l.02.013c.076.051.16.1.261.167l.12.073Z" transform="translate(0 -0.896)" fill="#1969ff" fill-rule="evenodd"/>
  <path id="Path_8015" data-name="Path 8015" d="M37.149,13.234V22.8H34.878v-9.57H32.7V11.482h2.181V10.044a3.977,3.977,0,0,1,.955-2.875,3.563,3.563,0,0,1,2.687-.988,5.648,5.648,0,0,1,1.641.225V8.269a4.045,4.045,0,0,0-1.147-.18q-1.866,0-1.866,2.134v1.258H39.8v1.752Zm11.5,9.188a4.652,4.652,0,0,1-2.282.539A4.668,4.668,0,0,1,41.96,20.21a7.026,7.026,0,0,1-.629-3.066,7.141,7.141,0,0,1,.641-3.1,4.948,4.948,0,0,1,1.787-2.089,4.7,4.7,0,0,1,2.608-.741,4.511,4.511,0,0,1,2.271.55,3.687,3.687,0,0,1,1.484,1.561V11.482h2.248V22.8H50.121V20.872A3.469,3.469,0,0,1,48.649,22.422Zm-1.742-1.258a2.951,2.951,0,0,1-2.417-1.056,4.556,4.556,0,0,1-.866-2.965,4.739,4.739,0,0,1,.866-3.022,3.209,3.209,0,0,1,4.789-.034,4.722,4.722,0,0,1,.843,3.01,4.73,4.73,0,0,1-.843,3A2.85,2.85,0,0,1,46.906,21.164Zm11.039-4.808V22.8H55.7V14.672a25.5,25.5,0,0,0-.18-3.19H57.63l.2,1.954A3.787,3.787,0,0,1,59.4,11.785a4.68,4.68,0,0,1,2.327-.573q4.069,0,4.069,4.538V22.8H63.52V15.885a3.3,3.3,0,0,0-.573-2.157,2.279,2.279,0,0,0-1.832-.674,3.052,3.052,0,0,0-2.3.9A3.319,3.319,0,0,0,57.945,16.357Zm15.445,6.6a5.326,5.326,0,0,0,1.686-.247V20.872a4.184,4.184,0,0,1-1.192.18,1.952,1.952,0,0,1-1.405-.483,2.221,2.221,0,0,1-.506-1.651V13.234H75.1V11.482H71.974V7.865L69.7,8.651v2.831H67.5v1.752h2.2V19.1a3.948,3.948,0,0,0,.967,2.876A3.631,3.631,0,0,0,73.39,22.961Zm11.578-.719a6.255,6.255,0,0,1-5.823,0A4.88,4.88,0,0,1,77.2,20.2a6.659,6.659,0,0,1-.686-3.1,6.728,6.728,0,0,1,.686-3.111,4.865,4.865,0,0,1,1.945-2.056,6.255,6.255,0,0,1,5.823,0,4.865,4.865,0,0,1,1.945,2.056A6.726,6.726,0,0,1,87.6,17.1a6.658,6.658,0,0,1-.686,3.1A4.879,4.879,0,0,1,84.968,22.243Zm-2.923-1.078a2.914,2.914,0,0,1-2.394-1.033,4.705,4.705,0,0,1-.843-3.033,4.677,4.677,0,0,1,.854-3.01,2.919,2.919,0,0,1,2.406-1.056,2.862,2.862,0,0,1,2.372,1.056,4.721,4.721,0,0,1,.843,3.01,4.75,4.75,0,0,1-.832,3.033A2.907,2.907,0,0,1,82.045,21.164ZM92.5,16.4v6.4H90.252V14.672a25.561,25.561,0,0,0-.18-3.19h2.113l.2,1.887A3.674,3.674,0,0,1,93.8,11.774a4.066,4.066,0,0,1,2.159-.562,3.291,3.291,0,0,1,3.44,2.179,3.843,3.843,0,0,1,1.518-1.595,4.4,4.4,0,0,1,2.259-.584q3.777,0,3.777,4.538V22.8h-2.271V15.863a3.579,3.579,0,0,0-.506-2.134,1.9,1.9,0,0,0-1.63-.674,2.541,2.541,0,0,0-2.057.9,3.7,3.7,0,0,0-.753,2.449v6.4H97.468V15.863a3.579,3.579,0,0,0-.506-2.134,1.906,1.906,0,0,0-1.63-.674,2.574,2.574,0,0,0-2.068.9A3.656,3.656,0,0,0,92.5,16.4Z" transform="translate(-6.104 -1.882)" fill="#1969ff" fill-rule="evenodd"/>
</svg>
