<?xml version="1.0" encoding="UTF-8"?> <svg xmlns="http://www.w3.org/2000/svg" xmlns:xlink="http://www.w3.org/1999/xlink" width="225.884" height="78.289" viewBox="0 0 225.884 78.289"><defs><linearGradient id="linear-gradient" x1="0.667" y1="0.274" x2="-0.068" y2="1.121" gradientUnits="objectBoundingBox"><stop offset="0" stop-color="#fcfefe"></stop><stop offset="1" stop-color="#31e3b5"></stop></linearGradient></defs><g id="Hashed_network_black_landscape_logo_svg" transform="translate(-0.003 0)"><g id="Raggruppa_3395" data-name="Raggruppa 3395" transform="translate(101.642 13.336)"><path id="Tracciato_967" data-name="Tracciato 967" d="M930.608,336.268H924.29V313.975h-6.218v50.534h6.218V341.538h6.318v22.971h6.218V313.975h-6.218Z" transform="translate(-918.072 -313.433)" fill="#fff"></path><path id="Tracciato_968" data-name="Tracciato 968" d="M992.473,313.975l-6.391,50.314-.028.22H991.6l1.423-12.943h5.41l1.423,12.943h5.953l-6.42-50.534Zm5.375,32.254h-4.24l1.536-14.355.551-5.787.552,5.79Z" transform="translate(-963.997 -313.433)" fill="#fff"></path><path id="Tracciato_969" data-name="Tracciato 969" d="M1063.6,334.045c-2.112-2.112-3.128-3.274-3.128-6.57v-5.557c0-3.152.915-4.751,2.718-4.751,1.849,0,2.786,1.6,2.786,4.751v10.834h5.812V322.121c0-6.331-3.053-9.817-8.6-9.817-5.511,0-8.8,3.67-8.8,9.817v5.963c0,4.625,1.521,7.022,4.327,9.829l4.137,4.069c2.541,2.4,2.988,3.346,2.988,6.3v6.031c0,3.153-.937,4.752-2.786,4.752-2.359,0-2.854-2.584-2.854-4.752V343.135h-5.744v11.037c0,6.287,3.053,9.75,8.6,9.75s8.869-3.645,8.869-9.75v-5.9c0-4.585-.9-6.741-4.189-10.03Z" transform="translate(-1010.159 -312.304)" fill="#fff"></path><path id="Tracciato_970" data-name="Tracciato 970" d="M1131.96,336.268h-6.318V313.975h-6.218v50.534h6.218V341.538h6.318v22.971h6.218V313.975h-6.218Z" transform="translate(-1054.093 -313.433)" fill="#fff"></path><path id="Tracciato_971" data-name="Tracciato 971" d="M1189.66,364.509h14.485v-5.27h-8.267v-17.7h7.453v-5.27h-7.453V319.244h8.267v-5.269H1189.66Z" transform="translate(-1101.54 -313.433)" fill="#fff"></path><path id="Tracciato_972" data-name="Tracciato 972" d="M1254.18,313.975h-9.08v50.534h9.072c5.681,0,9.072-3.645,9.072-9.75V323.792C1263.25,317.553,1259.94,313.975,1254.18,313.975Zm-2.854,4.8h2.854c2.542,0,2.922,3.019,2.922,4.819V354.9c0,1.8-.38,4.819-2.922,4.819h-2.854Z" transform="translate(-1138.999 -313.433)" fill="#fff"></path></g><path id="Tracciato_973" data-name="Tracciato 973" d="M685.8,282.668a39.145,39.145,0,1,0-55.359,55.359h0a38.894,38.894,0,0,0,27.679,11.464h0a39.145,39.145,0,0,0,27.68-66.823ZM665.975,302.49a11.112,11.112,0,1,1-15.715,0A11.112,11.112,0,0,1,665.975,302.49Zm-19.161-3.447a15.986,15.986,0,1,0,25.748,18.15A22.663,22.663,0,0,1,633.9,334.559h0A22.663,22.663,0,0,1,651.272,295.9a15.912,15.912,0,0,0-4.458,3.144Zm22.607,38.963a27.551,27.551,0,1,0-45.566-28.337,34.27,34.27,0,1,1,34.994,34.938,27.44,27.44,0,0,0,10.572-6.6Z" transform="translate(-618.973 -271.203)" fill="url(#linear-gradient)"></path></g></svg> 