<?xml version="1.0" encoding="UTF-8"?> <svg xmlns="http://www.w3.org/2000/svg" width="1802" height="394" viewBox="0 0 1802 394" fill="none"><path fill-rule="evenodd" clip-rule="evenodd" d="M0 196.395L196.436 0L392.735 196.445L196.436 392.776L0 196.395ZM312.434 137.449C304.272 146.568 286.477 169.535 286.477 196.395C286.477 223.256 304.272 246.221 312.434 255.342C260.004 252.566 218.086 196.395 218.086 196.395C218.086 196.395 260.004 140.223 312.434 137.449ZM80.5874 137.449C133.015 140.223 174.933 196.395 174.933 196.395C174.933 196.395 133.015 252.566 80.5874 255.342C88.7482 246.221 106.544 223.256 106.544 196.395C106.544 169.535 88.7482 146.568 80.5874 137.449ZM72.2802 137.796C63.9855 147.132 46.6239 169.864 46.6239 196.395C46.6239 223.03 64.122 245.835 72.3774 255.103L114.843 297.606L115.043 297.412C132.043 280.786 160.305 258.935 192.523 257.27C184.413 266.314 166.524 289.311 166.524 316.22C166.524 343.132 184.413 366.128 192.523 375.171L196.436 379.273L200.351 375.171C208.463 366.128 226.349 343.132 226.349 316.22C226.349 289.311 208.463 266.314 200.351 257.27C232.697 258.94 261.052 280.957 278.032 297.606L321.5 254.1L321.599 253.985C330.195 244.107 346.396 222.025 346.396 196.395C346.396 170.664 330.067 148.51 321.5 138.689L278.235 95.3853L278.035 95.5811C261.051 112.229 232.696 134.245 200.351 135.915C208.463 126.871 226.349 103.876 226.349 76.9647C226.349 50.0538 208.463 27.0579 200.351 18.0137L196.436 13.5155L192.523 18.0137C184.413 27.0579 166.524 50.0538 166.524 76.9647C166.524 103.876 184.413 126.871 192.523 135.915C160.052 134.238 131.602 112.056 114.641 95.3853L72.2802 137.796Z" fill="#F6297C"></path><path d="M450.377 282.644L463.359 282.04L476.341 282.644L473.02 207.114L473.322 193.216H632.425L632.726 207.114L629.405 282.644L642.387 282.04L655.368 282.644L652.047 207.114L655.368 86.5679L642.387 87.1721L629.405 86.5679L631.518 166.932H474.227L476.341 86.5679L463.359 87.1721L450.377 86.5679L453.698 207.114L450.377 282.644Z" fill="#F6297C"></path><path d="M770.97 282.645L783.95 282.042L796.932 282.645L794.517 207.114V206.509L827.424 159.381L886.899 86.2661H849.766L811.424 144.274L783.95 180.829L756.478 144.878L717.229 86.2661H683.417L740.477 158.473L772.779 206.509V207.114L770.97 282.645Z" fill="#F6297C"></path><path d="M913.84 86.5693L917.16 207.115L913.84 282.645L939.501 282.042L1004.41 282.645C1056.94 283.25 1118.23 263.009 1118.23 182.04C1118.23 118.594 1073.55 85.9651 1011.96 86.5693L939.501 87.1736L913.84 86.5693ZM936.481 207.115L939.199 112.25H1011.96C1055.13 112.25 1099.51 127.96 1099.51 181.435C1099.51 254.247 1029.47 256.664 1008.03 256.664H938.595L936.481 207.115Z" fill="#F6297C"></path><path d="M1313.68 283.551L1343.57 282.645L1294.96 206.509L1290.43 198.353C1322.13 194.425 1347.19 179.32 1347.19 142.46C1347.19 97.1423 1310.96 86.2659 1270.81 86.5681L1185.67 87.1723L1160.31 86.5681L1163.63 207.114L1160.31 282.645L1173.29 282.04L1186.28 282.645L1183.26 199.561H1267.49L1278.05 216.48L1313.68 283.551ZM1264.17 111.946C1307.04 111.946 1329.07 115.874 1329.07 142.762C1329.07 169.349 1307.04 175.089 1264.17 175.089H1183.86L1185.67 111.946H1264.17Z" fill="#F6297C"></path><path d="M1557.47 282.645H1582.23L1534.83 188.382L1486.83 86.5679L1472.04 87.1721L1456.64 86.5679L1411.96 182.037L1362.15 282.645H1391.13L1413.17 232.19H1534.83L1557.47 282.645ZM1472.04 108.321L1517.92 195.03L1523.36 206.812H1424.34L1430.98 191.705L1472.04 108.321Z" fill="#F6297C"></path><path d="M1679.33 170.854V84.5811H1670.73V75.9539H1662.1V67.3267H1593.13V188.108H1662.1V179.481H1670.73V170.854H1679.33ZM1653.46 93.2084H1662.1V162.227H1653.46V170.854H1610.37V84.5811H1653.46V93.2084Z" fill="#F6297C"></path><path d="M1722.47 110.463H1731.1V119.09H1739.72V136.344H1731.1V144.972H1722.47V162.227H1713.85V188.108H1731.1V170.854H1739.72V153.598H1748.33V144.972H1765.58V153.598H1774.2V170.854H1782.81V188.108H1800.06V162.227H1791.45V144.972H1782.81V136.344H1774.2V119.09H1782.81V110.463H1791.45V93.2084H1800.06V67.3267H1782.81V84.5811H1774.2V101.836H1765.58V110.463H1748.33V101.836H1739.72V84.5811H1731.1V67.3267H1713.85V93.2084H1722.47V110.463Z" fill="#F6297C"></path></svg> 