<svg xmlns="http://www.w3.org/2000/svg" xmlns:xlink="http://www.w3.org/1999/xlink" width="114.132" height="27.195" viewBox="0 0 114.132 27.195">
  <defs>
    <linearGradient id="linear-gradient" y1="0.5" x2="1" y2="0.5" gradientUnits="objectBoundingBox">
      <stop offset="0" stop-color="#db3ff4"/>
      <stop offset="1" stop-color="#6dcbde"/>
    </linearGradient>
  </defs>
  <g id="hyperbridge" transform="translate(1.474 0.5)">
    <g id="svgviewer-output_1_" data-name="svgviewer-output (1)" transform="translate(0 0)">
      <rect id="Rectangle_69837" data-name="Rectangle 69837" width="26" height="26" rx="3.5" fill="#030303"/>
      <path id="Path_7999" data-name="Path 7999" d="M4.486.5H22.709A3.986,3.986,0,0,1,26.7,4.486V22.709A3.986,3.986,0,0,1,22.709,26.7H4.486A3.986,3.986,0,0,1,.5,22.709V4.486C.5,2.285-1.7.5.5.5" transform="translate(-0.5 -0.5)" fill="none" stroke="#fff" stroke-width="1" stroke-dasharray="85.994"/>
      <path id="Path_8023" data-name="Path 8023" d="M4.486.5H22.709A3.986,3.986,0,0,1,26.7,4.486V22.709A3.986,3.986,0,0,1,22.709,26.7H4.486A3.986,3.986,0,0,1,.5,22.709V4.486C.5,2.285-1.7.5.5.5" transform="translate(26.695 26.695) rotate(180)" fill="none" stroke="#fff" stroke-width="1" stroke-dasharray="85.994"/>
      <circle id="Ellipse_20" data-name="Ellipse 20" cx="6.834" cy="6.834" r="6.834" transform="translate(6.264 6.264)" fill="url(#linear-gradient)"/>
    </g>
    <path id="Path_8022" data-name="Path 8022" d="M9.3,1.354H7.475V-3.323H2.769V1.354H.939V-9.172H2.769v4.381H7.475V-9.172H9.3Zm4.728-2.516,1.59-5.306h1.872L14.379,2.54A2.527,2.527,0,0,1,11.95,4.514a3.147,3.147,0,0,1-.846-.13V3.024l.333.022a1.709,1.709,0,0,0,1-.242,1.605,1.605,0,0,0,.531-.813l.253-.672L10.475-6.468h1.894ZM25.346-2.477a4.657,4.657,0,0,1-.824,2.9A2.639,2.639,0,0,1,22.31,1.5a2.657,2.657,0,0,1-2.06-.846V4.362H18.493V-6.468h1.619l.072.8a2.58,2.58,0,0,1,2.1-.94,2.666,2.666,0,0,1,2.245,1.066,4.782,4.782,0,0,1,.813,2.96ZM23.6-2.629a3.262,3.262,0,0,0-.466-1.858A1.516,1.516,0,0,0,21.8-5.174a1.617,1.617,0,0,0-1.547.889v3.47A1.632,1.632,0,0,0,21.811.1a1.514,1.514,0,0,0,1.312-.676A3.591,3.591,0,0,0,23.6-2.629ZM30.277,1.5A3.635,3.635,0,0,1,27.569.447a3.816,3.816,0,0,1-1.037-2.8v-.217a4.694,4.694,0,0,1,.452-2.093A3.439,3.439,0,0,1,28.252-6.1a3.354,3.354,0,0,1,1.822-.513,3.07,3.07,0,0,1,2.469,1.019,4.31,4.31,0,0,1,.871,2.885V-2H28.3A2.349,2.349,0,0,0,28.95-.467,1.943,1.943,0,0,0,30.378.1a2.379,2.379,0,0,0,1.966-.976l.947.9a3.163,3.163,0,0,1-1.254,1.088A3.927,3.927,0,0,1,30.277,1.5Zm-.21-6.7A1.479,1.479,0,0,0,28.9-4.7a2.623,2.623,0,0,0-.568,1.41h3.347v-.13a2.135,2.135,0,0,0-.47-1.334A1.468,1.468,0,0,0,30.067-5.2Zm8.805.34a4.347,4.347,0,0,0-.716-.058A1.611,1.611,0,0,0,36.53-4v5.35H34.773V-6.468h1.677l.043.875a1.979,1.979,0,0,1,1.764-1.019,1.645,1.645,0,0,1,.622.1Zm7.974,2.386a4.7,4.7,0,0,1-.813,2.9A2.649,2.649,0,0,1,43.8,1.5a2.552,2.552,0,0,1-2.14-.99l-.087.846h-1.59V-9.75h1.757v4.034a2.543,2.543,0,0,1,2.046-.9A2.68,2.68,0,0,1,46.03-5.55a4.777,4.777,0,0,1,.817,2.971ZM45.09-2.629a3.321,3.321,0,0,0-.448-1.909,1.493,1.493,0,0,0-1.3-.636,1.631,1.631,0,0,0-1.6,1V-.952A1.648,1.648,0,0,0,43.355.068a1.481,1.481,0,0,0,1.272-.615A3.218,3.218,0,0,0,45.09-2.4Zm7.323-2.234a4.347,4.347,0,0,0-.716-.058A1.611,1.611,0,0,0,50.071-4v5.35H48.314V-6.468h1.677l.043.875A1.979,1.979,0,0,1,51.8-6.612a1.645,1.645,0,0,1,.622.1Zm2.979,6.217H53.635V-6.468h1.757ZM53.527-8.5a.932.932,0,0,1,.257-.672.969.969,0,0,1,.734-.267.982.982,0,0,1,.737.267.925.925,0,0,1,.26.672.9.9,0,0,1-.26.661.989.989,0,0,1-.737.264.977.977,0,0,1-.734-.264A.911.911,0,0,1,53.527-8.5Zm3.448,5.885a4.651,4.651,0,0,1,.839-2.9,2.687,2.687,0,0,1,2.248-1.1,2.553,2.553,0,0,1,2.01.868V-9.75h1.757v11.1h-1.59l-.087-.81a2.59,2.59,0,0,1-2.1.954A2.672,2.672,0,0,1,57.824.393,4.821,4.821,0,0,1,56.975-2.615Zm1.757.152A3.256,3.256,0,0,0,59.191-.6a1.49,1.49,0,0,0,1.3.669,1.659,1.659,0,0,0,1.576-.962v-3.34a1.634,1.634,0,0,0-1.562-.94,1.5,1.5,0,0,0-1.316.676A3.626,3.626,0,0,0,58.732-2.463Zm6.622-.152a4.575,4.575,0,0,1,.857-2.91,2.75,2.75,0,0,1,2.274-1.088,2.576,2.576,0,0,1,2.1.933l.08-.788h1.583V1.116a3.152,3.152,0,0,1-.958,2.429,3.649,3.649,0,0,1-2.585.889,4.166,4.166,0,0,1-1.681-.358,2.987,2.987,0,0,1-1.247-.936l.831-1.056a2.511,2.511,0,0,0,2,.962,1.941,1.941,0,0,0,1.381-.474,1.815,1.815,0,0,0,.506-1.392V.653A2.586,2.586,0,0,1,68.47,1.5,2.743,2.743,0,0,1,66.225.407,4.723,4.723,0,0,1,65.354-2.615Zm1.75.152a3.149,3.149,0,0,0,.481,1.854,1.546,1.546,0,0,0,1.334.676,1.691,1.691,0,0,0,1.576-.911V-4.285a1.666,1.666,0,0,0-1.562-.889,1.552,1.552,0,0,0-1.348.687A3.526,3.526,0,0,0,67.1-2.463ZM77.5,1.5A3.635,3.635,0,0,1,74.792.447a3.816,3.816,0,0,1-1.037-2.8v-.217a4.694,4.694,0,0,1,.452-2.093A3.439,3.439,0,0,1,75.475-6.1,3.354,3.354,0,0,1,77.3-6.612a3.07,3.07,0,0,1,2.469,1.019,4.31,4.31,0,0,1,.871,2.885V-2H75.526a2.349,2.349,0,0,0,.647,1.533A1.943,1.943,0,0,0,77.6.1a2.379,2.379,0,0,0,1.966-.976l.947.9A3.163,3.163,0,0,1,79.26,1.112,3.927,3.927,0,0,1,77.5,1.5Zm-.21-6.7a1.479,1.479,0,0,0-1.168.506,2.623,2.623,0,0,0-.568,1.41H78.9v-.13a2.135,2.135,0,0,0-.47-1.334A1.468,1.468,0,0,0,77.29-5.2Z" transform="translate(32.02 15.716)" fill="#fff"/>
  </g>
</svg>
