<?xml version="1.0" encoding="UTF-8"?> <svg xmlns="http://www.w3.org/2000/svg" width="1113" height="250" viewBox="0 0 1113 250" fill="none"><g clip-path="url(#clip0_15_32)"><path d="M309.59 250H96C94.9829 249.997 93.9863 249.713 93.12 249.18L15.9 201.5C14.8844 200.872 14.1012 199.931 13.6689 198.818C13.2366 197.705 13.1789 196.481 13.5045 195.333C13.8301 194.184 14.5213 193.173 15.4732 192.452C16.4252 191.732 17.5861 191.341 18.78 191.34H232.4C233.42 191.343 234.42 191.627 235.29 192.16L312.47 239.81C313.5 240.432 314.297 241.375 314.739 242.493C315.181 243.612 315.243 244.846 314.916 246.003C314.589 247.161 313.89 248.179 312.928 248.901C311.966 249.623 310.793 250.009 309.59 250ZM97.52 239H290.25L230.85 202.33H38.11L97.52 239Z" fill="white"></path><path d="M296.29 58.63H82.67C81.6526 58.6283 80.6556 58.3444 79.79 57.81L2.59996 10.16C1.58366 9.53186 0.800007 8.58933 0.367929 7.47544C-0.0641493 6.36156 -0.121068 5.13713 0.205811 3.98796C0.53269 2.83879 1.22552 1.82763 2.17917 1.10791C3.13281 0.388193 4.29521 -0.000786626 5.48996 1.19435e-06H219.11C220.131 -0.000143301 221.131 0.283782 222 0.820001L299.18 48.47C300.196 49.0977 300.979 50.0393 301.411 51.1522C301.843 52.2651 301.901 53.4886 301.576 54.6372C301.25 55.7859 300.559 56.7971 299.607 57.5176C298.655 58.2381 297.494 58.6286 296.3 58.63H296.29ZM84.23 47.63H277L217.55 11H24.82L84.23 47.63Z" fill="white"></path><path d="M187 101.16C180.731 94.9773 172.275 91.5199 163.47 91.54H163.12C154.198 91.5838 145.659 95.1699 139.381 101.51C133.103 107.849 129.601 116.423 129.645 125.345C129.689 134.267 133.275 142.806 139.615 149.084C145.954 155.362 154.528 158.864 163.45 158.82H163.79C170.442 158.753 176.926 156.714 182.42 152.963C187.914 149.211 192.172 143.915 194.656 137.743C197.141 131.572 197.739 124.802 196.376 118.291C195.014 111.779 191.751 105.817 187 101.16Z" fill="white"></path><path d="M405.15 89.07H425.06V169H405.15V89.07Z" fill="white"></path><path d="M459.06 89.07H487.71L519 142.73H519.12L518.52 89.07H537.21V169H513.7L477.4 107H477.28L477.76 168.92H459.06V89.07Z" fill="white"></path><path d="M590.08 104.73H567.38V89.07H632.57V104.73H610V169H590.08V104.73Z" fill="white"></path><path d="M662.7 89.07H719.27V104.73H682.61V122.73H711V134.87H682.61V153.32H720.37V169H662.7V89.07Z" fill="white"></path><path d="M751.1 89.07H788.37C809.5 89.07 820.91 97.81 820.91 112.86C820.91 123.06 816.54 129.5 809.01 131.68V131.92C816.9 133.74 820.42 140.06 820.42 149.04V169H800.51V149.7C800.51 142.42 797.84 139.26 790.31 139.26H771V169H751.1V89.07ZM789.22 127.19C797.6 127.19 801.85 123.43 801.85 116.02C801.85 109.02 797.48 104.73 788.25 104.73H771V127.19H789.22Z" fill="white"></path><path d="M853.7 89.07H873.61V153.29H910V169H853.7V89.07Z" fill="white"></path><path d="M994.66 152.68H962.74L957.27 169H936.87L967.72 89.12H992.48L1023.31 169H1000.13L994.66 152.68ZM990.54 140.3L978.76 105.3H978.52L966.86 140.3H990.54Z" fill="white"></path><path d="M1060.73 138.36L1029.29 89.07H1054.9L1072.38 120.63H1072.74L1090 89.07H1112.21L1080.65 138.36V169H1060.74L1060.73 138.36Z" fill="white"></path></g><defs><clipPath id="clip0_15_32"><rect width="1112.2" height="249.97" fill="white"></rect></clipPath></defs></svg> 