<svg id="joystream" xmlns="http://www.w3.org/2000/svg" width="128.82" height="26.195" viewBox="0 0 128.82 26.195">
  <g id="Layer_6" data-name="Layer 6">
    <path id="joystream-copy" d="M105.55,33.369V31.208h3.57V17.176H111.5V31.4a1.972,1.972,0,0,1-1.972,1.97Zm9.037-6.1a5.842,5.842,0,0,1-1.724-4.3,5.937,5.937,0,1,1,1.724,4.3Zm1.747-7.117a3.952,3.952,0,0,0-.977,2.819,3.993,3.993,0,0,0,.977,2.821,3.607,3.607,0,0,0,5.079,0,3.978,3.978,0,0,0,.974-2.821,3.968,3.968,0,0,0-.974-2.819A3.6,3.6,0,0,0,116.335,20.157Zm8.775-2.981h2.5l2.546,9.527h1.137l2.779-9.527h2.51l-4.846,16.194h-2.5l1.352-4.286h-.828a1.8,1.8,0,0,1-1.737-1.325Zm11.227,8.12h2.62a1.106,1.106,0,0,0,.079.181,3.543,3.543,0,0,0,.262.411,2.4,2.4,0,0,0,1.31.933,3.618,3.618,0,0,0,1.168.181,3.289,3.289,0,0,0,1.813-.388,1.142,1.142,0,0,0,.587-.982q0-.547-.749-.864a9.15,9.15,0,0,0-1.813-.524,19.67,19.67,0,0,1-2.132-.524,4.128,4.128,0,0,1-1.815-1.124,2.908,2.908,0,0,1-.749-2.069,3.019,3.019,0,0,1,1.25-2.389,5.031,5.031,0,0,1,3.274-1.027,6.447,6.447,0,0,1,2.268.375,3.908,3.908,0,0,1,1.5.912,6.694,6.694,0,0,1,.828,1.071,3.246,3.246,0,0,1,.419.919l.092.364h-2.494a1.682,1.682,0,0,0-.068-.157,3.249,3.249,0,0,0-.238-.354,2.2,2.2,0,0,0-.453-.456,2.674,2.674,0,0,0-.749-.351,3.5,3.5,0,0,0-1.1-.16,2.64,2.64,0,0,0-1.519.364,1.077,1.077,0,0,0-.524.909.888.888,0,0,0,.524.762,4.021,4.021,0,0,0,1.373.432,17.169,17.169,0,0,1,1.747.4,15.861,15.861,0,0,1,1.747.6,3.143,3.143,0,0,1,1.349,1.082,3.018,3.018,0,0,1,.524,1.807,3.083,3.083,0,0,1-1.31,2.491,5.6,5.6,0,0,1-3.57,1.037,6.769,6.769,0,0,1-2.394-.4,4.267,4.267,0,0,1-1.6-.967,7.194,7.194,0,0,1-.9-1.137,3.444,3.444,0,0,1-.443-.956Zm11.222-5.959V17.176h1.362v-2.5H151.3v2.5h3.515v2.161H151.3v7.6h3.628v2.161h-4.039a1.97,1.97,0,0,1-1.97-1.97V19.337Zm11.115,0-.026,9.747h-2.381L156.29,18.9a1.726,1.726,0,0,1,1.726-1.724h5.3v2.161Zm6.263,7.937a5.928,5.928,0,0,1-1.7-4.3,5.9,5.9,0,1,1,11.8-.008v.786h-9.412a3.667,3.667,0,0,0,1.223,2.263,3.405,3.405,0,0,0,2.292.83,4.217,4.217,0,0,0,1.881-.4,2.949,2.949,0,0,0,1.111-.807l.3-.385h2.494a2.934,2.934,0,0,1-.157.409,6.811,6.811,0,0,1-.579.9,6.069,6.069,0,0,1-1.048,1.137,5.936,5.936,0,0,1-1.656.9,6.462,6.462,0,0,1-2.334.409,5.7,5.7,0,0,1-4.2-1.734Zm1.108-5.435h6.811a3.227,3.227,0,0,0-1.077-1.92,3.335,3.335,0,0,0-2.324-.809,3.51,3.51,0,0,0-2.19.739,3.227,3.227,0,0,0-1.221,1.991Zm11.206,5.5a6.222,6.222,0,0,1-1.543-4.367,6.118,6.118,0,0,1,1.553-4.354,5.09,5.09,0,0,1,3.89-1.674,4.511,4.511,0,0,1,1.972.427,4.377,4.377,0,0,1,1.294.843l.359.44h.115v-1.48h2.381V29.084h-2.381v-1.9h-.115a2.13,2.13,0,0,1-.147.191,5.427,5.427,0,0,1-.443.445,4.455,4.455,0,0,1-.72.553,4.8,4.8,0,0,1-2.313.626,5.137,5.137,0,0,1-3.9-1.658Zm11.455,1.745V17.176h2.381v1.593h.115c.029-.045.068-.11.113-.194a2.863,2.863,0,0,1,.364-.443,3.82,3.82,0,0,1,.644-.558,3.723,3.723,0,0,1,.964-.432,4.375,4.375,0,0,1,1.31-.194,4.8,4.8,0,0,1,1.509.228,3.489,3.489,0,0,1,1.09.547,5.4,5.4,0,0,1,.668.623,2.051,2.051,0,0,1,.364.524l.113.228h.113l.126-.238a3.117,3.117,0,0,1,.419-.511,4.779,4.779,0,0,1,.749-.65,4.4,4.4,0,0,1,1.134-.524,4.875,4.875,0,0,1,1.54-.241,4.014,4.014,0,0,1,3.143,1.276,5.25,5.25,0,0,1,1.155,3.615v7.259h-2.376v-7.13q0-2.845-2.494-2.845a2.745,2.745,0,0,0-2.1.933,3.358,3.358,0,0,0-.862,2.358v6.685h-2.381v-7.13q0-2.845-2.494-2.845a2.745,2.745,0,0,0-2.1.933,3.358,3.358,0,0,0-.862,2.358v6.685ZM109.12,12.89v2.386H111.5V12.89Zm69.729,7.267a3.974,3.974,0,0,0-.974,2.819,3.984,3.984,0,0,0,.974,2.821,3.607,3.607,0,0,0,5.079,0,3.956,3.956,0,0,0,.977-2.821,3.977,3.977,0,0,0-.977-2.819,3.6,3.6,0,0,0-5.079,0Z" transform="translate(-77.901 -9.513)" fill="#fff"/>
    <path id="Path_8016" data-name="Path 8016" d="M51.837,0h2.381V11.185a10.672,10.672,0,0,1-2.7,7.1,12.641,12.641,0,0,0,.317-2.816Z" transform="translate(-38.024)" fill="#4038ff"/>
    <path id="Path_8017" data-name="Path 8017" d="M9.786,74.55h0a6.4,6.4,0,0,1-4.9,2.379l.715-2.379Z" transform="translate(-3.609 -55.022)" fill="#4038ff"/>
    <path id="Path_8018" data-name="Path 8018" d="M14.846,58.19v.238a6.365,6.365,0,0,1-.367,2.14H9.79l.71-2.379Z" transform="translate(-7.225 -42.947)" fill="#4038ff"/>
    <path id="Path_8019" data-name="Path 8019" d="M68.2,0h2.381V6.908a10.682,10.682,0,0,1-2.7,7.1,12.685,12.685,0,0,0,.317-2.819Z" transform="translate(-50.099)" fill="#4038ff"/>
    <path id="Path_8020" data-name="Path 8020" d="M11.906,0V15.481A10.74,10.74,0,0,1,1.189,26.2H0l.71-2.381h.479a8.341,8.341,0,0,0,8.335-8.333V0Z" fill="#4038ff"/>
  </g>
</svg>
