<?xml version="1.0" encoding="UTF-8"?> <svg xmlns="http://www.w3.org/2000/svg" width="181" height="35" viewBox="0 0 181 35" fill="none"><path d="M161.332 23.7779C161.237 23.8015 161.261 23.8961 161.355 23.8725C161.261 23.8961 161.261 24.0144 161.355 23.9907H161.379C161.355 24.0144 161.379 24.0617 161.426 24.0617C161.426 24.109 161.45 24.1563 161.45 24.1563C161.497 24.1563 161.521 24.1326 161.521 24.109C161.544 24.0853 161.592 24.0853 161.615 24.109C161.663 24.109 161.71 24.109 161.71 24.18C161.781 24.18 161.805 24.2273 161.828 24.2509C161.947 24.3455 161.97 24.4874 162.017 24.6294L161.994 24.653C161.994 24.653 162.041 24.7476 162.136 24.8186C162.207 25.0551 162.349 25.1734 162.538 25.2916C162.585 25.3626 162.703 25.4572 162.798 25.5518L162.774 25.4809V25.4099C162.845 25.4572 162.916 25.5045 162.987 25.5755C163.011 25.5755 163.035 25.5518 163.035 25.5518C163.082 25.5991 163.106 25.6701 163.153 25.6937C163.176 25.6937 163.2 25.6937 163.224 25.6701C163.389 25.8593 163.437 26.1195 163.579 26.285C163.697 26.4033 163.981 26.5689 164.099 26.7581C164.241 26.9473 164.501 27.0183 164.643 27.2075C164.69 27.1365 164.714 27.2312 164.761 27.2075C164.761 27.2312 164.761 27.2785 164.785 27.2785L164.974 27.3494C164.927 27.3258 164.903 27.2785 164.879 27.2548C165.234 27.4913 165.565 27.7752 165.92 28.0354C166.843 28.8159 167.741 29.7147 168.664 30.5189C168.64 30.4479 168.64 30.4006 168.688 30.377C168.829 30.4952 169.042 30.7554 169.184 30.7791C168.806 30.377 168.38 29.9985 168.238 29.5255C168.38 29.5491 168.451 29.5491 168.569 29.6437C168.522 29.6674 168.498 29.691 168.498 29.7383C168.593 29.6674 168.617 29.7383 168.64 29.762C169.279 30.4716 169.941 31.1339 170.627 31.7725C170.249 31.1812 169.657 30.8264 169.35 30.2587C169.918 30.7554 170.485 31.2521 171.006 31.8434L171.621 32.4821C171.621 32.4111 171.644 32.3638 171.644 32.3165L171.006 31.6306C170.793 31.4177 170.532 31.1812 170.391 30.9683C170.201 30.6608 170.107 30.3533 169.799 30.1641C169.799 30.2351 169.894 30.3297 169.847 30.377C169.421 29.9749 168.9 29.5255 168.617 29.0288C168.664 28.9815 168.735 29.147 168.735 29.0524C168.593 28.9578 168.475 28.7686 168.38 28.5557C168.309 28.5557 168.38 28.6503 168.285 28.603C168.025 28.2482 167.552 28.059 167.363 27.6096C167.434 27.6333 167.505 27.6569 167.6 27.6569C167.718 27.6806 166.914 27.3731 167.032 27.0183C167.15 26.7345 167.197 27.2312 167.623 27.3258C167.789 27.3494 167.765 27.2075 167.836 27.1365C168.498 27.7752 169.042 28.2955 169.279 28.4848V28.4138C169.208 28.2955 169.113 28.2719 169.113 28.1536L169.137 28.0827C169.563 28.5794 170.391 29.762 171.076 29.833C171.006 29.762 170.958 29.7147 170.958 29.6201C170.982 29.5018 171.053 29.5255 171.171 29.5255C171.053 29.4545 170.982 29.4309 170.864 29.4309V29.5255C170.722 29.5018 170.556 29.4782 170.485 29.3126C170.556 29.3126 170.674 29.3126 170.698 29.218C170.509 29.218 170.391 29.1943 170.272 29.0051C170.343 28.9578 170.414 28.9578 170.462 28.9578C170.462 28.8868 170.462 28.8868 170.414 28.8159C170.343 28.7686 170.178 28.5557 170.13 28.5557C170.059 28.4848 169.965 28.4374 169.965 28.4374L169.87 28.4611L169.823 28.2246C169.705 28.2719 169.776 28.4138 169.657 28.4611L169.232 27.988V27.7988C169.232 27.6806 169.35 27.7279 169.373 27.7279C169.35 27.9171 169.161 27.8698 169.515 28.0827L169.539 27.9407C169.539 27.7042 169.255 27.6806 169.255 27.4913H169.232C169.232 27.4677 169.255 27.4204 169.255 27.3967C169.208 27.4204 169.184 27.3731 169.137 27.3494C169.113 27.3494 169.113 27.3494 169.09 27.3258H169.066V27.2312C168.853 27.2312 168.782 27.0183 168.688 26.9C168.475 26.5689 168.215 26.2377 167.907 25.9776C167.883 25.883 167.765 25.741 167.529 25.4572C167.41 25.3389 168.356 26.0485 168.309 25.9539C168.12 25.6464 169.634 25.9776 169.634 25.9776L169.208 25.6464C169.303 25.6228 169.184 25.2443 169.184 25.197V25.1261L169.066 25.2207V25.1497L168.9 25.268H168.877C168.877 25.1261 168.924 25.0315 169.019 24.9605H168.995C168.9 24.9605 168.877 24.8422 168.971 24.8422C169.019 24.8422 169.042 24.9132 169.019 24.9368L169.161 24.8659L169.184 25.0078H169.279C169.279 25.1024 169.326 25.1734 169.397 25.3153H169.303L169.373 25.5991C169.492 25.5991 169.492 25.3153 169.468 25.197C169.468 25.0078 169.397 24.9368 169.373 24.7476H169.444V24.7003H169.35L169.066 24.5821L168.971 24.653C168.971 24.5347 168.877 24.5347 168.853 24.5347C168.688 24.5347 168.664 24.5347 168.664 24.653L168.688 24.724L168.664 24.7713C168.664 24.7713 168.546 24.7476 168.475 24.6767L168.404 24.6057L168.475 24.4874C168.475 24.5584 168.546 24.5584 168.593 24.5584L168.569 24.4165H168.64C168.664 24.3928 168.664 24.2273 168.664 24.1563C168.664 24.1563 168.64 24.0617 168.569 24.0617H168.522L168.498 23.8725C168.498 23.8725 168.617 23.9907 168.64 23.9671L168.806 23.8961C168.64 23.7542 168.498 23.8015 168.309 23.8015C168.309 23.6832 168.356 23.6832 168.333 23.5886C168.262 23.4704 168.191 23.4231 168.096 23.4231C168.096 23.4467 168.144 23.6123 168.238 23.6123C168.12 23.7069 168.049 23.8015 168.002 23.8961L167.931 23.8252L167.812 23.8961L167.741 23.9198H167.67C167.931 23.8015 168.049 23.7069 168.025 23.4231C167.907 23.4231 167.647 23.3521 167.6 23.3285L167.576 23.1392L167.316 23.1629V22.9973L167.458 22.9737V22.95C167.387 22.8791 167.268 22.8554 167.268 22.8554L167.008 22.9737C167.008 22.9737 166.985 22.9737 166.937 22.9973C167.056 22.95 166.985 22.7844 167.103 22.7844V22.7135C167.103 22.6425 167.079 22.5716 167.056 22.5243C167.103 22.5006 167.079 22.406 167.056 22.406C167.008 22.406 167.008 22.4296 167.008 22.4533C166.843 22.335 166.582 22.406 166.559 22.1222L166.441 22.2168C166.251 22.2168 166.086 21.9566 166.062 21.8383L165.967 21.862C165.967 21.7437 166.038 21.5782 165.849 21.6018C165.849 21.5545 165.826 21.4835 165.944 21.4835C165.944 21.4599 165.897 21.3653 165.826 21.3653L165.707 21.4835C165.755 21.3653 165.636 21.3653 165.636 21.2707H165.755V21.1761H165.731C165.731 21.0814 165.802 21.0341 165.731 20.8922C165.565 20.8213 165.471 20.8922 165.423 20.9868L165.376 21.0105L165.234 20.9159H165.376V20.8213C165.305 20.7976 165.163 20.632 165.163 20.632L165.045 20.7503L164.903 20.632L165.021 20.5611L164.974 20.4192C165.045 20.3719 165.092 20.3246 165.069 20.2536C165.045 20.1117 164.714 20.1353 164.761 20.3719C164.643 20.3246 164.194 19.9225 164.146 19.8752C164.075 19.8042 163.91 19.615 163.933 19.544C163.957 19.544 163.981 19.5677 164.004 19.5677H164.028C164.028 19.5913 164.075 19.615 164.099 19.6623L164.123 19.6859L164.217 19.8042C164.194 19.8278 164.194 19.8752 164.217 19.9225C164.241 19.9461 164.312 19.9461 164.359 19.9225C164.43 19.9934 164.477 20.0171 164.477 19.9934C164.477 19.9698 164.454 19.9461 164.406 19.8988C164.43 19.8988 164.454 19.8752 164.477 19.8515C164.454 19.7096 164.335 19.6859 164.264 19.7569L164.217 19.7096C164.288 19.6859 164.335 19.544 164.264 19.4967C164.194 19.4731 164.123 19.5204 164.099 19.5913C164.075 19.5677 164.052 19.5677 164.052 19.544C164.17 19.5204 164.17 19.4731 164.312 19.4258C164.359 19.3784 164.383 19.3311 164.406 19.2838C164.406 19.3548 164.454 19.3548 164.454 19.2838C164.454 19.2602 164.43 19.2365 164.43 19.2365V19.1892V19.1419C164.43 18.8817 164.123 18.7162 163.815 18.7398C163.791 18.8108 163.815 18.8817 163.815 18.9764H163.791C163.768 18.929 163.72 18.9054 163.697 18.8817L163.815 18.7162C163.91 18.7162 163.933 18.7162 164.004 18.6216H163.91L163.839 18.6689C163.886 18.5743 163.91 18.4796 163.886 18.3614C163.673 18.3141 163.295 18.5269 163.2 18.7871L162.822 18.456C162.869 18.456 162.916 18.4323 162.94 18.385C162.987 18.385 162.987 18.3614 162.987 18.3377C163.011 18.2904 163.011 18.2431 163.011 18.1958H163.318C163.295 18.0066 162.987 18.0066 163.058 17.8883L162.68 17.5808C162.727 17.5099 162.703 17.4153 162.609 17.3207C162.538 17.3207 162.491 17.3443 162.443 17.368C162.041 17.0132 161.568 16.6347 161.521 16.682L160.929 16.1144L160.811 16.138C160.646 16.138 160.504 15.4521 160.196 15.665L160.054 15.523C160.74 14.6006 161.426 13.6781 162.065 12.7557C162.112 12.7557 162.183 12.732 162.254 12.6611C162.23 12.5428 162.278 12.4482 162.254 12.3299C162.372 12.1644 162.467 12.0224 162.491 11.9278L162.159 12.3536C162.065 12.3536 161.994 12.259 161.876 12.3536C161.805 12.4245 161.805 12.5901 161.899 12.6847C161.497 13.1341 161.119 13.5835 160.669 13.9147C160.693 13.7491 160.669 13.6781 160.835 13.4653C160.858 13.4889 160.906 13.4889 160.953 13.4653C160.859 13.418 160.953 13.347 161 13.2997L162.136 11.8805C162.23 11.9278 162.325 11.9278 162.372 11.9278C162.443 11.8096 162.42 11.6913 162.372 11.573L162.703 11.1709C162.703 11.2892 162.798 11.4075 162.893 11.4784C162.822 11.5494 162.727 11.6203 162.703 11.6913C162.798 11.5967 162.893 11.5257 162.94 11.5967C162.964 11.6913 162.822 11.8096 162.774 11.9042C162.94 11.7623 163.082 11.5967 163.2 11.4548C163.247 11.4075 163.295 11.3602 163.318 11.2892C163.555 10.9817 163.744 10.6979 163.957 10.3904C163.602 10.6742 163.508 10.9108 163.318 11.1709C163.295 11.1 163.247 11.029 163.176 11.0054C163.508 10.7215 163.815 10.3904 163.957 10.0829L163.815 10.2248C163.815 10.1066 163.697 9.98831 163.579 10.012L163.862 9.60986C163.224 10.2248 162.798 10.9108 162.278 11.5021C162.254 11.4784 162.207 11.4548 162.183 11.4548C162.467 11.029 162.798 10.6033 163.106 10.1775C163.153 10.1775 163.176 10.1539 163.2 10.1066V10.0829L163.981 9.0895L164.548 8.35627C164.596 8.45088 164.738 8.49818 164.785 8.33261C164.785 8.30896 164.714 8.26166 164.667 8.238L164.714 8.16705V8.26166C164.832 8.11974 165.092 7.93052 165.14 7.7413L164.738 8.14339C164.903 7.93052 165.069 7.71764 165.258 7.52842C165.258 7.55207 165.258 7.59938 165.282 7.59938C165.353 7.59938 165.376 7.50477 165.305 7.48112C165.4 7.36285 165.494 7.26824 165.589 7.19728C165.967 6.46405 166.653 5.77812 167.316 4.99758C167.883 4.35895 168.404 3.57841 168.971 2.86883L170.249 1.26044C170.367 1.11853 170.745 0.669125 170.58 0.858347C168.215 3.62572 165.873 6.4877 163.673 9.23142C163.673 9.23142 163.65 9.25507 163.65 9.27872C163.531 9.20776 163.46 9.20777 163.389 9.30238C163.389 9.39699 163.437 9.44429 163.508 9.44429L163.295 9.72813C163.271 9.70447 163.224 9.70447 163.2 9.72813C163.224 9.75178 163.224 9.77543 163.224 9.79908L163.129 9.941C163.082 9.91735 163.035 9.91735 162.987 9.91735C162.916 9.98831 162.94 10.0829 162.987 10.1302L162.703 10.4377C162.443 10.6979 162.183 10.9108 161.97 11.1236C162.041 11.0054 162.088 10.8635 162.112 10.6979C162.207 10.0356 162.656 9.58621 163.129 9.16046C163.247 9.06585 163.413 8.94759 163.413 8.73471C163.366 8.71106 163.366 8.61645 163.437 8.61645C163.484 8.61645 163.508 8.61645 163.508 8.66375C163.531 8.61645 163.555 8.59279 163.531 8.54549H163.626V8.52184H163.602C163.602 8.52184 163.626 8.49818 163.65 8.49818C163.72 8.45088 163.744 8.35627 163.744 8.28531C163.768 8.26166 163.744 8.21435 163.72 8.1907C163.768 8.1907 163.862 8.11974 163.957 8.04878C163.981 8.02513 164.004 8.02513 164.004 8.00148C164.075 8.11974 164.217 8.16705 164.335 8.04878C164.335 7.97782 164.288 7.90687 164.194 7.83591C164.335 7.69399 164.454 7.57573 164.454 7.50477C164.43 7.3865 164.572 7.45746 164.667 7.26824H164.43L164.548 7.14998C164.738 7.07902 164.714 6.96076 164.832 6.86614L164.761 6.81884V6.74788L164.832 6.67692C164.95 6.62962 165.069 6.36944 165.069 6.36944L165.187 6.41674C165.187 6.34578 165.211 6.32213 165.305 6.22752C165.211 6.13291 165.211 6.15656 165.187 6.15656C165.163 5.96734 165.353 5.94369 165.542 5.94369L165.353 5.84908C165.376 5.6362 165.542 5.49428 165.66 5.35237C165.66 5.42333 165.731 5.42333 165.731 5.35237C165.731 5.32872 165.707 5.30506 165.684 5.32872C165.755 5.21045 165.826 5.11584 165.826 4.97393L165.518 5.25776C165.518 5.06854 165.613 4.85566 165.589 4.66644C165.4 4.69009 164.548 5.80177 164.477 6.01465H164.596C164.501 6.18022 164.075 6.41674 164.099 6.60596H164.264C164.146 6.67692 163.957 6.72423 163.839 6.74788V6.70057C163.815 6.51135 163.933 6.41674 164.075 6.41674C164.075 6.39309 164.004 6.29848 164.004 6.29848C164.075 6.29848 164.123 6.25117 164.194 6.15656C164.217 6.18021 164.217 6.20387 164.241 6.20387C164.288 6.20387 164.288 6.10926 164.264 6.06195C164.383 5.92003 164.477 5.75447 164.572 5.68351L164.217 5.70716C164.572 5.65985 165.305 5.06854 165.282 4.69009C165.282 4.57183 165.021 4.59548 165.021 4.40626L164.998 4.3353C164.998 4.28799 165.353 3.81494 165.353 3.76764L165.234 3.81494V3.76764C165.211 3.4838 166.015 2.96344 165.991 2.6323L165.423 3.29458H165.4C165.4 3.31823 165.4 3.4838 165.329 3.4838H165.234L165.211 3.38919C165.4 3.29458 165.376 3.10536 165.376 2.91614V2.67961C165.305 2.79787 165.045 3.19997 164.95 3.19997L164.241 3.9332L164.17 3.95686C164.241 3.86224 164.572 3.53111 164.572 3.4365C164.572 3.36554 164.525 3.34189 164.454 3.34189C164.572 3.22362 165.092 2.60865 165.187 2.49039L165.353 2.30116C164.998 2.37212 164.69 2.82152 164.501 3.05805H164.43L164.477 2.96344L164.714 2.6323H164.667C164.667 2.6323 164.548 2.84518 164.501 2.77422L163.91 3.38919L163.768 3.41284C163.839 3.36554 164.123 3.0817 164.123 2.98709C164.123 2.89248 164.052 2.86883 164.004 2.86883C164.123 2.75057 164.217 2.585 164.288 2.46673C164.099 2.60865 163.886 2.86883 163.839 3.17632L163.768 3.19997C163.72 3.19997 163.579 3.29458 163.531 3.38919V3.29458C163.342 3.31823 163.295 3.4365 163.295 3.60207C163.366 3.60207 163.366 3.67302 163.295 3.69668V3.60207C163.271 3.60207 163.271 3.69668 163.295 3.69668V3.79129C163.106 3.79129 163.176 3.81494 163.082 3.69668L163.153 3.50745V3.4365H163.058C163.082 3.69668 162.727 4.40626 162.349 4.42991C162.372 4.47722 162.443 4.47722 162.491 4.47722C162.467 4.57183 162.396 4.59548 162.349 4.61913C162.372 4.64279 162.372 4.7374 162.325 4.7374C162.278 4.7374 162.254 4.69009 162.278 4.66644C162.207 4.69009 162.159 4.7374 162.207 4.92662L162.136 4.85566L162.041 4.95027L162.088 5.02123V5.06854C161.97 5.1868 161.828 5.28141 161.734 5.37602L161.805 5.44698C161.734 5.6362 161.615 5.54159 161.497 5.54159V5.39967C161.379 5.39967 161.379 5.54159 161.237 5.56524H161.119L161.379 5.39967L161.213 5.30506L161.544 5.21045L161.592 5.28141H161.663L161.71 5.13949V5.06854L161.284 5.09219C161.284 5.09219 161.166 5.30506 161.095 5.2341L160.811 5.5889L160.788 5.32872L160.409 5.70716C160.433 5.6362 160.551 5.51794 160.551 5.44698V5.39967H160.527C160.527 5.21045 161.071 4.99758 160.882 4.80836L161.592 3.86224C161.497 3.90955 161.403 3.95686 161.355 4.02781C161.261 4.09877 161.19 4.19338 161.119 4.28799V4.31165L161.024 4.40626C160.953 4.52452 160.859 4.61913 160.764 4.71374V4.76105L160.693 4.83201L160.717 4.76105C160.669 4.83201 160.622 4.85566 160.575 4.90297C160.669 4.90297 160.693 5.02123 160.598 5.02123C160.551 5.02123 160.527 4.97392 160.527 4.95027L160.22 5.16315C160.173 5.2341 160.102 5.30506 160.031 5.35237C160.031 5.42333 159.912 5.49428 159.912 5.6362V5.68351L160.031 5.54159H160.054C160.031 5.61255 159.983 5.73081 159.912 5.75447H159.841L159.77 5.68351C159.77 5.6362 159.794 5.5889 159.794 5.54159C159.77 5.6362 159.723 5.73081 159.676 5.80177C159.7 5.84908 159.747 5.87273 159.794 5.87273L159.676 6.06195C159.558 6.15656 159.132 6.67692 159.037 6.77153L159.014 6.70057C159.226 6.39309 159.463 6.18021 159.676 5.94369C158.801 6.10926 158.895 7.29189 158.28 7.69399L158.399 7.67034L158.091 8.00148C157.997 7.93052 157.429 8.56914 157.287 8.75836V8.73471C157.334 8.54549 157.263 8.61645 157.405 8.56914C157.453 8.45088 157.523 8.45088 157.523 8.33261L157.453 8.35627C156.672 8.6401 157.003 9.42064 156.412 10.0356C156.128 10.2958 155.324 11.7859 155.087 11.7859C154.07 11.2419 152.958 10.2958 152.462 9.8937C152.249 9.72813 151.09 8.82932 150.428 8.90028V8.73471L150.309 8.78202L150.357 8.61645L150.215 8.54549V8.71106L150.144 8.73471C150.097 8.73471 149.813 8.56914 149.742 8.56914C149.813 8.45088 149.765 8.37992 149.694 8.33261C149.742 8.14339 149.789 8.00147 149.623 7.90687C149.34 7.85956 149.316 8.04878 149.079 8.04878C149.056 8.09609 149.056 8.11974 149.032 8.11974L148.559 8.26166C148.606 8.21435 148.63 8.16705 148.63 8.07243C148.488 7.93052 148.299 8.1907 148.441 8.30896C148.346 8.33261 148.228 8.35627 148.086 8.35627C147.802 8.37992 147.589 8.54549 147.447 8.73471C147.376 8.75836 147.353 8.80567 147.305 8.82932C147.282 8.75836 147.282 8.71106 147.211 8.68741C147.235 8.52184 147.353 8.45088 147.376 8.28531C147.187 8.30896 147.116 8.30896 146.903 8.26166C146.927 8.1907 146.88 8.14339 146.832 8.11974C146.809 8.35627 146.501 8.52184 146.288 8.33261C146.099 8.37992 145.934 8.45088 145.934 8.61645C145.934 8.94759 146.454 8.85297 146.549 8.61645C146.667 8.82932 146.974 9.0422 147.258 8.90028C147.282 8.90028 147.282 8.92393 147.305 8.94759L147.116 9.32603V9.25507C146.951 9.11316 146.738 9.25507 146.667 9.39699C146.738 9.5389 146.903 9.56256 147.045 9.51525C146.951 9.70447 146.88 9.82274 146.761 9.84639C146.572 9.84639 147.968 10.485 147.779 10.485C147.779 10.6269 146.691 9.84639 146.691 10.0356C146.738 10.6033 145.271 10.7452 145.815 12.5901L145.957 12.9686C146.146 13.0632 146.903 13.5835 146.903 13.7727C146.927 14.1512 145.579 13.1105 145.579 13.3706L146.88 14.2458L146.809 14.2695C146.927 14.2458 147.235 14.2458 147.329 14.4114C147.305 14.2458 147.376 14.1985 147.495 14.1985C147.424 14.3168 147.542 14.3168 147.566 14.4114C147.637 14.4114 147.755 14.4114 147.755 14.3877C149.127 15.0736 150.475 15.9251 151.752 16.753C150.83 19 145.248 24.1326 145.886 25.197C145.815 25.2207 145.768 25.2916 145.673 25.268C145.65 25.3626 145.602 25.4335 145.532 25.4809C145.461 25.6937 145.602 25.8593 145.792 25.8356C145.792 25.9066 145.839 25.9776 145.839 26.0722C145.673 26.0722 145.673 26.3797 145.863 26.285C145.886 26.0249 146.288 26.0722 146.43 25.8593C146.454 25.812 146.454 25.741 146.407 25.7174C146.454 25.7174 146.478 25.6937 146.525 25.6937C146.501 25.7883 146.572 25.8593 146.572 25.9776C146.596 26.0012 146.62 26.0249 146.643 26.0249C146.62 26.0249 146.596 26.0249 146.549 26.0485C146.454 26.2377 146.643 26.3797 146.738 26.2141C146.738 26.1431 146.738 26.0958 146.691 26.0485C146.785 26.0958 146.856 26.0485 146.974 26.0485V26.0722C146.998 26.0722 147.022 26.0485 147.045 26.0485H147.093C147.14 26.0485 147.164 26.0958 147.211 26.0958C147.258 26.0958 147.305 26.0722 147.353 26.0722C147.353 26.2377 147.376 26.4979 147.542 26.4506C147.589 26.4033 147.613 26.356 147.637 26.285C147.637 26.3797 147.708 26.356 147.779 26.3324C147.802 26.285 147.802 26.2141 147.779 26.1431C147.708 26.1904 147.684 26.2141 147.637 26.1904V26.0722C147.566 26.0722 147.542 26.0485 147.495 26.0249C147.542 26.0012 147.589 25.9539 147.637 25.9066L147.66 26.0722C147.708 26.0485 147.849 26.0485 147.849 25.9303H147.779L147.755 25.883L147.826 25.812V25.741L147.779 25.6937C147.802 25.6701 147.802 25.6701 147.802 25.6464H147.826C147.849 25.5991 147.849 25.5755 147.826 25.5518C147.92 25.5518 147.944 25.6228 147.944 25.6937C147.944 25.883 147.897 26.0485 147.897 26.1904C147.968 26.1904 148.039 26.1195 148.086 26.0485C148.157 26.0958 148.275 26.0958 148.275 26.1668L148.204 26.285H148.275L148.346 26.2141C148.346 26.2141 148.441 26.0958 148.559 25.9066C148.583 25.9776 148.606 26.0249 148.654 26.0249L148.583 26.1431H148.559C148.535 26.1431 148.535 26.1668 148.535 26.1904C148.441 26.356 148.37 26.4743 148.37 26.4979L148.417 26.6635C148.417 26.7345 148.394 26.7818 148.394 26.8527C148.394 26.8764 148.512 26.9946 148.583 26.971L148.701 26.9473V27.1365L148.677 27.1129C148.654 27.1602 148.677 27.2075 148.701 27.2075C148.725 27.1839 148.725 27.1602 148.725 27.1602C148.725 27.1129 148.748 26.971 148.89 26.971C148.914 26.971 149.008 26.9473 149.008 27.0183L148.914 27.1602L149.008 27.1365C149.103 27.1365 149.15 27.1129 149.221 27.1129L149.198 27.0183V26.9473C149.316 26.971 149.411 27.0183 149.482 27.0892L149.647 26.9946C149.742 26.9 149.742 26.8291 149.836 26.7581C149.955 26.6635 150.073 26.5216 150.167 26.3797H150.262V26.285C150.309 26.285 150.357 26.2614 150.404 26.2377C150.641 25.9303 150.877 25.6937 151.208 25.5282C151.232 25.5045 151.232 25.4335 151.255 25.3862C151.61 25.0551 151.847 24.6767 152.154 24.2982C152.225 24.2036 152.296 24.1326 152.414 24.0853C152.438 24.0617 152.438 23.9671 152.462 23.9434L152.769 23.6832C152.556 24.2982 151.421 25.4809 151.185 25.9776C150.901 26.0249 150.333 26.9473 150.38 26.971C150.806 27.2075 151.232 26.2141 151.374 26.1904C151.468 26.0722 152.083 25.197 152.273 25.0551C152.273 25.2207 152.06 25.4099 152.036 25.5755C151.847 25.6701 151.492 26.356 151.634 26.356C151.658 26.4506 152.249 25.5045 152.249 25.5991C152.462 25.4335 152.202 26.1904 152.698 25.7174C152.746 25.6701 152.793 25.5991 152.864 25.5518C152.84 25.5282 152.817 25.4809 152.84 25.4572C152.84 25.3862 152.84 25.3153 152.958 25.268C152.935 25.197 153.029 25.1261 153.053 25.0788C153.219 24.8422 153.502 24.7003 153.739 24.4874C153.786 24.4401 153.786 24.3692 153.857 24.3455C154.496 23.8961 154.591 23.3285 154.969 22.7844L154.945 22.7608L155.158 22.5006C155.158 22.5006 155.135 22.477 155.135 22.4533C155.371 22.1222 155.797 21.8856 156.033 21.5782C156.199 21.3653 156.435 20.9395 156.719 20.6557L156.838 20.5138L156.956 20.6084C156.956 20.5611 156.956 20.4901 157.027 20.4901C157.074 20.4901 157.098 20.6084 157.027 20.6084H157.003C157.429 20.9159 157.926 21.3889 158.067 21.5308H157.997L157.878 21.5072C157.902 21.7201 158.138 21.9093 158.351 21.8856L158.47 21.862L158.588 21.9566L158.493 22.0749L158.659 22.0039H158.682C158.872 21.9802 159.085 22.4296 159.368 22.4533V22.406C159.368 22.3823 159.297 22.3114 159.274 22.2877H159.368C159.652 22.2641 159.912 22.5716 160.267 22.5479C160.291 22.8554 160.362 22.8554 160.717 22.8791L160.598 22.95C160.669 22.95 160.693 23.021 160.693 23.0683C160.882 23.0919 160.906 23.1629 160.953 23.2338C160.953 23.2102 160.977 23.1865 161 23.1865C161.024 23.1865 161.024 23.3048 161 23.3048C161.071 23.3521 161.166 23.3521 161.379 23.3048L161.332 23.4231L161.237 23.5177C161.237 23.6123 161.403 23.6832 161.403 23.6832C161.426 23.6832 161.521 23.6832 161.521 23.6596V23.8015C161.544 23.8015 161.71 23.6596 161.71 23.6596L161.734 23.6832V23.7779L161.71 23.8015L161.663 23.8961C161.615 23.9434 161.544 23.9907 161.473 23.9907H161.45L161.426 23.9671H161.403C161.403 23.9198 161.403 23.8725 161.379 23.8725C161.426 23.8488 161.379 23.7779 161.332 23.7779ZM161.261 4.7847V4.85566C161.332 4.7847 161.45 4.66644 161.521 4.66644C161.568 4.66644 161.686 4.69009 161.757 4.69009C161.686 4.76105 161.568 4.7847 161.568 4.90297L161.592 4.97393C161.639 4.90297 161.876 4.69009 161.947 4.50087V4.64279C161.947 4.83201 161.876 4.83201 161.852 4.95027L162.183 4.54818V4.47722L162.112 4.42991L162.349 4.05147C162.372 4.07512 162.467 4.02781 162.561 3.9332C162.538 3.95686 162.538 3.95686 162.585 3.95686C162.609 3.95686 162.609 3.95686 162.609 3.90955L162.585 3.8859C162.916 3.53111 163.413 2.75057 163.413 2.6323C163.247 2.79787 163.082 3.29458 162.774 3.31823H162.751C162.774 3.24727 162.916 3.10536 162.94 2.93979C162.656 3.12901 162.017 3.69668 162.017 4.00416L162.041 4.07512L162.136 3.98051C162.112 4.31165 161.923 4.07512 161.852 4.3353C161.852 4.38261 161.828 4.57183 161.828 4.57183H161.757L161.734 4.45356C161.544 4.47722 161.261 4.59548 161.261 4.7847ZM163.626 23.7306C163.555 23.7779 163.555 23.8725 163.673 23.9198L163.768 23.8488L163.981 24.038L164.714 24.724C165.045 24.9841 165.447 25.3153 165.4 25.3153C165.353 25.3153 165.282 25.2916 165.211 25.2443L165.376 25.4809C165.4 25.4809 165.4 25.4572 165.447 25.4572C165.494 25.4572 165.494 25.5282 165.447 25.5282H165.423V25.5518C165.305 25.4335 165.187 25.2916 165.045 25.1734C164.667 24.9368 164.359 24.5347 164.335 24.4638C164.099 24.2509 163.862 24.0617 163.602 23.8961C163.579 23.9671 163.697 23.9907 163.673 24.038C163.46 23.9198 163.224 23.6596 163.058 23.6123C163.129 23.6832 163.271 23.7542 163.271 23.8725C163.106 23.7306 162.964 23.565 162.845 23.3285C162.964 23.3521 163.035 23.4467 163.153 23.494C163.035 23.3285 162.869 23.2102 162.727 23.1156C162.727 23.1865 162.798 23.2811 162.727 23.3285C162.703 23.2811 162.538 23.2102 162.538 23.0446C162.585 23.1156 162.632 23.1865 162.703 23.1392C162.585 23.021 162.467 22.8791 162.325 22.7608C162.325 22.7135 162.325 22.6662 162.278 22.6189C162.774 22.9973 163.224 23.3994 163.626 23.7306ZM160.622 13.0868C160.456 13.0632 160.244 13.2051 160.362 13.3943L160.007 13.7727C160.031 13.6781 160.054 13.5835 160.102 13.5362L160.173 13.418H160.22C160.244 13.3943 160.22 13.347 160.22 13.3233C160.314 13.1105 160.362 12.8739 160.48 12.6374C160.622 12.8739 160.953 12.5192 160.669 12.3536L160.527 12.4009C160.527 12.3772 160.527 12.3536 160.551 12.3299C160.882 12.0461 161.261 11.9042 161.592 11.5967C161.568 11.644 161.544 11.6677 161.544 11.6913C161.639 11.644 161.781 11.4548 161.828 11.4784C161.686 11.715 161.521 11.9278 161.355 12.1644C161.355 12.0224 161.19 11.9278 161.071 12.0934C161.048 12.188 161.142 12.3063 161.261 12.2826L161.142 12.4245C161.095 12.4009 161.024 12.4245 160.929 12.4718C160.906 12.5428 160.929 12.6138 160.953 12.6847C160.835 12.803 160.74 12.9449 160.622 13.0868ZM157.878 19.7332C157.855 19.6859 157.807 19.615 157.807 19.5677L157.997 19.4731C158.067 19.4731 158.162 19.4967 158.233 19.544C158.091 19.5677 157.973 19.5913 157.973 19.7096C158.02 19.8988 158.422 19.7805 158.257 19.5677C158.399 19.6386 158.517 19.7569 158.635 19.8515C158.73 19.9225 158.824 19.9934 158.919 20.0407C158.753 20.2773 159.061 20.703 159.25 20.3719C159.274 20.3719 159.274 20.3246 159.274 20.3009L159.629 20.5611C159.558 20.6557 159.51 20.774 159.51 20.8922L157.878 19.7332ZM145.058 26.4033H145.035C145.106 26.285 144.988 26.0722 144.846 26.2614C144.846 26.3797 144.869 26.4506 144.94 26.4506L144.775 26.5216C144.538 26.7818 144.656 27.2312 144.94 27.2075C144.988 27.2075 145.058 27.1365 145.129 27.1602C145.153 27.0183 145.271 26.8764 145.271 26.7108C145.271 26.4743 145.106 26.5452 145.058 26.4033ZM164.099 17.6045C164.004 16.9422 163.129 17.3916 163.413 17.841C163.579 18.0775 164.028 17.9356 164.099 17.6045ZM144.467 27.1839C144.443 27.0892 144.373 27.0656 144.349 27.0183C144.443 26.8764 144.349 26.6398 144.16 26.8054C144.16 26.8764 144.136 26.9237 144.16 26.9946C144.089 27.0419 144.065 27.1365 144.041 27.2312C143.947 27.2785 143.923 27.3494 143.876 27.444C143.876 27.7279 143.994 27.8698 144.231 27.8225C144.349 27.7515 144.302 27.5386 144.349 27.3967C144.396 27.3021 144.467 27.2785 144.467 27.1839ZM162.041 15.7832C162.207 15.4284 161.994 14.9554 161.521 15.0263C161.379 15.3338 161.544 15.8778 162.041 15.7832ZM167.647 28.9105C167.576 28.9342 167.529 28.9578 167.576 29.0288C167.481 29.0051 167.434 28.9105 167.363 28.8869C167.363 28.8395 167.434 28.8632 167.434 28.7922C167.126 28.4374 166.748 28.2719 166.417 27.9407C166.37 27.8934 166.393 28.0354 166.299 27.988C166.109 27.8934 166.015 27.5623 165.849 27.3967C165.755 27.4204 165.92 27.5623 165.802 27.5859C165.707 27.515 165.755 27.3731 165.755 27.3021V27.2785H165.873C166.086 27.444 166.275 27.6333 166.464 27.7988C166.914 28.1773 167.363 28.603 167.765 29.0288C167.694 29.0524 167.67 28.9815 167.647 28.9105ZM145.839 26.356C145.768 26.3324 145.768 26.427 145.697 26.427C145.626 26.4506 145.626 26.4033 145.579 26.427C145.532 26.4506 145.484 26.5216 145.437 26.5216C145.39 26.6398 145.413 26.7581 145.461 26.8291C145.508 26.8527 145.555 26.8527 145.626 26.8291C145.602 26.9 145.602 26.971 145.626 27.0656H145.815C145.934 26.971 145.863 26.7344 145.792 26.7108H145.768C145.768 26.6871 145.792 26.6635 145.792 26.6398C145.863 26.6162 145.886 26.5689 145.91 26.5216C145.91 26.427 145.91 26.356 145.839 26.356ZM147.991 7.90687C147.944 7.81225 147.897 7.69399 147.802 7.64668C147.684 7.7886 147.376 7.7886 147.4 8.02513C147.447 8.28531 147.968 8.238 147.991 7.90687ZM158.375 7.3392C158.446 7.3392 158.446 7.22093 158.375 7.22093C158.541 6.98441 158.706 6.70057 158.777 6.51135C158.47 6.98441 157.831 7.48112 157.807 7.88321V7.95417C157.855 7.90687 158.115 7.59938 158.351 7.24459C158.351 7.26824 158.351 7.3392 158.375 7.3392ZM163.626 10.4141C163.413 10.6033 163.224 10.7925 163.129 10.9817C163.035 10.9344 162.94 10.9108 162.845 10.9581L163.413 10.2012C163.46 10.2958 163.531 10.3904 163.626 10.4141ZM148.772 25.8593C148.725 25.812 148.677 25.7883 148.63 25.812C149.079 25.197 149.907 24.038 149.931 24.038C149.931 24.109 149.221 25.1497 148.772 25.8593ZM161.592 14.7189C161.71 14.6479 161.781 14.5533 161.757 14.3641C161.686 14.2931 161.592 14.2221 161.403 14.2458C161.237 14.3877 161.332 14.7898 161.592 14.7189ZM166.228 4.09877L166.086 4.02781C166.086 3.98051 166.109 3.90955 166.109 3.86224C166.015 3.95686 165.897 3.8859 165.778 4.05147H165.849C165.873 4.05147 165.92 4.00416 165.944 3.98051C165.92 4.14608 165.778 4.21704 165.778 4.35895H165.849L165.991 4.45356H166.062C166.18 4.38261 166.228 4.26434 166.228 4.14608V4.09877ZM160.646 23.5177H160.622V23.4704C160.622 23.494 160.646 23.494 160.646 23.5177C160.622 23.4231 160.575 23.3758 160.527 23.3285H160.551C160.575 23.3285 160.598 23.3048 160.598 23.2811C160.622 23.3285 160.669 23.3758 160.717 23.4231C160.717 23.4704 160.74 23.5177 160.764 23.5177C160.788 23.5177 160.788 23.494 160.811 23.4704C160.811 23.494 160.835 23.494 160.859 23.5177L160.811 23.4467C160.811 23.3994 160.788 23.3521 160.74 23.3521C160.669 23.2102 160.575 23.0919 160.456 23.0446L160.527 23.1865C160.504 23.2102 160.504 23.2811 160.527 23.3285C160.409 23.2102 160.267 23.1629 160.196 22.9737C160.196 22.95 160.22 22.95 160.267 22.95C160.22 22.9264 160.196 22.9027 160.196 22.8791C160.196 22.9027 160.196 22.95 160.149 22.95C160.078 22.9737 160.054 22.8791 159.983 22.8554C160.031 22.95 160.078 23.021 160.125 23.0683C160.054 23.0683 160.054 23.2102 160.125 23.2102C160.149 23.2102 160.173 23.1156 160.149 23.0919L160.22 23.1629C160.196 23.1865 160.196 23.2811 160.244 23.2811C160.291 23.2811 160.314 23.2338 160.291 23.2102C160.314 23.2102 160.314 23.2338 160.338 23.2338C160.291 23.2811 160.314 23.3521 160.362 23.3521C160.385 23.3521 160.409 23.3285 160.409 23.3048L160.456 23.3521H160.433C160.385 23.3521 160.409 23.4704 160.456 23.4704C160.504 23.4467 160.504 23.3994 160.48 23.3758L160.575 23.4467C160.527 23.4467 160.527 23.5413 160.575 23.5413C160.598 23.5413 160.598 23.5413 160.622 23.5177C160.575 23.5413 160.575 23.6359 160.646 23.6359C160.717 23.6359 160.717 23.5177 160.646 23.5177ZM160.646 21.3653C160.622 21.3653 160.598 21.3653 160.575 21.3889L160.646 21.3416C160.929 21.5308 161.19 21.7437 161.473 21.9566C161.379 21.9329 161.237 21.9802 161.237 22.1222L161.19 22.0749C161.142 22.0039 161.166 21.9566 161.166 21.9093C161.071 21.862 160.977 21.791 160.882 21.7201C160.906 21.7201 160.906 21.6964 160.906 21.6964C160.859 21.5545 160.764 21.5545 160.693 21.6255C160.646 21.6255 160.622 21.6018 160.598 21.6018C160.669 21.6018 160.74 21.4362 160.646 21.3653ZM164.572 9.91735C164.477 9.84639 164.548 9.72813 164.525 9.63351C164.359 9.58621 164.217 9.56256 164.099 9.75178C164.146 9.98831 164.43 9.96465 164.572 9.91735ZM167.197 21.4126C167.103 21.3416 166.961 21.2707 166.795 21.3889C166.795 21.4599 166.748 21.5308 166.795 21.6491C166.937 21.7437 167.245 21.6018 167.197 21.4126ZM166.512 26.2614C166.441 26.3324 165.589 25.6701 165.636 25.6228C165.731 25.5991 166.606 26.2377 166.512 26.2614ZM161.757 13.0159C161.473 13.4653 161.166 13.9147 160.74 14.3641C161.024 13.9147 161.355 13.4653 161.757 13.0159ZM163.271 3.22362V3.31823C163.437 3.27093 163.697 2.91614 163.697 2.77422C163.508 2.86883 163.247 3.01075 163.271 3.22362ZM166.275 2.75057L165.542 3.55476C165.731 3.4838 166.275 3.05805 166.275 2.77422V2.75057ZM162.845 17.4389C162.869 17.5099 162.916 17.5808 162.964 17.6281C162.893 17.6281 162.916 17.7701 162.987 17.7701C163.035 17.7701 163.035 17.6518 162.987 17.6281C163.437 17.5335 162.964 17.0841 162.845 17.4389ZM146.265 26.5216C146.288 26.4506 146.265 26.285 146.194 26.2614C146.123 26.2377 146.052 26.3087 145.981 26.356C145.957 26.4506 146.005 26.5689 146.028 26.6635C146.123 26.6635 146.241 26.5925 146.265 26.5216ZM150.049 6.81884L150.238 6.91345C150.286 6.86614 150.38 6.84249 150.38 6.72423C150.333 6.65327 150.238 6.62962 150.191 6.60596C150.191 6.46405 150.073 6.4877 150.002 6.55866C149.978 6.70057 150.12 6.67692 150.049 6.81884ZM149.765 7.50477C149.671 7.43381 149.482 7.45746 149.434 7.55207C149.292 7.83591 149.884 7.85956 149.765 7.50477ZM147.376 27.0656C147.376 26.971 147.305 27.0419 147.164 26.971C147.093 26.9237 147.116 26.7581 146.974 26.8764C146.927 26.971 146.998 27.0892 147.045 27.1365C147.116 27.1129 147.164 27.0656 147.187 27.1365C147.187 27.2075 147.164 27.2312 147.211 27.2785C147.305 27.2312 147.4 27.1602 147.376 27.0656ZM148.488 26.4743C148.464 26.4743 148.512 26.3797 148.583 26.2614C148.606 26.2377 148.606 26.2377 148.606 26.2141C148.796 25.9539 149.103 25.5518 149.15 25.5518C149.221 25.5518 148.559 26.4506 148.488 26.4743ZM165.329 19.1892C165.282 19.1892 165.258 19.1892 165.234 19.1419C165.069 19.1892 164.974 19.2602 165.045 19.4258C165.14 19.5677 165.447 19.4021 165.329 19.1892ZM165.282 4.31165C165.258 4.31165 165.187 4.28799 165.187 4.21704C165.163 4.28799 165.092 4.40626 165.116 4.45356V4.50087H165.211L165.305 4.57183H165.4C165.471 4.57183 165.494 4.45356 165.471 4.38261L165.4 4.45356L165.447 4.24069C165.423 4.28799 165.353 4.31165 165.282 4.31165ZM161.521 22.1695C161.544 22.1222 161.568 22.0749 161.544 22.0512V22.0276L162.254 22.5952H162.112C161.923 22.4296 161.71 22.2877 161.521 22.1695ZM165.163 24.8422C165.116 24.8422 164.17 23.9671 164.217 23.9671C164.288 23.9671 165.234 24.8186 165.163 24.8422ZM146.383 26.5452C146.359 26.6871 146.454 26.8291 146.501 26.9237C146.572 26.9237 146.596 26.8764 146.643 26.8291C146.62 26.6635 146.572 26.4033 146.383 26.5452ZM164.406 2.34847C164.643 2.1356 164.809 1.82811 164.95 1.56793H164.927L164.359 2.27751L164.406 2.34847ZM164.335 3.4365H164.406L164.454 3.53111L163.981 3.95686C163.981 3.83859 164.264 3.4365 164.335 3.4365ZM160.362 23.6596C160.267 23.565 160.125 23.4704 160.007 23.3521C159.936 23.3048 159.676 23.021 159.77 23.1392C160.149 23.6123 160.646 23.8961 161.142 24.4165C160.929 24.0617 160.622 23.8961 160.362 23.6596ZM146.265 25.7174C146.146 25.6701 146.052 25.6464 145.886 25.7174L146.076 25.5518C146.052 25.3862 145.957 25.3862 145.934 25.268C145.981 25.3153 146.052 25.3389 146.123 25.3626C146.194 25.3626 146.146 25.6228 146.146 25.6228L146.241 25.6937V25.4335C146.265 25.4335 146.265 25.4099 146.288 25.4099C146.288 25.3626 146.288 25.3389 146.265 25.3153C146.265 25.2916 146.288 25.268 146.312 25.268C146.312 25.268 146.336 25.3389 146.383 25.4099C146.359 25.4099 146.336 25.4099 146.312 25.4335C146.241 25.5282 146.265 25.6228 146.336 25.6701C146.312 25.6701 146.288 25.6937 146.265 25.7174ZM159.912 22.8791L159.463 22.5243H159.392L159.487 22.6425V22.7135L159.392 22.6425C159.439 22.8317 159.77 22.8554 159.912 22.9264V22.8791ZM163.697 16.8713C163.839 17.0132 164.052 16.8476 163.981 16.6584C163.839 16.6111 163.626 16.7057 163.697 16.8713ZM145.815 27.3731C145.532 27.3731 145.602 27.7515 145.768 27.6806C145.91 27.6333 145.934 27.444 145.815 27.3731ZM144.988 28.9578C145.058 28.8868 145.035 28.7686 145.011 28.674C144.727 28.5794 144.727 29.1707 144.988 28.9578ZM148.181 26.8527C148.086 27.0892 148.275 27.2075 148.441 27.0892C148.417 26.9 148.323 26.8291 148.181 26.8527ZM146.194 26.8764C146.123 26.971 146.17 27.1365 146.241 27.1602C146.43 27.1365 146.43 26.9237 146.359 26.8291C146.288 26.8764 146.288 26.8527 146.194 26.8764ZM148.583 7.67034C148.488 7.67034 148.394 7.64668 148.323 7.59938C148.299 7.69399 148.275 7.81225 148.346 7.88321C148.512 7.90687 148.606 7.83591 148.583 7.67034ZM164.43 17.841C164.288 17.8883 164.241 17.9593 164.264 18.0775C164.43 18.2431 164.667 17.912 164.43 17.841ZM160.622 5.73081L160.291 6.25117C160.291 6.32213 160.291 6.41674 160.267 6.41674L160.196 6.25117C160.244 6.10926 160.456 5.82542 160.622 5.73081ZM148.748 7.71764C148.867 7.69399 148.961 7.62303 148.938 7.48112C148.819 7.3392 148.606 7.52842 148.701 7.69399C148.725 7.69399 148.748 7.69399 148.748 7.71764ZM168.546 30.2824C168.285 30.0695 168.025 29.8566 167.812 29.5728C168.073 29.762 168.333 29.9985 168.546 30.2824ZM165.589 4.61913C165.684 4.66644 165.636 4.92662 165.802 4.92662L165.778 4.54818C165.684 4.54818 165.589 4.54818 165.589 4.61913ZM163.342 4.99758C163.342 5.11584 163.247 5.25776 163.153 5.25776H163.058L163.176 5.11584H163.035C163.058 4.99758 163.247 4.99758 163.342 4.99758ZM161.213 16.209V16.1144C161.19 16.1144 160.693 15.6886 160.669 15.6886C160.669 15.7123 161.119 16.1853 161.119 16.1853L161.213 16.209ZM165.873 19.4494C165.802 19.4258 165.684 19.4731 165.636 19.5204C165.66 19.8042 166.062 19.615 165.873 19.4494ZM159.416 7.17363C159.416 7.24459 159.439 7.36285 159.439 7.36285L159.368 7.43381C159.321 7.43381 158.966 7.85956 158.895 7.95417L159.416 7.17363ZM146.691 26.971C146.667 27.1129 146.478 27.3731 146.738 27.3021C146.761 27.1839 146.856 27.0419 146.761 26.9473C146.738 26.9473 146.714 26.971 146.691 26.971ZM166.985 23.0919H167.008C167.126 23.0919 167.292 23.2811 167.339 23.3521C167.174 23.3521 167.032 23.2102 166.89 23.1865L166.985 23.0919ZM165.447 2.04098C165.542 2.01733 165.66 2.01733 165.731 1.82811H165.66L165.542 1.89907V1.82811C165.518 1.7808 165.518 1.7335 165.589 1.70985C165.423 1.75715 165.447 1.99368 165.329 2.04098H165.447ZM165.92 27.988C166.18 27.8461 166.417 28.2719 166.653 28.4848C166.346 28.4611 166.228 27.8934 165.92 27.988ZM166.275 22.406L166.393 22.5243V22.406C166.488 22.3823 166.582 22.3823 166.606 22.5006C166.582 22.5006 166.464 22.5479 166.393 22.5716H166.299C166.275 22.5716 166.204 22.5716 166.204 22.5243L166.275 22.406ZM143.592 27.6096C143.592 27.7279 143.616 27.7515 143.663 27.7988C143.947 27.6806 143.734 27.3258 143.592 27.6096ZM160.031 21.0814C159.983 21.0341 159.889 21.0578 159.818 21.1051L159.723 21.0341C159.818 20.9868 159.912 20.9159 160.007 20.8449L160.102 20.9159C160.031 20.9632 160.054 21.0341 160.031 21.0814ZM165.565 27.2785C165.518 27.2785 165.471 27.2785 165.423 27.2548C165.376 27.2075 165.353 27.1602 165.329 27.1129C165.4 27.1602 165.471 27.1839 165.542 27.1839L165.518 27.0419H165.589L165.755 27.1839C165.684 27.2075 165.613 27.2312 165.565 27.2785ZM166.724 20.4192C166.677 20.3482 166.535 20.3719 166.488 20.4665C166.488 20.5374 166.535 20.5611 166.559 20.6084C166.677 20.632 166.772 20.5611 166.724 20.4192ZM165.447 21.3889C165.447 21.4835 165.423 21.5782 165.353 21.5782H165.282L165.329 21.5072C165.211 21.5072 165.14 21.3889 165.14 21.318H165.258V21.3889H165.447ZM167.505 24.038C167.363 24.038 167.245 23.9907 167.174 23.8725C167.174 23.8488 167.245 23.8488 167.316 23.8488C167.434 23.8252 167.505 23.9198 167.505 24.038ZM143.947 28.3665L144.041 28.3192C144.231 27.9171 143.71 28.13 143.947 28.3665ZM160.409 5.51794C160.385 5.75447 160.291 5.94369 160.078 5.94369L160.409 5.51794ZM145.342 25.7174C145.295 25.7174 145.248 25.6701 145.2 25.6701C145.082 25.7647 145.2 25.883 145.248 25.9539C145.342 25.9066 145.366 25.8356 145.342 25.7174ZM167.008 22.335C167.103 22.3114 167.15 22.2641 167.103 22.1458H167.079V22.0985H167.032L167.056 22.1458C166.985 22.1222 166.914 22.1695 166.914 22.2168L166.843 22.2404L166.961 22.3587L167.008 22.335ZM150.238 8.1907C150.309 8.238 150.428 8.1907 150.475 8.14339C150.499 7.90687 150.191 8.00148 150.238 8.1907ZM165.731 21.7437C165.731 21.791 165.731 21.791 165.778 21.862C165.778 21.862 165.66 21.9329 165.589 21.9329L165.471 21.8856C165.494 21.7674 165.636 21.7437 165.731 21.7437ZM166.086 18.6216C165.967 18.6452 165.897 18.6925 165.897 18.7871C165.92 18.7871 165.944 18.7871 165.944 18.8344C166.086 18.8581 166.228 18.7162 166.086 18.6216ZM159.912 14.8371C159.983 14.8844 159.865 14.979 159.747 15.0736C159.794 15.121 159.841 15.1446 159.936 15.05C159.912 15.121 159.841 15.2156 159.794 15.2865C159.747 15.2392 159.7 15.1919 159.676 15.1446L159.912 14.8371ZM148.086 26.6398C148.039 26.7108 147.991 26.7581 147.991 26.8527C148.039 26.8764 148.062 26.9 148.11 26.9L148.204 26.8054C148.181 26.7108 148.157 26.6398 148.086 26.6398ZM169.87 28.603C169.988 28.6267 170.13 28.674 170.107 28.7922L169.965 28.8632C169.965 28.7449 169.87 28.6503 169.799 28.603H169.87ZM158.848 21.9329C158.682 21.9566 158.493 21.7674 158.47 21.6728L158.848 21.862V21.9329ZM164.501 10.2721C164.43 10.2248 164.359 10.2485 164.312 10.2248C164.194 10.3431 164.43 10.5087 164.501 10.3904V10.2721ZM165.897 6.13291L165.967 6.10926C165.967 6.10926 165.991 5.94369 165.991 5.87273C165.897 5.92003 165.731 6.13291 165.778 6.15656C165.778 6.18021 165.897 6.13291 165.897 6.13291ZM149.978 7.14998C149.907 7.07902 149.789 7.10267 149.742 7.19728C149.742 7.24459 149.789 7.26824 149.813 7.31555C149.907 7.31555 149.978 7.24459 149.978 7.14998ZM164.974 3.60207V3.69668L164.501 4.19338C164.619 4.00416 164.785 3.79129 164.974 3.60207ZM162.68 3.4365V3.46015C162.609 3.62572 162.585 3.72033 162.467 3.74398H162.396C162.467 3.67302 162.561 3.4365 162.68 3.4365ZM164.667 18.7162C164.619 18.7162 164.619 18.6925 164.596 18.6925C164.477 18.7162 164.454 18.7635 164.454 18.8581C164.501 18.8581 164.501 18.9054 164.525 18.9054C164.643 18.8817 164.69 18.8108 164.667 18.7162ZM168.995 23.5886C169.019 23.6596 168.995 23.7542 168.924 23.7779L169.019 23.8961V23.7779C169.137 23.7542 169.137 23.8252 169.208 23.8252C169.208 23.7306 169.113 23.6359 168.995 23.5886ZM147.4 27.2785C147.447 27.3731 147.353 27.3731 147.329 27.3967V27.515C147.447 27.4913 147.424 27.3967 147.518 27.4204C147.589 27.3021 147.495 27.1839 147.4 27.2785ZM158.872 21.9802H158.966C159.061 21.9802 159.179 22.0985 159.203 22.2168C159.085 22.2404 158.966 22.0512 158.872 21.9802ZM145.248 27.7515C145.177 27.8461 145.224 28.0117 145.366 27.9407C145.437 27.8461 145.366 27.6806 145.248 27.7515ZM161.379 5.77812H161.426L161.119 6.18021V6.0856C161.119 5.99099 161.261 5.87273 161.379 5.77812ZM168.191 24.2746C168.262 24.2509 168.333 24.2982 168.38 24.3692L168.215 24.5111L168.191 24.4401L168.144 24.2746H168.191ZM166.606 22.8081C166.701 22.8081 166.795 22.8791 166.89 22.8791V22.9973C166.795 22.9973 166.606 22.9264 166.606 22.8081ZM164.974 25.3389C164.879 25.3862 164.809 25.2207 164.832 25.1497C164.95 25.1024 165.092 25.268 164.974 25.3389ZM157.665 21.0341H157.618L157.24 20.7267C157.311 20.7503 157.571 20.8922 157.642 20.8922C157.665 20.9159 157.642 21.0105 157.665 21.0341ZM161.97 22.7608C161.876 22.7135 161.757 22.6425 161.734 22.5716C161.852 22.5479 161.923 22.5952 162.017 22.6425C161.994 22.6898 161.97 22.7135 161.97 22.7608ZM163.484 3.79129C163.484 3.57841 163.602 3.67302 163.72 3.57841L163.744 3.60207L163.484 3.86224V3.79129ZM164.714 9.11316C164.525 9.25507 164.43 9.37334 164.43 9.4916C164.548 9.44429 164.643 9.23142 164.714 9.11316ZM144.727 28.0827C144.775 28.0117 144.775 27.8461 144.656 27.8934C144.562 27.9644 144.585 28.1536 144.727 28.0827ZM149.6 6.84249C149.647 6.81884 149.718 6.79519 149.694 6.70057C149.623 6.62962 149.482 6.70057 149.482 6.77153C149.529 6.79519 149.529 6.86614 149.6 6.84249ZM145.2 26.1431C145.224 26.0958 145.2 26.0012 145.2 25.9539C145.153 25.9776 145.153 25.9303 145.082 25.9776C145.035 26.0722 145.082 26.1904 145.2 26.1431ZM150.144 8.68741L150.12 8.54549L149.836 8.45088C149.836 8.47453 150.097 8.68741 150.144 8.68741ZM164.454 26.427H164.596C164.643 26.5216 164.714 26.6162 164.809 26.7108C164.667 26.6398 164.548 26.5452 164.454 26.427ZM168.782 24.4638C168.829 24.4638 168.829 24.3692 168.782 24.3455C168.829 24.3219 168.806 24.2273 168.759 24.2273C168.664 24.2273 168.664 24.3219 168.735 24.3455C168.664 24.3692 168.688 24.4638 168.782 24.4638ZM166.937 23.9434C167.008 23.9434 167.032 24.038 166.961 24.0617C167.032 24.0853 167.032 24.18 166.961 24.18C166.89 24.2036 166.866 24.0853 166.937 24.0617C166.866 24.0853 166.866 23.9671 166.937 23.9434ZM166.914 3.19997C166.866 3.19997 166.724 3.24727 166.724 3.41284L166.795 3.38919C166.866 3.38919 166.914 3.29458 166.914 3.19997ZM165.897 27.7752C165.684 27.7752 165.565 27.6569 165.423 27.515C165.494 27.5623 165.755 27.6806 165.897 27.7752ZM159.108 6.10926C159.108 6.10926 159.203 6.0383 159.203 5.94369C159.179 5.96734 159.014 6.10926 159.014 6.13291C158.919 6.4877 158.99 6.32213 159.108 6.10926ZM163.484 2.70326L163.673 2.585C163.602 2.585 163.602 2.51404 163.602 2.44308H163.531L163.484 2.70326ZM144.68 26.1195C144.68 26.0249 144.656 25.9776 144.585 26.0012C144.443 26.0722 144.585 26.285 144.68 26.1195ZM161.355 24.18L161.379 24.2509C161.379 24.3692 161.45 24.4401 161.568 24.4874H161.592C161.568 24.4165 161.45 24.3219 161.45 24.2509L161.355 24.18ZM145.697 28.5321C145.673 28.6267 145.744 28.6976 145.815 28.674C145.815 28.6267 145.886 28.6267 145.863 28.5557C145.839 28.5084 145.792 28.4848 145.697 28.5321ZM163.65 8.94759C163.72 8.97124 163.673 9.01854 163.72 9.0422C163.815 9.01854 163.791 8.97124 163.839 8.90028C163.744 8.82932 163.697 8.82932 163.65 8.94759ZM158.304 19.8278C158.304 19.8988 158.209 19.9225 158.257 19.9934C158.328 20.0171 158.375 19.9934 158.422 19.9461C158.399 19.8515 158.351 19.8278 158.304 19.8278ZM168.096 25.4099L168.073 25.268H168.12C168.12 25.268 168.333 25.3626 168.404 25.3626L168.096 25.4099ZM165.589 2.96344L165.684 2.65595L165.589 2.70326C165.589 2.70326 165.494 2.96344 165.589 2.96344ZM145.295 26.7818C145.177 26.971 145.461 26.9946 145.413 26.7818C145.366 26.7818 145.342 26.7581 145.295 26.7818ZM146.761 28.4848C146.761 28.5084 146.738 28.5084 146.714 28.5321C146.714 28.603 146.714 28.6267 146.761 28.674C146.832 28.674 146.832 28.6267 146.856 28.5794C146.856 28.5321 146.809 28.4848 146.761 28.4848ZM166.606 4.57183V4.50087C166.488 4.57183 166.441 4.64279 166.441 4.76105L166.464 4.80836L166.559 4.61913L166.606 4.57183ZM159.983 6.13291H160.054L159.77 6.44039C159.818 6.27483 159.936 6.15656 159.983 6.13291ZM167.079 3.01075C167.079 2.96344 167.056 2.91614 167.008 2.91614C166.961 2.91614 166.985 3.0817 167.032 3.0817C167.056 3.0817 167.056 3.10536 167.103 3.10536C167.174 3.10536 167.15 3.01075 167.079 3.01075ZM162.017 11.8096L161.71 12.1171L161.97 11.7386L162.017 11.8096ZM166.63 3.81494H166.559C166.441 3.81494 166.393 3.8859 166.417 3.9332C166.535 3.9332 166.582 3.9332 166.63 3.81494ZM164.406 3.22362C164.406 3.24727 164.217 3.4365 164.146 3.46015C164.075 3.46015 164.406 3.15266 164.406 3.22362ZM163.035 2.93979C163.058 2.91614 163.2 2.72691 163.2 2.65595C163.035 2.72691 163.035 2.84518 163.035 2.93979ZM161.876 24.724H161.852C161.828 24.6767 161.828 24.653 161.805 24.653C161.781 24.6767 161.781 24.7949 161.805 24.7713H161.828C161.805 24.8186 161.828 24.8422 161.876 24.8422C161.97 24.8422 161.97 24.724 161.876 24.724ZM168.049 24.5111L167.978 24.5821C167.931 24.5821 167.765 24.4874 167.765 24.4401L168.049 24.5111ZM163.413 2.32482L163.295 2.46673V2.53769C163.389 2.51404 163.413 2.44308 163.484 2.39578L163.413 2.32482ZM163.791 4.59548C163.72 4.59548 163.72 4.50087 163.768 4.47722C163.697 4.45356 163.697 4.35895 163.768 4.35895C163.815 4.3353 163.839 4.45356 163.791 4.47722C163.839 4.45356 163.839 4.57183 163.791 4.59548ZM166.441 2.23021C166.417 2.23021 166.393 2.25386 166.393 2.25386C166.417 2.23021 166.417 2.20655 166.417 2.15925C166.417 2.11194 166.251 2.30116 166.322 2.30116C166.346 2.30116 166.37 2.27751 166.393 2.25386C166.37 2.30116 166.393 2.34847 166.441 2.34847C166.488 2.34847 166.488 2.23021 166.441 2.23021ZM166.701 3.50745C166.63 3.53111 166.559 3.57841 166.512 3.62572V3.69668C166.559 3.69668 166.701 3.62572 166.701 3.50745ZM147.589 26.5452C147.518 26.6162 147.542 26.7581 147.66 26.6871C147.708 26.6162 147.66 26.5216 147.589 26.5452ZM169.066 27.4677C169.066 27.5623 168.9 27.5623 168.9 27.4677C168.9 27.3967 169.066 27.3967 169.066 27.4677ZM169.019 25.5518C169.09 25.5518 169.09 25.7174 169.019 25.7174C168.924 25.7174 168.924 25.5518 169.019 25.5518ZM161.095 5.42333C161.071 5.39967 161.071 5.30506 161.095 5.30506C161.166 5.30506 161.19 5.42333 161.119 5.42333H161.095C161.119 5.44698 161.119 5.56524 161.095 5.56524C161 5.56524 161 5.42333 161.095 5.42333ZM164.95 19.9461C164.998 19.9461 164.974 19.8278 164.927 19.8278C164.927 19.8042 164.903 19.7569 164.856 19.7569C164.809 19.7569 164.832 19.8752 164.879 19.8752C164.879 19.8988 164.903 19.9461 164.95 19.9461ZM169.35 24.3219H169.373C169.373 24.3455 169.397 24.3692 169.421 24.3692C169.515 24.3455 169.515 24.2273 169.421 24.2509H169.397C169.397 24.2273 169.373 24.2036 169.35 24.2036C169.326 24.2036 169.326 24.3219 169.35 24.3219ZM150.049 7.00806C150.049 6.91345 149.978 6.91345 149.907 6.91345C149.907 6.9371 149.884 6.96076 149.86 7.00806C149.907 7.03171 150.002 7.03171 150.049 7.00806ZM165.116 20.7503C165.163 20.7503 165.163 20.774 165.163 20.8213C165.163 20.8213 165.163 20.7976 165.187 20.7976C165.234 20.7976 165.234 20.9159 165.187 20.9159C165.14 20.9395 165.116 20.8922 165.14 20.8449H165.116C165.045 20.8449 165.045 20.7503 165.116 20.7503ZM166.157 21.6491V21.5782C166.133 21.5545 166.086 21.5308 166.062 21.5308H166.038C166.062 21.5782 166.062 21.7201 166.062 21.7674L166.157 21.6491ZM161.024 5.89638C161.119 5.89638 161.119 6.06195 161.024 6.06195C160.953 6.06195 160.953 5.89638 161.024 5.89638ZM163.555 7.12632C163.555 7.00806 163.626 6.8898 163.768 6.8898L163.555 7.12632ZM162.183 3.34189C162.254 3.34189 162.23 3.17632 162.159 3.17632C162.088 3.17632 162.112 3.34189 162.183 3.34189ZM163.413 4.7847C163.508 4.7847 163.531 4.92662 163.437 4.92662C163.366 4.95027 163.342 4.80836 163.413 4.7847ZM158.067 21.3889C157.997 21.3889 157.973 21.2234 158.044 21.2234C158.115 21.2234 158.138 21.3889 158.067 21.3889ZM167.292 22.7135V22.5243L167.174 22.5952C167.174 22.6662 167.245 22.7135 167.292 22.7135ZM146.288 7.88321C146.312 7.76495 146.194 7.76495 146.146 7.81225V7.88321C146.217 7.88321 146.241 7.93052 146.288 7.88321ZM162.065 24.9605C161.994 24.9605 162.017 25.1024 162.088 25.1024C162.183 25.1024 162.159 24.9605 162.065 24.9605ZM150.026 7.81225C150.002 7.7886 149.884 7.7886 149.86 7.83591V7.90687C149.955 7.90687 150.026 7.88321 150.026 7.81225ZM159.841 6.84249C159.841 6.96076 159.723 7.03171 159.652 7.03171H159.605C159.652 6.96076 159.794 6.91345 159.841 6.84249ZM160.314 21.4362C160.338 21.4599 160.362 21.4599 160.409 21.4599C160.456 21.4599 160.48 21.4362 160.504 21.4362C160.48 21.4599 160.48 21.5072 160.527 21.5545C160.551 21.6018 160.575 21.6018 160.598 21.6018H160.551L160.314 21.4362ZM163.46 6.81884C163.508 6.81884 163.531 6.91345 163.484 6.9371C163.531 6.96076 163.531 7.05537 163.484 7.05537C163.46 7.07902 163.437 6.96076 163.46 6.9371C163.437 6.96076 163.437 6.84249 163.46 6.81884ZM167.268 2.86883C167.339 2.86883 167.339 2.70326 167.268 2.70326C167.197 2.72691 167.197 2.86883 167.268 2.86883ZM164.383 4.31165L164.335 4.42991C164.335 4.42991 164.194 4.35895 164.194 4.28799C164.217 4.28799 164.359 4.3353 164.383 4.31165ZM162.301 4.35895L162.491 4.12243H162.42C162.42 4.12243 162.301 4.24069 162.301 4.31165V4.35895ZM149.056 27.6333C148.961 27.6569 148.961 27.7988 149.056 27.7752C149.127 27.7752 149.127 27.6333 149.056 27.6333ZM165.447 20.2536C165.471 20.2063 165.447 20.1117 165.376 20.1353C165.376 20.1826 165.305 20.2063 165.305 20.2536C165.376 20.2299 165.376 20.3009 165.447 20.2536ZM166.062 2.44308V2.56135L166.18 2.30116C166.062 2.30116 166.062 2.37212 166.062 2.44308ZM158.02 8.04878C158.091 8.04878 158.091 8.1907 158.02 8.1907C157.926 8.1907 157.926 8.04878 158.02 8.04878ZM164.525 1.26044C164.596 1.23679 164.596 1.07122 164.525 1.09487C164.454 1.09487 164.454 1.26044 164.525 1.26044ZM161.497 22.335C161.544 22.2404 161.45 22.3114 161.403 22.2877V22.2168C161.426 22.2168 161.45 22.2168 161.473 22.1931C161.521 22.2404 161.568 22.2877 161.592 22.3587C161.544 22.2877 161.521 22.335 161.497 22.335ZM162.396 10.2012C162.443 10.2012 162.467 10.1539 162.467 10.1066C162.443 10.0593 162.42 10.0829 162.372 10.0593C162.325 10.1302 162.325 10.1775 162.396 10.2012ZM167.931 28.4611C167.836 28.3665 167.741 28.3192 167.647 28.2009L167.836 28.2955C167.883 28.3428 167.907 28.3901 167.931 28.4611ZM169.468 24.5347C169.634 24.582 169.539 24.4165 169.444 24.4401C169.373 24.4401 169.397 24.5347 169.468 24.5347ZM164.619 20.8686C164.69 20.8686 164.69 21.0105 164.619 21.0341C164.548 21.0341 164.548 20.8686 164.619 20.8686ZM168.238 23.9198C168.309 23.9198 168.333 24.0617 168.262 24.0617C168.191 24.0853 168.167 23.9434 168.238 23.9198ZM146.62 8.28531C146.62 8.21435 146.62 8.14339 146.525 8.16705C146.525 8.21435 146.501 8.238 146.501 8.26166C146.525 8.28531 146.549 8.30896 146.62 8.28531ZM165.234 19.8278L165.187 19.7332C165.116 19.7332 165.069 19.7569 165.092 19.8278C165.14 19.8515 165.163 19.8515 165.234 19.8278ZM168.806 25.0788V25.1497L168.688 25.268L168.617 25.2443L168.806 25.0788ZM158.399 21.862C158.351 21.862 158.328 21.6964 158.375 21.6964C158.446 21.6964 158.47 21.862 158.399 21.862ZM165.305 25.5518C165.376 25.5518 165.376 25.7174 165.305 25.7174C165.258 25.7174 165.258 25.5518 165.305 25.5518ZM162.964 4.90297C163.035 4.87931 163.035 4.99758 162.964 5.02123C162.869 5.02123 162.869 4.90297 162.964 4.90297ZM166.37 0.952958C166.417 0.952958 166.393 0.787388 166.346 0.787388C166.275 0.811041 166.299 0.952958 166.37 0.952958ZM166.985 27.3494C166.89 27.3494 166.89 27.2312 166.985 27.2312C167.056 27.2075 167.056 27.3258 166.985 27.3494ZM165.211 2.79787C165.305 2.79787 165.282 2.6323 165.187 2.6323C165.163 2.6323 165.187 2.79787 165.211 2.79787ZM167.458 23.1629C167.505 23.1629 167.529 23.3285 167.481 23.3285C167.41 23.3285 167.387 23.1629 167.458 23.1629ZM167.245 0.905652C167.292 0.905652 167.268 0.740083 167.221 0.740083C167.15 0.740083 167.174 0.905652 167.245 0.905652ZM165.991 3.46015H166.038C166.109 3.46015 166.18 3.27093 166.18 3.24727C166.038 3.27093 166.109 3.4365 165.991 3.46015ZM165.755 5.94369C165.849 5.94369 165.849 5.84908 165.778 5.82542H165.755C165.684 5.82542 165.684 5.94369 165.755 5.94369ZM161.403 16.4219C161.497 16.4219 161.497 16.3036 161.403 16.3036C161.332 16.3036 161.332 16.4219 161.403 16.4219ZM166.772 24.3928C166.866 24.3928 166.866 24.5111 166.772 24.5111C166.701 24.5111 166.701 24.3928 166.772 24.3928ZM167.292 24.8186C167.221 24.8186 167.221 24.6767 167.292 24.6767C167.363 24.6767 167.363 24.8186 167.292 24.8186ZM164.004 23.8725C163.933 23.8725 163.933 23.7542 164.004 23.7542C164.099 23.7542 164.099 23.8725 164.004 23.8725ZM165.66 4.12243C165.589 4.12243 165.589 4.24069 165.66 4.24069C165.755 4.24069 165.755 4.12243 165.66 4.12243ZM158.304 22.1931C158.233 22.2168 158.233 22.3587 158.304 22.335C158.375 22.335 158.375 22.1931 158.304 22.1931ZM160.22 6.74788C160.125 6.74788 160.102 6.62962 160.196 6.62962C160.267 6.62962 160.291 6.74788 160.22 6.74788ZM162.987 5.37602C163.058 5.37602 163.058 5.49428 162.987 5.49428C162.893 5.51794 162.893 5.39967 162.987 5.37602ZM165.069 2.11194C165.14 2.11194 165.14 1.99368 165.069 1.99368C164.974 2.01733 164.974 2.1356 165.069 2.11194ZM166.724 23.3048C166.653 23.3048 166.63 23.1865 166.701 23.1865C166.795 23.1865 166.819 23.3048 166.724 23.3048ZM166.819 0.432597C166.866 0.432597 166.866 0.267029 166.819 0.267029C166.748 0.267029 166.748 0.432597 166.819 0.432597ZM163.271 18.2904C163.2 18.2904 163.2 18.456 163.271 18.456C163.318 18.456 163.318 18.2904 163.271 18.2904ZM164.738 21.3889C164.667 21.4126 164.667 21.247 164.738 21.2234C164.785 21.2234 164.785 21.3889 164.738 21.3889ZM158.872 6.18021H158.801C158.801 6.18021 158.706 6.32213 158.706 6.34578L158.777 6.32213C158.824 6.25117 158.872 6.20387 158.872 6.18021ZM166.512 2.75057C166.488 2.72691 166.464 2.67961 166.464 2.65595L166.393 2.72691V2.75057L166.512 2.84518V2.75057ZM168.782 27.2548C168.782 27.1839 168.9 27.2075 168.9 27.2785C168.877 27.3494 168.759 27.3494 168.782 27.2548ZM163.342 12.6374C163.318 12.7084 163.413 12.803 163.46 12.732C163.484 12.6611 163.389 12.6138 163.342 12.6374ZM165.021 3.01075C165.116 2.98709 165.116 2.82152 165.021 2.84518C164.998 2.84518 164.998 3.01075 165.021 3.01075ZM166.795 26.2377C166.701 26.2377 166.677 26.1668 166.772 26.1668C166.795 26.1668 166.795 26.2377 166.795 26.2377C166.866 26.2377 166.89 26.356 166.819 26.356C166.795 26.356 166.795 26.2377 166.795 26.2377ZM164.619 19.4731C164.643 19.5677 164.69 19.544 164.761 19.5204C164.761 19.4258 164.643 19.4258 164.619 19.4731ZM150.782 6.60596C150.759 6.58231 150.711 6.58231 150.664 6.60596V6.70057C150.735 6.70057 150.806 6.67692 150.782 6.60596ZM161.213 23.8015C161.19 23.7779 161.142 23.7542 161.119 23.7542C161.119 23.8015 161.142 23.8252 161.166 23.8488C161.19 23.8725 161.19 23.8961 161.237 23.8961C161.237 23.8961 161.261 23.9198 161.284 23.9198L161.237 23.8488C161.237 23.8252 161.237 23.8015 161.213 23.8015ZM165.802 26.3087C165.802 26.2614 165.826 26.2141 165.849 26.2141C165.897 26.2141 165.92 26.3324 165.873 26.3797L165.802 26.3087ZM145.744 26.0722C145.697 26.0722 145.721 25.9539 145.65 25.9776C145.555 26.0485 145.697 26.1668 145.744 26.0722ZM167.008 26.7818C166.914 26.8054 166.89 26.6635 166.985 26.6398C167.008 26.6398 167.032 26.7818 167.008 26.7818ZM158.28 21.2707C158.351 21.2707 158.375 21.3889 158.304 21.3889C158.233 21.4126 158.209 21.2943 158.28 21.2707ZM164.004 4.90297C163.933 4.90297 163.91 4.76105 163.981 4.76105C164.028 4.76105 164.052 4.90297 164.004 4.90297ZM159.723 22.9264C159.676 22.9264 159.7 23.0683 159.747 23.0683C159.818 23.0683 159.794 22.9264 159.723 22.9264ZM165.944 5.61255H165.92L165.873 5.80177C165.944 5.73081 166.015 5.61255 166.015 5.5889C165.991 5.5889 165.967 5.61255 165.944 5.61255ZM166.748 4.38261C166.795 4.38261 166.772 4.24069 166.724 4.24069C166.653 4.24069 166.677 4.38261 166.748 4.38261ZM163.484 4.40626C163.508 4.40626 163.531 4.54818 163.508 4.54818C163.413 4.54818 163.389 4.40626 163.484 4.40626ZM163.011 4.42991C163.106 4.42991 163.129 4.57183 163.035 4.57183C163.011 4.57183 162.987 4.42991 163.011 4.42991ZM166.038 1.87541C166.109 1.87541 166.086 1.75715 166.015 1.75715C165.944 1.75715 165.967 1.87541 166.038 1.87541ZM165.849 21.862C165.92 21.862 165.944 21.9802 165.873 21.9802C165.802 21.9802 165.778 21.862 165.849 21.862ZM163.744 5.16315C163.673 5.16315 163.673 5.04488 163.744 5.04488C163.815 5.04488 163.815 5.16315 163.744 5.16315ZM165.045 7.05537C165.116 7.05537 165.092 6.9371 165.021 6.9371C164.95 6.9371 164.974 7.05537 165.045 7.05537ZM164.927 5.09219C164.856 5.09219 164.856 4.97393 164.927 4.97393C164.998 4.97393 164.998 5.09219 164.927 5.09219ZM164.903 4.40626C164.974 4.40626 164.974 4.52452 164.903 4.52452C164.832 4.52452 164.832 4.40626 164.903 4.40626ZM164.572 20.159C164.643 20.159 164.643 20.0407 164.572 20.0407C164.501 20.0407 164.501 20.159 164.572 20.159ZM163.91 4.45356C163.839 4.45356 163.815 4.3353 163.886 4.3353C163.957 4.3353 163.981 4.45356 163.91 4.45356ZM169.941 28.5557C169.941 28.4848 170.059 28.4848 170.059 28.5557C170.059 28.6267 169.941 28.6267 169.941 28.5557ZM159.912 6.77153C159.841 6.77153 159.818 6.65327 159.889 6.65327C159.96 6.65327 159.983 6.77153 159.912 6.77153ZM166.251 2.56135C166.322 2.56135 166.322 2.44308 166.251 2.44308C166.18 2.44308 166.18 2.56135 166.251 2.56135ZM159.416 6.74788C159.487 6.74788 159.487 6.86614 159.416 6.86614C159.345 6.86614 159.345 6.74788 159.416 6.74788ZM160.74 23.8252C160.811 23.8252 160.811 23.7069 160.74 23.7069C160.669 23.7069 160.669 23.8252 160.74 23.8252ZM165.684 22.1695C165.755 22.1695 165.755 22.2877 165.684 22.2877C165.613 22.2877 165.613 22.1695 165.684 22.1695ZM164.052 1.80446C164.123 1.80446 164.123 1.68619 164.052 1.68619C163.981 1.68619 163.981 1.80446 164.052 1.80446ZM165.873 22.3587C165.944 22.3587 165.967 22.477 165.897 22.477C165.826 22.477 165.802 22.3587 165.873 22.3587ZM165.4 25.0315C165.329 25.0315 165.305 24.9132 165.376 24.9132C165.447 24.9132 165.471 25.0315 165.4 25.0315ZM167.339 3.95686C167.41 3.95686 167.387 3.83859 167.316 3.83859C167.245 3.83859 167.268 3.95686 167.339 3.95686ZM164.004 5.21045C163.933 5.21045 163.933 5.06854 164.004 5.06854C164.052 5.06854 164.052 5.21045 164.004 5.21045ZM164.809 5.16315C164.738 5.16315 164.738 5.02123 164.809 5.02123C164.856 5.02123 164.856 5.16315 164.809 5.16315ZM166.937 1.59158C167.008 1.59158 167.008 1.44966 166.937 1.44966C166.89 1.44966 166.89 1.59158 166.937 1.59158ZM163.508 2.27751C163.579 2.27751 163.579 2.1356 163.508 2.1356C163.46 2.1356 163.46 2.27751 163.508 2.27751ZM165.282 21.8147C165.353 21.8147 165.353 21.9566 165.282 21.9566C165.234 21.9566 165.234 21.8147 165.282 21.8147ZM168.049 24.7713C167.978 24.7713 167.978 24.6294 168.049 24.6294C168.096 24.6294 168.096 24.7713 168.049 24.7713ZM163.791 23.5413C163.839 23.5413 163.839 23.6832 163.791 23.6832C163.72 23.6832 163.72 23.5413 163.791 23.5413ZM167.576 25.2916C167.505 25.2916 167.505 25.1497 167.576 25.1497C167.623 25.1497 167.623 25.2916 167.576 25.2916ZM163.791 2.41943C163.862 2.41943 163.862 2.30116 163.791 2.30116C163.72 2.32482 163.72 2.44308 163.791 2.41943ZM163.91 8.00148C163.839 8.00148 163.839 7.88321 163.91 7.88321C163.981 7.85956 163.981 7.97782 163.91 8.00148ZM163.815 6.44039C163.744 6.44039 163.744 6.32213 163.815 6.32213C163.886 6.29848 163.886 6.41674 163.815 6.44039ZM164.714 4.40626C164.785 4.40626 164.785 4.52452 164.714 4.52452C164.643 4.54818 164.643 4.42991 164.714 4.40626ZM166.819 3.60207C166.89 3.60207 166.89 3.4838 166.819 3.4838C166.748 3.50745 166.748 3.62572 166.819 3.60207ZM165.069 20.0644C165.14 20.0407 165.14 19.9225 165.069 19.9461C164.998 19.9461 164.998 20.0644 165.069 20.0644ZM166.748 2.46673C166.819 2.44308 166.819 2.32482 166.748 2.34847C166.677 2.34847 166.677 2.46673 166.748 2.46673ZM162.491 18.1012C162.42 18.1249 162.42 18.0066 162.491 17.9829C162.561 17.9829 162.561 18.1012 162.491 18.1012ZM167.41 27.0183C167.339 27.0183 167.339 26.9 167.41 26.9C167.481 26.8764 167.481 26.9946 167.41 27.0183ZM165.518 17.9829C165.494 17.9593 165.494 17.9356 165.494 17.912C165.423 17.9356 165.353 17.9356 165.4 18.0066C165.423 18.0302 165.494 18.0302 165.518 17.9829ZM166.724 26.971C166.819 26.971 166.819 27.0892 166.748 27.1129H166.724C166.701 27.0656 166.701 26.971 166.724 26.971ZM144.443 26.2377C144.396 26.2614 144.396 26.285 144.396 26.3324C144.396 26.356 144.42 26.3797 144.467 26.356C144.491 26.3324 144.491 26.285 144.491 26.2377C144.467 26.2377 144.443 26.2614 144.443 26.2377ZM163.697 19.0946C163.697 19.1183 163.697 19.1183 163.673 19.1419C163.673 19.1183 163.65 19.1183 163.626 19.1183V19.071C163.579 19.0237 163.555 19 163.531 19L163.579 18.9527L163.697 19.0946ZM164.241 5.21045L164.312 5.11584H164.359L164.43 5.1868L164.241 5.21045ZM165.66 3.98051C165.755 3.98051 165.755 3.9332 165.755 3.86224C165.66 3.86224 165.636 3.90955 165.66 3.98051ZM168.924 23.6596C168.995 23.6596 168.971 23.565 168.9 23.565C168.806 23.565 168.829 23.6596 168.924 23.6596ZM169.113 23.8725C169.019 23.8961 169.019 24.038 169.113 24.0144C169.137 24.0144 169.137 23.8725 169.113 23.8725ZM163.176 2.30116C163.2 2.30116 163.2 2.15925 163.176 2.15925C163.082 2.15925 163.082 2.30116 163.176 2.30116ZM165.826 3.74398C165.92 3.74398 165.92 3.64937 165.826 3.64937C165.755 3.64937 165.755 3.74398 165.826 3.74398ZM147.424 27.5859C147.305 27.6096 147.4 27.7515 147.447 27.7515C147.471 27.7042 147.424 27.6569 147.424 27.5859ZM166.63 23.021C166.701 23.021 166.701 23.1865 166.63 23.1865C166.606 23.1865 166.606 23.021 166.63 23.021ZM163.106 4.26434C163.129 4.26434 163.129 4.38261 163.106 4.38261C163.011 4.38261 163.011 4.26434 163.106 4.26434ZM158.186 7.85956C158.209 7.85956 158.209 7.7413 158.186 7.7413C158.091 7.7413 158.091 7.85956 158.186 7.85956ZM160.693 5.32872C160.717 5.32872 160.717 5.21045 160.693 5.21045C160.598 5.21045 160.598 5.32872 160.693 5.32872ZM165.802 1.7808C165.826 1.7808 165.826 1.66254 165.802 1.66254C165.707 1.66254 165.707 1.7808 165.802 1.7808ZM150.901 8.6401C150.972 8.6401 151.043 8.6401 151.019 8.56914C150.995 8.54549 150.924 8.54549 150.901 8.56914V8.6401ZM168.853 24.724L168.877 24.8422H168.782C168.782 24.7713 168.782 24.724 168.853 24.724ZM166.488 2.34847C166.441 2.34847 166.441 2.46673 166.488 2.46673C166.559 2.46673 166.559 2.34847 166.488 2.34847ZM168.356 23.8725C168.427 23.8725 168.427 23.9907 168.356 23.9907C168.309 23.9907 168.309 23.8725 168.356 23.8725ZM167.552 21.7674C167.505 21.7674 167.505 21.8856 167.552 21.8856C167.623 21.8856 167.623 21.7674 167.552 21.7674ZM164.95 21.5308C164.903 21.5308 164.903 21.4126 164.95 21.4126C165.021 21.4126 165.021 21.5308 164.95 21.5308ZM165.471 21.6964C165.423 21.6964 165.423 21.5782 165.471 21.5782C165.542 21.5782 165.542 21.6964 165.471 21.6964ZM163.957 6.79519C164.028 6.79519 164.028 6.91345 163.957 6.91345C163.91 6.91345 163.91 6.79519 163.957 6.79519ZM163.65 4.47722C163.72 4.47722 163.72 4.59548 163.65 4.59548C163.602 4.59548 163.602 4.47722 163.65 4.47722ZM163.91 2.49039C163.981 2.49039 163.981 2.37212 163.91 2.37212C163.862 2.37212 163.862 2.49039 163.91 2.49039ZM164.998 4.09877C164.95 4.09877 164.95 3.98051 164.998 3.98051C165.069 3.98051 165.069 4.09877 164.998 4.09877ZM165.187 20.2299C165.258 20.2299 165.258 20.1117 165.187 20.1117C165.14 20.1117 165.14 20.2299 165.187 20.2299ZM167.458 22.1458C167.41 22.1458 167.41 22.2641 167.458 22.2641C167.529 22.2641 167.529 22.1458 167.458 22.1458ZM166.062 3.72033C166.015 3.72033 166.015 3.83859 166.062 3.83859C166.133 3.83859 166.133 3.72033 166.062 3.72033ZM157.642 8.26166C157.713 8.26166 157.713 8.14339 157.642 8.14339C157.594 8.14339 157.594 8.26166 157.642 8.26166ZM160.551 6.20387L160.575 6.29848H160.48L160.456 6.20387H160.551ZM165.66 5.73081C165.684 5.73081 165.66 5.61255 165.636 5.61255C165.542 5.6362 165.565 5.75447 165.66 5.73081ZM158.186 21.5072C158.138 21.5072 158.138 21.3889 158.186 21.3889C158.257 21.3889 158.257 21.5072 158.186 21.5072ZM166.464 2.04098C166.535 2.04098 166.535 1.92272 166.464 1.92272C166.417 1.92272 166.417 2.04098 166.464 2.04098ZM168.096 24.5111C168.167 24.5111 168.167 24.6294 168.096 24.6294C168.049 24.6294 168.049 24.5111 168.096 24.5111ZM164.004 2.1829C164.075 2.1829 164.075 2.06464 164.004 2.06464C163.957 2.06464 163.957 2.1829 164.004 2.1829ZM166.086 4.26434C166.038 4.26434 166.038 4.14608 166.086 4.14608C166.157 4.14608 166.157 4.26434 166.086 4.26434ZM166.038 26.285C166.109 26.285 166.109 26.4033 166.038 26.4033C165.991 26.4033 165.991 26.285 166.038 26.285ZM166.109 4.52452C166.062 4.52452 166.062 4.64279 166.109 4.64279C166.18 4.64279 166.18 4.52452 166.109 4.52452ZM167.221 24.6767C167.174 24.6767 167.174 24.5584 167.221 24.5584C167.292 24.5584 167.292 24.6767 167.221 24.6767ZM162.159 4.12243C162.23 4.12243 162.23 4.24069 162.159 4.24069C162.112 4.24069 162.112 4.12243 162.159 4.12243ZM165.471 2.41943C165.494 2.39578 165.494 2.27751 165.471 2.30116C165.376 2.30116 165.376 2.41943 165.471 2.41943ZM168.144 25.6937C168.096 25.6937 168.096 25.5755 168.144 25.5755C168.215 25.5755 168.215 25.6937 168.144 25.6937ZM168.12 25.0078C168.191 25.0078 168.191 25.1261 168.12 25.1261C168.073 25.1261 168.073 25.0078 168.12 25.0078ZM168.073 24.3219C168.144 24.3219 168.144 24.4401 168.073 24.4401C168.025 24.4401 168.025 24.3219 168.073 24.3219ZM163.46 4.12243C163.437 4.12243 163.413 3.98051 163.437 3.98051C163.508 3.98051 163.531 4.12243 163.46 4.12243ZM168.12 22.8554C168.191 22.8317 168.167 22.7135 168.096 22.7371C168.049 22.7371 168.073 22.8554 168.12 22.8554ZM164.69 20.2536C164.761 20.2536 164.761 20.1353 164.69 20.1353C164.643 20.159 164.643 20.2773 164.69 20.2536ZM159.108 5.92003C159.179 5.89638 159.156 5.77812 159.085 5.80177C159.037 5.80177 159.061 5.92003 159.108 5.92003ZM166.346 2.15925C166.417 2.15925 166.417 2.04098 166.346 2.04098C166.299 2.06464 166.299 2.1829 166.346 2.15925ZM167.41 24.5347C167.481 24.5347 167.481 24.653 167.41 24.653C167.363 24.6767 167.363 24.5584 167.41 24.5347ZM166.559 26.9946C166.535 26.9946 166.535 26.8764 166.559 26.8764C166.653 26.8527 166.677 26.971 166.559 26.9946ZM165.991 22.3587C165.944 22.3587 165.944 22.2404 165.991 22.2404C166.062 22.2168 166.062 22.335 165.991 22.3587ZM164.643 6.8898C164.714 6.8898 164.738 7.00806 164.667 7.00806C164.619 7.00806 164.596 6.91345 164.643 6.8898ZM165.069 21.3416C165.021 21.3416 165.021 21.2234 165.069 21.2234C165.14 21.1997 165.14 21.318 165.069 21.3416ZM162.159 5.30506C162.207 5.30506 162.23 5.42333 162.183 5.42333C162.112 5.44698 162.088 5.32872 162.159 5.30506ZM146.667 25.2207H146.738C146.738 25.2207 146.761 25.2207 146.761 25.197C146.714 25.2443 146.667 25.2916 146.643 25.3389C146.62 25.3389 146.596 25.3389 146.596 25.3153L146.667 25.2207ZM168.617 25.0551C168.688 25.0315 168.688 25.1497 168.617 25.1734C168.569 25.1734 168.569 25.0551 168.617 25.0551ZM166.393 2.65595C166.464 2.65595 166.441 2.53769 166.37 2.53769C166.322 2.56134 166.346 2.65595 166.393 2.65595ZM160.929 23.8252C160.977 23.8252 160.953 23.7069 160.906 23.7069C160.835 23.7306 160.858 23.8488 160.929 23.8252ZM167.836 23.5177C167.907 23.5177 167.931 23.6359 167.86 23.6359C167.812 23.6359 167.789 23.5177 167.836 23.5177ZM164.028 2.37212C164.099 2.37212 164.075 2.25386 164.004 2.25386C163.957 2.25386 163.981 2.37212 164.028 2.37212ZM159.487 5.89638C159.558 5.89638 159.534 5.77812 159.463 5.77812C159.416 5.77812 159.439 5.89638 159.487 5.89638ZM164.95 3.12901C165.021 3.12901 164.998 3.01075 164.927 3.01075C164.879 3.01075 164.903 3.12901 164.95 3.12901ZM165.92 1.00026C165.991 1.00026 165.967 0.881999 165.897 0.881999C165.849 0.881999 165.873 1.00026 165.92 1.00026ZM167.103 25.3153C167.126 25.3153 167.15 25.4335 167.126 25.4335C167.032 25.4335 167.008 25.3153 167.103 25.3153ZM166.038 5.47063C166.038 5.44698 166.015 5.39967 166.015 5.39967C165.92 5.42333 165.92 5.51794 165.991 5.51794H166.015C166.038 5.51794 166.038 5.49428 166.038 5.47063ZM168.262 22.2877C168.215 22.2877 168.238 22.406 168.285 22.406C168.356 22.406 168.333 22.2877 168.262 22.2877ZM166.937 27.1602C166.843 27.1602 166.819 27.0419 166.914 27.0419C166.937 27.0419 166.961 27.1602 166.937 27.1602ZM165.731 18.7871L165.684 18.7162C165.613 18.7398 165.613 18.7871 165.636 18.8344C165.684 18.8344 165.707 18.8108 165.731 18.7871ZM165.731 25.3862C165.778 25.3862 165.802 25.5045 165.755 25.5045C165.684 25.5045 165.66 25.4099 165.731 25.3862ZM158.517 6.72423C158.541 6.72423 158.517 6.60596 158.493 6.60596C158.399 6.60596 158.422 6.72423 158.517 6.72423ZM165.4 21.318C165.329 21.318 165.329 21.1997 165.4 21.1997C165.447 21.1997 165.447 21.318 165.4 21.318ZM163.579 4.16973C163.626 4.16973 163.626 4.28799 163.579 4.28799C163.508 4.28799 163.508 4.16973 163.579 4.16973ZM164.974 4.71374C164.903 4.71374 164.903 4.59548 164.974 4.59548C165.021 4.59548 165.021 4.71374 164.974 4.71374ZM168.285 23.2811C168.215 23.2811 168.215 23.3994 168.285 23.3994C168.333 23.3994 168.333 23.2811 168.285 23.2811ZM164.903 3.41284C164.95 3.41284 164.95 3.53111 164.903 3.53111C164.832 3.53111 164.832 3.41284 164.903 3.41284ZM164.501 4.92662C164.548 4.92662 164.548 5.04488 164.501 5.04488C164.43 5.04488 164.43 4.92662 164.501 4.92662ZM165.944 22.0985C165.873 22.0985 165.873 21.9802 165.944 21.9802C165.991 21.9802 165.991 22.0985 165.944 22.0985ZM167.221 22.0276C167.268 22.0276 167.245 21.9093 167.197 21.9093C167.126 21.9093 167.15 22.0276 167.221 22.0276ZM146.998 14.1512C146.927 14.1512 146.927 14.0329 146.998 14.0329C147.045 14.0329 147.045 14.1512 146.998 14.1512ZM166.204 3.64937C166.133 3.64937 166.133 3.76764 166.204 3.76764C166.251 3.76764 166.251 3.64937 166.204 3.64937ZM159.226 5.77812C159.274 5.77812 159.274 5.65985 159.226 5.65985C159.156 5.65985 159.156 5.77812 159.226 5.77812ZM168.593 25.5518C168.64 25.5518 168.64 25.6701 168.593 25.6701C168.522 25.6701 168.522 25.5518 168.593 25.5518ZM167.552 22.6898C167.6 22.6898 167.6 22.5716 167.552 22.5716C167.481 22.5716 167.481 22.6898 167.552 22.6898ZM162.987 25.6701C162.916 25.6701 162.916 25.7883 162.987 25.7883C163.035 25.7883 163.035 25.6701 162.987 25.6701ZM166.109 5.5889C166.038 5.5889 166.062 5.70716 166.133 5.70716C166.18 5.70716 166.157 5.5889 166.109 5.5889ZM166.086 5.09219C166.015 5.09219 166.015 5.21045 166.086 5.21045C166.133 5.21045 166.133 5.09219 166.086 5.09219ZM165.116 25.3626C165.163 25.3626 165.187 25.4809 165.14 25.4809C165.069 25.4809 165.045 25.3626 165.116 25.3626ZM166.606 1.97003C166.653 1.97003 166.653 1.85176 166.606 1.85176C166.535 1.85176 166.535 1.97003 166.606 1.97003ZM161.994 4.3353C162.041 4.3353 162.041 4.45356 161.994 4.45356C161.923 4.45356 161.923 4.3353 161.994 4.3353ZM167.694 25.3389C167.623 25.3389 167.623 25.2207 167.694 25.2207C167.741 25.2207 167.741 25.3389 167.694 25.3389ZM167.67 24.9132C167.6 24.9132 167.6 24.7949 167.67 24.7949C167.718 24.7949 167.718 24.9132 167.67 24.9132ZM167.907 25.3862C167.836 25.3862 167.812 25.268 167.883 25.268C167.931 25.268 167.954 25.3862 167.907 25.3862ZM165.589 22.5006C165.636 22.477 165.636 22.5952 165.589 22.6189C165.518 22.6189 165.518 22.5006 165.589 22.5006ZM164.667 20.4665C164.714 20.4428 164.714 20.5611 164.667 20.5847C164.596 20.5847 164.596 20.4665 164.667 20.4665ZM163.035 4.76105C163.129 4.76105 163.153 4.87931 163.058 4.87931C163.035 4.87931 163.011 4.76105 163.035 4.76105ZM165.636 24.9841C165.636 25.0315 165.636 25.0788 165.613 25.0788C165.542 25.0788 165.518 24.9605 165.589 24.9605C165.613 24.9605 165.613 24.9841 165.636 24.9841ZM163.508 19.1183L163.389 19.0473C163.437 19.0473 163.46 19.0237 163.484 19L163.508 19.0473L163.579 19.1183H163.508ZM160.882 16.209C160.977 16.209 160.977 16.3272 160.882 16.3272C160.859 16.3272 160.859 16.209 160.882 16.209ZM165.282 4.14608C165.258 4.14608 165.258 4.26434 165.282 4.26434C165.376 4.26434 165.376 4.14608 165.282 4.14608ZM166.322 23.1392C166.299 23.1392 166.299 23.021 166.322 23.021C166.417 23.021 166.417 23.1392 166.322 23.1392ZM168.711 25.5282C168.688 25.5282 168.688 25.4099 168.711 25.4099C168.806 25.4099 168.806 25.5282 168.711 25.5282ZM160.22 5.54159C160.22 5.61255 160.149 5.65985 160.054 5.73081C160.054 5.65985 160.149 5.61255 160.22 5.54159ZM161.071 23.8961C161.048 23.8961 161.048 24.0144 161.071 24.0144C161.166 24.0144 161.166 23.8961 161.071 23.8961ZM166.512 23.1156C166.488 23.1156 166.488 22.9973 166.512 22.9973C166.606 22.9973 166.606 23.1156 166.512 23.1156ZM159.629 7.26824C159.558 7.29189 159.558 7.17363 159.629 7.14998C159.676 7.14998 159.676 7.26824 159.629 7.26824ZM168.617 23.3994C168.711 23.3758 168.711 23.2575 168.617 23.2811C168.593 23.2811 168.593 23.3994 168.617 23.3994ZM163.413 18.1958C163.366 18.1958 163.366 18.2904 163.413 18.2904C163.531 18.2904 163.484 18.1958 163.413 18.1958ZM165.542 5.25776C165.636 5.2341 165.636 5.35237 165.542 5.37602C165.518 5.37602 165.518 5.25776 165.542 5.25776ZM167.056 23.6596C167.032 23.565 167.15 23.565 167.174 23.6596C167.174 23.6832 167.056 23.6832 167.056 23.6596ZM168.427 23.7779C168.498 23.7779 168.498 23.6832 168.427 23.6832C168.356 23.6832 168.356 23.7779 168.427 23.7779ZM168.025 25.5991C167.954 25.5991 167.954 25.5045 168.025 25.5045C168.096 25.5045 168.096 25.5991 168.025 25.5991ZM165.755 2.46673C165.849 2.46673 165.849 2.46673 165.849 2.39578C165.849 2.32482 165.684 2.46673 165.755 2.46673ZM168.995 27.3731C168.995 27.3967 168.877 27.3731 168.877 27.3494C168.9 27.2785 169.019 27.2785 168.995 27.3731ZM158.895 6.39309C158.966 6.39309 158.966 6.29848 158.895 6.29848C158.824 6.29848 158.824 6.39309 158.895 6.39309ZM167.552 23.6596L167.647 23.5413V23.6359L167.552 23.7306V23.6596ZM166.843 22.1222C166.843 22.0512 166.748 22.0512 166.748 22.1222C166.748 22.1931 166.843 22.1931 166.843 22.1222ZM166.653 0.669125C166.724 0.645472 166.724 0.550861 166.653 0.574513C166.582 0.574513 166.582 0.669125 166.653 0.669125ZM166.417 21.9093C166.441 21.8856 166.441 21.7437 166.417 21.7674C166.346 21.7674 166.346 21.9093 166.417 21.9093ZM167.789 22.477V22.5479L167.86 22.6189H167.931L167.789 22.477ZM166.038 22.8554V22.9264H165.92C165.92 22.8554 165.991 22.8554 166.038 22.8554ZM163.129 18.4796L163.2 18.5743H163.271C163.271 18.5506 163.224 18.5033 163.2 18.4796H163.129ZM163.579 23.3994C163.508 23.3994 163.484 23.2811 163.555 23.2811C163.579 23.2811 163.602 23.3994 163.579 23.3994ZM166.582 24.8422C166.606 24.8422 166.63 24.9605 166.606 24.9605C166.535 24.9605 166.512 24.8422 166.582 24.8422ZM165.636 25.8356C165.684 25.812 165.707 25.9066 165.66 25.9303C165.589 25.9303 165.565 25.8356 165.636 25.8356ZM168.806 23.9671C168.735 23.9671 168.759 24.0853 168.829 24.0853C168.853 24.0853 168.829 23.9671 168.806 23.9671ZM165.423 3.95686C165.353 3.95686 165.376 4.07512 165.447 4.07512C165.471 4.07512 165.447 3.95686 165.423 3.95686ZM165.329 1.85176C165.353 1.85176 165.329 1.7335 165.305 1.7335C165.234 1.7335 165.258 1.85176 165.329 1.85176ZM161.142 5.80177C161.119 5.80177 161.095 5.68351 161.119 5.68351C161.19 5.68351 161.213 5.80177 161.142 5.80177ZM164.95 2.20655C164.879 2.20655 164.903 2.32482 164.974 2.32482C164.998 2.32482 164.974 2.20655 164.95 2.20655ZM165.447 5.37602C165.518 5.37602 165.518 5.44698 165.447 5.44698C165.353 5.44698 165.353 5.37602 165.447 5.37602ZM165.211 3.17632C165.234 3.17632 165.234 3.29458 165.211 3.29458C165.14 3.29458 165.14 3.17632 165.211 3.17632ZM146.785 25.0788C146.785 25.0551 146.809 25.0551 146.832 25.0315C146.856 25.0315 146.856 25.0551 146.88 25.0551L146.761 25.197C146.785 25.1734 146.785 25.1024 146.785 25.0788ZM158.375 21.5782C158.375 21.5072 158.446 21.5072 158.446 21.5782C158.446 21.6728 158.375 21.6728 158.375 21.5782ZM164.998 21.1287C165.045 21.1287 165.069 21.2234 165.021 21.2234C164.95 21.2234 164.927 21.1287 164.998 21.1287ZM166.251 22.2168C166.275 22.2168 166.275 22.335 166.251 22.335C166.18 22.335 166.18 22.2168 166.251 22.2168ZM147.14 28.1773C147.069 28.1773 147.093 28.2719 147.116 28.2955C147.187 28.2955 147.164 28.1773 147.14 28.1773ZM165.14 3.50745C165.211 3.50745 165.234 3.57841 165.163 3.57841C165.069 3.60207 165.045 3.53111 165.14 3.50745ZM167.221 26.8291C167.197 26.8291 167.197 26.7108 167.221 26.7108C167.292 26.7108 167.292 26.8291 167.221 26.8291ZM163.082 3.41284C163.153 3.41284 163.153 3.29458 163.082 3.29458C163.058 3.29458 163.058 3.41284 163.082 3.41284ZM166.062 5.89638C166.133 5.89638 166.133 5.77812 166.062 5.77812C166.038 5.77812 166.038 5.89638 166.062 5.89638ZM160.622 6.79519C160.598 6.79519 160.598 6.67692 160.622 6.67692C160.693 6.67692 160.693 6.79519 160.622 6.79519ZM165.967 4.21704C165.944 4.24069 165.944 4.12243 165.967 4.09877C166.038 4.09877 166.038 4.21704 165.967 4.21704ZM161.071 24.18C161.048 24.18 161.071 24.2746 161.095 24.2746C161.19 24.2746 161.166 24.18 161.071 24.18ZM144.183 27.8698C144.16 27.8934 144.183 27.9644 144.207 27.988L144.254 27.9407C144.254 27.8934 144.231 27.8698 144.183 27.8698ZM167.741 27.1129C167.694 27.1129 167.67 27.0419 167.694 26.9946L167.789 27.0656C167.765 27.0892 167.765 27.1129 167.741 27.1129ZM167.529 25.7174V25.7647C167.505 25.7647 167.481 25.741 167.458 25.741V25.7174C167.458 25.6228 167.529 25.6228 167.529 25.7174ZM161.119 5.80177C161.142 5.80177 161.142 5.89638 161.119 5.89638C161.024 5.89638 161.024 5.80177 161.119 5.80177ZM160.906 5.61255C160.929 5.61255 160.929 5.70716 160.906 5.70716C160.811 5.73081 160.811 5.6362 160.906 5.61255ZM165.826 1.59158C165.897 1.56793 165.897 1.44966 165.826 1.47332C165.802 1.47332 165.802 1.59158 165.826 1.59158ZM169.019 24.2746L169.042 24.3455L169.137 24.3219L169.019 24.2273V24.2746ZM165.897 23.8252C165.849 23.8252 165.849 23.7306 165.897 23.7306C165.967 23.7306 165.967 23.8252 165.897 23.8252ZM163.531 6.74788C163.531 6.70057 163.626 6.70057 163.626 6.74788C163.626 6.81884 163.531 6.81884 163.531 6.74788ZM160.409 23.565C160.338 23.565 160.338 23.6596 160.409 23.6596C160.456 23.6596 160.456 23.565 160.409 23.565ZM145.532 28.4848V28.5794C145.555 28.5794 145.579 28.5557 145.602 28.5557V28.4611C145.579 28.4848 145.555 28.4848 145.532 28.4848ZM163.082 18.385C163.129 18.385 163.129 18.2904 163.082 18.2904C163.011 18.2904 163.011 18.385 163.082 18.385ZM167.836 23.2338C167.836 23.3048 167.907 23.3048 167.907 23.2338C167.883 23.1392 167.812 23.1392 167.836 23.2338ZM161.544 16.5165C161.568 16.4928 161.568 16.3982 161.544 16.4219C161.45 16.4219 161.45 16.5165 161.544 16.5165ZM165.873 4.54818C165.802 4.54818 165.802 4.61913 165.873 4.61913C165.967 4.59548 165.967 4.52452 165.873 4.54818ZM163.886 4.14608L163.768 4.28799V4.24069C163.768 4.21704 163.791 4.19338 163.815 4.14608H163.886ZM166.819 23.494C166.819 23.5177 166.724 23.5177 166.724 23.494C166.724 23.3994 166.819 23.3994 166.819 23.494ZM163.46 3.57841C163.484 3.57841 163.484 3.67302 163.46 3.67302C163.366 3.67302 163.366 3.60207 163.46 3.57841ZM144.443 27.9644V27.8461C144.349 27.8698 144.349 27.988 144.443 27.9644ZM168.806 23.3758C168.782 23.3758 168.782 23.4704 168.806 23.4704C168.9 23.4704 168.9 23.3758 168.806 23.3758ZM158.328 21.4835C158.375 21.4835 158.375 21.5782 158.328 21.5782C158.257 21.6018 158.257 21.5072 158.328 21.4835ZM169.35 24.5111C169.326 24.4401 169.232 24.4401 169.255 24.5111C169.255 24.5584 169.35 24.5584 169.35 24.5111ZM166.89 24.3928L166.772 24.2746H166.866C166.866 24.2982 166.89 24.3219 166.89 24.3455V24.3928ZM161.166 24.0853L161.237 24.18V24.0853L161.166 24.0144V24.0853ZM144.704 29.4309C144.727 29.4545 144.798 29.4072 144.798 29.3599C144.751 29.3363 144.704 29.3599 144.704 29.4309ZM161.403 4.97393C161.403 5.04488 161.473 5.04488 161.473 4.97393C161.45 4.90297 161.379 4.90297 161.403 4.97393ZM164.312 1.47332C164.288 1.40236 164.217 1.40236 164.241 1.47332C164.241 1.54428 164.312 1.54428 164.312 1.47332ZM164.288 5.80177C164.359 5.80177 164.359 5.87273 164.288 5.87273C164.217 5.89638 164.217 5.82542 164.288 5.80177ZM166.157 2.06464L165.944 2.30116H165.991L166.157 2.06464ZM160.74 6.0856V6.01465C160.74 5.99099 160.811 5.92003 160.835 5.89638V5.92003L160.74 6.0856ZM158.801 6.77153C158.848 6.77153 158.824 6.70057 158.777 6.70057C158.706 6.72423 158.73 6.79519 158.801 6.77153ZM160.788 6.4877C160.788 6.58231 160.788 6.58231 160.764 6.58231C160.669 6.58231 160.788 6.41674 160.788 6.4877ZM167.008 23.494C167.008 23.565 166.914 23.565 166.914 23.494C166.914 23.4704 167.008 23.4704 167.008 23.494ZM165.045 3.69668C165.069 3.69668 165.069 3.79129 165.045 3.79129C164.974 3.79129 164.974 3.69668 165.045 3.69668ZM166.653 26.0485C166.582 26.0485 166.582 25.9776 166.63 25.9539L166.677 26.0012C166.677 26.0249 166.677 26.0485 166.653 26.0485ZM166.417 22.9027C166.417 22.8317 166.488 22.8081 166.488 22.8791C166.488 22.9264 166.417 22.95 166.417 22.9027ZM144.491 28.3665V28.4374C144.538 28.4374 144.562 28.3901 144.562 28.3428C144.538 28.3192 144.538 28.3428 144.491 28.3665ZM166.204 5.13949C166.275 5.13949 166.275 5.13949 166.275 5.09219C166.275 5.02123 166.133 5.13949 166.204 5.13949ZM165.991 1.30775C166.062 1.30775 166.062 1.30775 166.062 1.26044C166.062 1.18949 165.92 1.30775 165.991 1.30775ZM147.991 25.4335C148.039 25.4335 148.062 25.5045 148.015 25.5045C147.944 25.5045 147.92 25.4335 147.991 25.4335ZM166.937 26.2377C166.937 26.2614 166.961 26.285 166.985 26.3087V26.356C166.914 26.356 166.89 26.285 166.937 26.2377ZM169.042 24.724L169.161 24.7003C169.161 24.7476 169.066 24.7713 169.042 24.7713V24.724ZM162.845 25.5991C162.798 25.5991 162.798 25.6701 162.845 25.6701C162.916 25.6701 162.916 25.5991 162.845 25.5991ZM164.714 2.51404C164.714 2.56135 164.785 2.56135 164.785 2.51404C164.785 2.44308 164.714 2.44308 164.714 2.51404ZM167.292 23.565C167.292 23.494 167.339 23.4704 167.339 23.5413C167.363 23.6359 167.316 23.6596 167.292 23.565ZM167.008 25.5518C166.985 25.5282 166.961 25.5045 166.937 25.5045C166.937 25.4809 166.937 25.4572 166.961 25.4572C167.008 25.4335 167.032 25.5045 167.008 25.5518ZM161.095 5.06854C161.166 5.06854 161.166 5.06854 161.166 4.99758C161.142 4.92662 161.071 5.06854 161.095 5.06854ZM167.268 22.2877C167.221 22.2877 167.221 22.3587 167.268 22.3587C167.339 22.335 167.339 22.2641 167.268 22.2877ZM165.163 21.8147C165.163 21.7674 165.234 21.7674 165.234 21.8147C165.234 21.8856 165.163 21.8856 165.163 21.8147ZM163.602 4.7847C163.602 4.85566 163.531 4.85566 163.531 4.7847C163.531 4.7374 163.602 4.7374 163.602 4.7847ZM165.636 20.0171C165.565 20.0171 165.565 20.088 165.636 20.088C165.684 20.088 165.684 20.0171 165.636 20.0171ZM167.079 4.85566C167.126 4.85566 167.126 4.7847 167.079 4.7847C167.008 4.7847 167.008 4.85566 167.079 4.85566ZM164.809 20.9395L164.879 21.0105H164.809L164.738 20.9395H164.809ZM167.6 24.653H167.481C167.481 24.6057 167.552 24.6057 167.6 24.6057V24.653ZM169.09 25.4572C169.113 25.4335 169.113 25.5282 169.09 25.5518C169.019 25.5518 169.019 25.4572 169.09 25.4572ZM149.789 27.5623C149.742 27.6096 149.789 27.6569 149.813 27.6569C149.813 27.6333 149.836 27.6096 149.86 27.5859C149.813 27.5859 149.813 27.5386 149.789 27.5623ZM165.707 6.29848C165.707 6.32213 165.778 6.32213 165.778 6.29848C165.778 6.20387 165.707 6.20387 165.707 6.29848ZM167.883 22.95C167.883 23.0446 167.954 23.0446 167.954 22.95C167.954 22.9264 167.883 22.9264 167.883 22.95ZM166.772 1.52062C166.819 1.52062 166.819 1.44966 166.772 1.44966C166.701 1.47332 166.701 1.54428 166.772 1.52062ZM160.74 5.73081C160.717 5.73081 160.717 5.6362 160.74 5.6362C160.811 5.6362 160.811 5.73081 160.74 5.73081ZM160.291 6.51135C160.267 6.51135 160.267 6.44039 160.291 6.44039C160.385 6.44039 160.385 6.51135 160.291 6.51135ZM163.508 18.4323C163.508 18.3614 163.413 18.3614 163.413 18.4323C163.413 18.456 163.508 18.456 163.508 18.4323ZM166.677 23.6832C166.748 23.6832 166.748 23.7779 166.677 23.7779C166.653 23.7779 166.653 23.6832 166.677 23.6832ZM166.535 23.3048C166.559 23.3048 166.606 23.3521 166.63 23.3758H166.535L166.512 23.3048H166.535ZM166.677 3.22362C166.724 3.22362 166.724 3.22362 166.724 3.12901C166.724 3.10536 166.606 3.22362 166.677 3.22362ZM144.798 27.7752C144.727 27.7752 144.751 27.8461 144.775 27.8698C144.822 27.8698 144.822 27.7988 144.798 27.7752ZM166.062 2.77422C166.062 2.75057 165.967 2.86883 165.991 2.86883C166.062 2.86883 166.062 2.86883 166.062 2.77422ZM166.299 1.94637C166.346 1.92272 166.346 1.85176 166.299 1.87541C166.228 1.87541 166.228 1.94637 166.299 1.94637ZM166.228 23.2338L166.251 23.3285H166.157L166.228 23.2338ZM167.103 1.02392C167.103 0.952958 167.056 0.952958 167.056 1.02392C167.056 1.11853 167.103 1.11853 167.103 1.02392ZM146.951 28.7686C146.974 28.7686 146.974 28.7686 146.974 28.7922C146.974 28.7922 146.998 28.7922 147.022 28.7686C147.045 28.6976 146.951 28.674 146.951 28.7686ZM166.748 23.9671C166.843 23.9671 166.843 24.0144 166.748 24.0144C166.677 24.0144 166.677 23.9671 166.748 23.9671ZM161.663 24.2509C161.592 24.2509 161.592 24.2982 161.663 24.2982C161.757 24.2982 161.757 24.2509 161.663 24.2509ZM167.056 21.862C167.056 21.8383 167.032 21.8147 167.008 21.791H166.937L167.008 21.862H167.056ZM167.67 24.038C167.694 24.109 167.694 24.109 167.647 24.109C167.576 24.109 167.67 23.9671 167.67 24.038ZM144.917 27.5859C144.94 27.6569 144.917 27.6333 144.917 27.7042C144.988 27.6806 144.988 27.5623 144.917 27.5859ZM149.576 27.2075C149.529 27.2312 149.529 27.2548 149.529 27.3021C149.6 27.3021 149.6 27.2312 149.576 27.2075ZM163.933 6.20387C163.91 6.10926 163.981 6.10926 164.004 6.20387C164.004 6.22752 163.933 6.22752 163.933 6.20387ZM158.257 21.7201C158.257 21.6964 158.328 21.6728 158.328 21.6964C158.351 21.7674 158.28 21.791 158.257 21.7201ZM164.927 4.90297L164.903 4.7847H164.974L164.927 4.90297ZM167.765 24.2982H167.647L167.694 24.2273L167.765 24.2982ZM166.914 1.21314C166.985 1.21314 166.985 1.21314 166.985 1.14218C166.985 1.11853 166.866 1.21314 166.914 1.21314ZM164.123 4.07512L164.075 4.14608L164.004 4.07512H164.123ZM149.245 27.8225H149.34V27.7752C149.269 27.7752 149.245 27.7752 149.245 27.8225ZM169.397 24.0144L169.326 23.9434V24.0144L169.421 24.0617L169.397 24.0144ZM166.322 3.76764L166.251 3.90955L166.393 3.74398L166.322 3.76764ZM166.488 23.1865C166.488 23.2102 166.417 23.2338 166.417 23.2102C166.417 23.1392 166.488 23.1156 166.488 23.1865ZM162.017 12.7557C161.97 12.803 161.923 12.803 161.899 12.803L161.947 12.732C161.97 12.7557 161.994 12.7557 162.017 12.7557ZM162.538 4.21704C162.609 4.21704 162.609 4.21704 162.609 4.14608C162.609 4.09877 162.491 4.24069 162.538 4.21704ZM166.819 2.25386C166.866 2.25386 166.866 2.25386 166.866 2.20655C166.843 2.1356 166.748 2.27751 166.819 2.25386ZM160.504 6.86614L160.48 6.98441L160.409 7.00806L160.504 6.86614ZM164.359 2.65595C164.383 2.72691 164.43 2.72691 164.406 2.65595C164.406 2.585 164.359 2.585 164.359 2.65595ZM160.054 23.0446C160.031 22.9737 159.983 22.9973 160.007 23.0683C160.007 23.1156 160.054 23.0919 160.054 23.0446ZM162.325 3.86224C162.325 3.9332 162.325 3.9332 162.278 3.9332C162.207 3.9332 162.325 3.83859 162.325 3.86224ZM167.268 22.9737C167.268 22.9973 167.197 22.9973 167.197 22.9737C167.197 22.9027 167.268 22.9027 167.268 22.9737ZM159.368 5.96734C159.368 5.89638 159.297 5.89638 159.297 5.96734C159.297 5.99099 159.368 5.99099 159.368 5.96734ZM165.991 23.0446C165.991 23.0683 165.92 23.0683 165.92 23.0446C165.92 22.9737 165.991 22.9737 165.991 23.0446ZM164.241 2.84518C164.241 2.86883 164.312 2.86883 164.312 2.84518C164.312 2.77422 164.241 2.77422 164.241 2.84518ZM160.078 6.60596C160.078 6.62962 160.078 6.62962 160.007 6.62962C159.96 6.65327 160.078 6.51135 160.078 6.60596ZM144.988 26.0958C144.94 26.0958 144.917 26.1195 144.94 26.1668C145.011 26.1668 144.988 26.1195 144.988 26.0958ZM168.073 24.0853C168.144 24.0853 168.144 24.1326 168.073 24.1326C168.025 24.1326 168.025 24.0853 168.073 24.0853ZM166.228 26.4979C166.18 26.4979 166.18 26.4506 166.228 26.4506C166.299 26.4506 166.299 26.4979 166.228 26.4979ZM162.301 22.9264C162.301 22.9737 162.301 22.9973 162.372 23.021C162.301 23.0446 162.278 22.9737 162.23 22.95C162.23 22.95 162.254 22.95 162.301 22.9264ZM164.454 25.268C164.43 25.268 164.406 25.2443 164.383 25.2207C164.406 25.2207 164.43 25.197 164.454 25.197C164.477 25.197 164.477 25.268 164.454 25.268ZM167.883 25.0788C167.883 25.0078 167.931 25.0078 167.931 25.0788C167.931 25.1261 167.883 25.1261 167.883 25.0788ZM164.075 3.57841C164.075 3.64937 164.004 3.64937 164.004 3.57841C163.981 3.55476 164.052 3.55476 164.075 3.57841ZM164.572 5.42333C164.572 5.49428 164.525 5.49428 164.525 5.42333C164.525 5.37602 164.572 5.37602 164.572 5.42333ZM166.299 26.5689C166.322 26.5689 166.322 26.6398 166.299 26.6398C166.228 26.6398 166.228 26.5689 166.299 26.5689ZM167.505 27.1129C167.481 27.0656 167.529 27.0656 167.552 27.1129C167.552 27.1839 167.505 27.1839 167.505 27.1129ZM162.561 18.1249V18.1012L162.609 18.1249V18.2195C162.585 18.1958 162.561 18.1485 162.561 18.1249ZM166.512 26.7581C166.535 26.7581 166.535 26.8291 166.512 26.8291C166.441 26.8291 166.441 26.7581 166.512 26.7581ZM166.559 22.0039H166.653L166.535 21.9329L166.559 22.0039ZM165.423 21.1051C165.423 21.1287 165.423 21.1524 165.447 21.1761L165.329 21.1287L165.423 21.1051ZM164.548 25.3153H164.643V25.3862L164.548 25.3153ZM157.736 21.1524V21.0578L157.807 21.1524H157.736ZM164.099 5.92003C164.123 5.92003 164.146 5.89638 164.17 5.89638L164.099 6.01465V5.92003ZM167.883 24.0853H167.954V24.1326H167.883V24.0853ZM168.522 25.5518C168.522 25.5755 168.522 25.5755 168.451 25.5755C168.404 25.5755 168.522 25.4809 168.522 25.5518ZM160.717 5.5889C160.74 5.5889 160.74 5.6362 160.717 5.6362C160.622 5.6362 160.622 5.5889 160.717 5.5889ZM167.623 23.8252C167.623 23.7306 167.67 23.7306 167.67 23.8252C167.67 23.8488 167.623 23.8488 167.623 23.8252ZM168.475 23.3994C168.475 23.4231 168.522 23.4231 168.522 23.3994C168.522 23.3048 168.475 23.3048 168.475 23.3994ZM148.062 25.5518H148.086C148.062 25.5755 148.039 25.6228 148.039 25.6701C148.015 25.6228 148.015 25.5518 148.062 25.5518ZM166.89 26.6162H166.819V26.5452L166.89 26.6162ZM160.977 5.1868V5.11584L160.906 5.2341L160.977 5.1868ZM148.228 26.4033L148.299 26.4743V26.4033H148.228ZM159.629 6.46405L159.7 6.53501H159.629V6.46405ZM160.977 23.8961H161.048L160.977 23.8252V23.8961ZM164.832 3.12901L164.761 3.19997H164.832V3.12901ZM165.187 25.5518V25.4809L165.258 25.5282L165.187 25.5518ZM146.549 25.5755C146.525 25.5755 146.525 25.5045 146.549 25.5045H146.596L146.549 25.5755ZM163.744 3.0817C163.744 3.01075 163.697 3.01075 163.697 3.0817C163.697 3.10536 163.744 3.10536 163.744 3.0817ZM165.447 25.8356V25.741L165.494 25.8356H165.447ZM158.186 21.6964L158.138 21.6018H158.186V21.6964ZM164.43 6.18021L164.359 6.0856L164.383 6.18021H164.43ZM166.299 22.8317C166.275 22.7608 166.299 22.7608 166.322 22.8317C166.322 22.9027 166.299 22.9027 166.299 22.8317ZM162.987 11.5257C162.94 11.5257 162.916 11.5021 162.916 11.4784C162.94 11.5021 162.987 11.5021 163.011 11.5021C163.011 11.5021 163.011 11.5257 162.987 11.5257ZM165.116 4.69009C165.116 4.76105 165.092 4.7847 165.092 4.71374C165.092 4.66644 165.116 4.64279 165.116 4.69009ZM166.464 22.6898C166.464 22.6189 166.488 22.6189 166.488 22.6898C166.488 22.7371 166.464 22.7371 166.464 22.6898ZM166.228 21.7201C166.228 21.7674 166.251 21.7674 166.251 21.7201C166.251 21.6491 166.228 21.6491 166.228 21.7201ZM166.393 2.93979C166.464 2.93979 166.464 2.91614 166.393 2.91614C166.346 2.91614 166.346 2.93979 166.393 2.93979ZM164.194 7.52842V7.59938H164.146L164.194 7.52842ZM165.589 20.4665V20.5138H165.66L165.589 20.4665ZM161.19 24.3219H161.261L161.19 24.2746V24.3219ZM148.039 26.2377V26.3087H148.086L148.039 26.2377ZM163.697 2.20655L163.65 2.27751H163.697V2.20655ZM167.812 24.9605L167.718 24.9132H167.789L167.812 24.9605ZM165.967 22.5479V22.477L166.015 22.5479H165.967ZM164.146 4.57183V4.52452H164.217L164.146 4.57183ZM159.51 6.65327C159.581 6.62962 159.581 6.65327 159.51 6.67692C159.463 6.67692 159.463 6.65327 159.51 6.65327ZM165.944 1.44966V1.49697L166.015 1.44966H165.944ZM166.228 21.9566C166.251 22.0276 166.275 22.0276 166.251 21.9566C166.251 21.9093 166.228 21.9093 166.228 21.9566ZM143.403 26.285V26.2141H143.355L143.403 26.285ZM172.07 32.624C172.094 32.6476 172.117 32.6713 172.117 32.6949V32.624H172.07ZM164.998 2.44308H164.974L164.903 2.56135L164.998 2.44308ZM160.788 21.791C160.788 21.791 160.811 21.791 160.835 21.7674V21.791C160.835 21.8383 160.811 21.8147 160.788 21.791ZM168.522 24.2509H168.569L168.522 24.2982V24.2509ZM160.953 23.2338C160.953 23.2811 160.977 23.3048 161 23.3048L160.953 23.2338ZM162.325 4.61913C162.301 4.61913 162.278 4.64279 162.278 4.66644L162.349 4.61913H162.325ZM157.926 21.2234L157.855 21.1997H157.926V21.2234ZM163.508 8.73471V8.71106C163.484 8.71106 163.46 8.73471 163.437 8.73471H163.508ZM146.596 25.3862C146.572 25.3862 146.572 25.4099 146.549 25.4099C146.549 25.4099 146.549 25.3862 146.572 25.3626C146.572 25.3626 146.572 25.3862 146.596 25.3862ZM165.163 2.11194L165.14 2.1829H165.163V2.11194ZM168.073 23.1156H168.002L168.073 23.1392V23.1156ZM167.221 25.6464C167.245 25.6464 167.245 25.6464 167.268 25.6701C167.245 25.6701 167.221 25.6464 167.197 25.6464H167.221ZM172.046 32.5767V32.553H172.023L172.046 32.5767ZM164.879 25.5755L164.903 25.5991H164.879V25.5755ZM146.549 25.5991L146.525 25.6228V25.5991H146.549ZM165.447 4.24069C165.471 4.21704 165.471 4.19338 165.471 4.19338L165.447 4.24069ZM154.472 21.3416C154.472 21.3416 154.472 21.318 154.496 21.318L154.472 21.3416ZM164.667 25.4335L164.69 25.4572C164.667 25.4572 164.667 25.4335 164.667 25.4335ZM166.985 27.4677V27.4913V27.4677ZM160.173 22.8317C160.173 22.8554 160.196 22.8554 160.196 22.8791C160.173 22.8554 160.173 22.8554 160.173 22.8317ZM166.133 3.83859C166.133 3.86224 166.133 3.86224 166.109 3.86224L166.133 3.83859Z" fill="white"></path><path d="M0 27V10.6089H3.09333V13.5956C3.42518 12.6237 4.01777 11.8178 4.8711 11.1778C5.72443 10.5141 6.76739 10.1822 7.99999 10.1822C10.8207 10.1822 12.5748 11.3556 13.2622 13.7022C13.6415 12.683 14.3052 11.8415 15.2533 11.1778C16.2015 10.5141 17.2918 10.1822 18.5244 10.1822C22.4592 10.1822 24.4266 12.3274 24.4266 16.6178V27H21.3333V17.2222C21.3333 14.3067 20.1481 12.8489 17.7777 12.8489C15.0992 12.8489 13.76 14.7215 13.76 18.4667V27H10.6666V17.4355C10.6666 14.3778 9.49332 12.8489 7.14665 12.8489C5.86666 12.8489 4.8711 13.323 4.15999 14.2711C3.44888 15.1955 3.09333 16.5941 3.09333 18.4667V27H0Z" fill="#7AEAD7"></path><path d="M35.6633 27.4266C33.127 27.4266 31.1359 26.6207 29.6899 25.0089C28.2677 23.397 27.5566 21.3348 27.5566 18.8222C27.5566 16.3333 28.2914 14.2711 29.7611 12.6356C31.2544 11 33.2455 10.1822 35.7344 10.1822C37.0144 10.1822 38.164 10.4785 39.1833 11.0711C40.2025 11.6637 40.9729 12.4696 41.4944 13.4889V10.6089H44.5521V27H41.4944V24.12C40.9729 25.1155 40.1788 25.9215 39.1121 26.5377C38.0455 27.1303 36.8959 27.4266 35.6633 27.4266ZM36.0899 24.6533C37.8203 24.6533 39.1714 24.0963 40.1433 22.9822C41.1388 21.8444 41.6366 20.4578 41.6366 18.8222C41.6366 17.163 41.1388 15.7763 40.1433 14.6622C39.1714 13.5244 37.8203 12.9556 36.0899 12.9556C34.4307 12.9556 33.1033 13.5126 32.1077 14.6267C31.1122 15.717 30.6144 17.1155 30.6144 18.8222C30.6144 20.5289 31.1122 21.9274 32.1077 23.0178C33.1033 24.1081 34.4307 24.6533 36.0899 24.6533Z" fill="#7AEAD7"></path><path d="M49.168 27V10.6089H52.2613V13.6311C52.7117 12.5644 53.4228 11.723 54.3946 11.1067C55.3902 10.4904 56.5872 10.1822 57.9857 10.1822C62.0628 10.1822 64.1013 12.4222 64.1013 16.9022V27H61.0079V18.2533C61.0079 16.4044 60.6761 15.0415 60.0124 14.1644C59.3724 13.2874 58.3294 12.8489 56.8835 12.8489C55.3902 12.8489 54.2405 13.3348 53.4346 14.3067C52.6524 15.2785 52.2613 16.6178 52.2613 18.3244V27H49.168Z" fill="#7AEAD7"></path><path d="M116.015 24.4044C116.868 24.4044 117.556 24.3452 118.077 24.2266V26.9644C117.366 27.1303 116.453 27.2133 115.339 27.2133C114.841 27.2133 114.403 27.1896 114.024 27.1422C113.668 27.0948 113.241 26.9644 112.744 26.7511C112.246 26.5377 111.831 26.2415 111.499 25.8622C111.167 25.4592 110.883 24.9022 110.646 24.1911C110.409 23.4563 110.29 22.5792 110.29 21.56V13.2044H107.339V10.6089H110.29V5.41779H113.384V10.6089H117.508V13.2044H113.384V20.8844C113.384 22.3303 113.597 23.2785 114.024 23.7289C114.45 24.1792 115.114 24.4044 116.015 24.4044Z" fill="#7AEAD7"></path><path d="M127.698 27.4266C125.162 27.4266 123.17 26.6207 121.724 25.0089C120.302 23.397 119.591 21.3348 119.591 18.8222C119.591 16.3333 120.326 14.2711 121.796 12.6356C123.289 11 125.28 10.1822 127.769 10.1822C129.049 10.1822 130.199 10.4785 131.218 11.0711C132.237 11.6637 133.007 12.4696 133.529 13.4889V10.6089H136.587V27H133.529V24.12C133.007 25.1155 132.213 25.9215 131.147 26.5377C130.08 27.1303 128.93 27.4266 127.698 27.4266ZM128.124 24.6533C129.855 24.6533 131.206 24.0963 132.178 22.9822C133.173 21.8444 133.671 20.4578 133.671 18.8222C133.671 17.163 133.173 15.7763 132.178 14.6622C131.206 13.5244 129.855 12.9556 128.124 12.9556C126.465 12.9556 125.138 13.5126 124.142 14.6267C123.147 15.717 122.649 17.1155 122.649 18.8222C122.649 20.5289 123.147 21.9274 124.142 23.0178C125.138 24.1081 126.465 24.6533 128.124 24.6533Z" fill="#7AEAD7"></path><path d="M81.1834 10.6089H84.2411V26.5733C84.2411 29.7022 83.293 32.0015 81.3967 33.4711C80.0219 34.4904 78.1374 35 75.7434 35C73.3493 35 71.4174 34.4667 69.9478 33.4C68.3834 32.3096 67.5656 30.8637 67.4945 29.0622H70.73C70.8723 30.0578 71.3582 30.8637 72.1878 31.48C73.0411 32.0963 74.2263 32.4044 75.7434 32.4044C79.37 32.4044 81.1834 30.5318 81.1834 26.7867V24.12C80.6856 25.1393 79.8915 25.9452 78.8011 26.5378C77.7108 27.1304 76.5611 27.4267 75.3523 27.4267C72.8871 27.4267 70.9197 26.6089 69.45 24.9733C67.9804 23.3378 67.2456 21.2874 67.2456 18.8222C67.2456 16.3571 68.0041 14.3067 69.5212 12.6711C71.0619 11.0119 73.0293 10.1823 75.4234 10.1823C76.6797 10.1823 77.8174 10.4785 78.8367 11.0711C79.8797 11.6637 80.6619 12.4697 81.1834 13.4889V10.6089ZM75.7789 24.6533C77.4619 24.6533 78.8011 24.0963 79.7967 22.9822C80.8159 21.8682 81.3256 20.4815 81.3256 18.8222C81.3256 17.163 80.8159 15.7763 79.7967 14.6622C78.8011 13.5245 77.4619 12.9556 75.7789 12.9556C74.1671 12.9556 72.8515 13.5126 71.8323 14.6267C70.813 15.7171 70.3034 17.1156 70.3034 18.8222C70.3034 20.5052 70.813 21.9037 71.8323 23.0178C72.8515 24.1082 74.1671 24.6533 75.7789 24.6533Z" fill="#7AEAD7"></path><path d="M95.218 27.3554C92.6817 27.3554 90.6906 26.5495 89.2447 24.9376C87.8224 23.3258 87.1113 21.2635 87.1113 18.7509C87.1113 16.2621 87.8461 14.1998 89.3158 12.5643C90.8091 10.9287 92.8002 10.111 95.2891 10.111C96.5691 10.111 97.7187 10.4073 98.738 10.9999C99.7572 11.5924 100.528 12.3984 101.049 13.4176V10.5376H104.107V26.9287H101.049V24.0487C100.528 25.0443 99.7335 25.8502 98.6669 26.4665C97.6002 27.0591 96.4506 27.3554 95.218 27.3554ZM95.6446 24.582C97.375 24.582 98.7261 24.025 99.698 22.9109C100.694 21.7732 101.191 20.3865 101.191 18.7509C101.191 17.0917 100.694 15.705 99.698 14.591C98.7261 13.4532 97.375 12.8843 95.6446 12.8843C93.9854 12.8843 92.658 13.4413 91.6624 14.5554C90.6669 15.6458 90.1691 17.0443 90.1691 18.7509C90.1691 20.4576 90.6669 21.8561 91.6624 22.9465C92.658 24.0369 93.9854 24.582 95.6446 24.582Z" fill="#7AEAD7"></path></svg> 