<?xml version="1.0" encoding="UTF-8"?> <svg xmlns="http://www.w3.org/2000/svg" width="2905" height="557" viewBox="0 0 2905 557" fill="none"><path d="M1659.7 64.5643C1660.38 79.4217 1655.65 94.279 1652.95 108.461C1640.79 164.514 1637.41 222.592 1622.55 277.97C1644.84 258.385 1669.84 238.125 1700.91 235.424C1739.41 230.021 1779.27 255.008 1792.1 290.801C1800.21 320.516 1796.83 351.581 1790.75 381.296C1806.29 382.646 1821.15 381.971 1836.68 379.945C1832.63 344.152 1842.09 307.009 1865.73 279.32C1895.45 242.852 1947.47 227.995 1992.73 238.8C2031.9 250.281 2054.2 301.606 2029.88 335.373C2003.53 373.192 1958.95 392.101 1917.74 409.66C1928.55 421.816 1944.09 430.595 1960.98 429.244C2008.26 426.543 2050.14 400.88 2087.97 375.218C2085.94 331.321 2097.43 282.022 2135.26 255.008C2173.76 227.32 2228.47 232.722 2266.3 258.385C2286.57 243.528 2319.67 244.878 2330.48 270.541C2333.18 315.113 2321.02 360.36 2333.85 404.257C2337.23 415.738 2349.39 429.244 2362.22 421.816C2391.27 406.283 2409.51 378.594 2427.75 352.256C2438.56 323.892 2435.18 292.152 2443.96 263.112C2450.04 249.606 2468.28 242.852 2481.11 252.307C2495.3 259.06 2496.65 275.268 2499.35 288.775C2518.26 263.788 2542.58 236.774 2577.03 237.45C2606.75 233.398 2634.45 250.956 2645.93 277.294C2664.17 252.307 2693.22 233.398 2725.64 238.125C2762.12 236.774 2793.87 267.84 2793.87 302.957C2797.25 342.126 2761.44 370.49 2760.09 408.309C2759.42 427.218 2782.38 429.244 2795.89 424.517C2834.4 411.01 2853.99 373.867 2879.66 345.503C2893.84 353.607 2911.41 369.815 2901.27 387.374C2879.66 418.439 2853.99 449.504 2820.89 469.764C2795.9 485.297 2762.12 490.024 2734.42 477.868C2707.4 467.063 2693.22 436.673 2694.57 408.984C2696.6 377.919 2716.86 352.932 2724.97 323.217C2729.02 312.412 2723.62 297.554 2711.46 295.528C2690.52 293.502 2670.93 307.009 2658.77 323.217C2640.53 348.204 2631.75 377.919 2622.97 406.958C2616.89 428.569 2618.91 452.881 2609.46 473.816C2595.95 498.128 2555.42 478.544 2555.42 454.907C2552.71 427.218 2560.82 401.556 2570.95 376.568L2577.71 359.01C2583.11 345.503 2587.84 331.321 2591.22 317.139C2593.24 305.658 2582.44 294.853 2570.95 295.528C2544.61 297.554 2525.02 318.49 2513.54 340.776C2495.3 376.568 2483.81 415.738 2480.44 455.582C2479.09 470.44 2468.95 490.024 2450.04 484.622C2426.4 480.57 2416.94 455.582 2420.99 434.647C2418.97 436.673 2416.94 438.024 2414.91 440.05L2408.83 445.452C2387.89 465.037 2365.6 485.297 2335.2 484.622C2296.7 479.894 2275.76 440.725 2271.03 406.958C2253.47 438.699 2233.2 474.492 2194.7 483.271C2153.49 490.024 2113.64 463.011 2095.4 427.894C2053.52 460.985 2001.51 485.972 1946.79 484.622C1908.29 483.271 1876.54 457.608 1854.92 429.244C1825.88 438.024 1794.13 442.076 1766.43 426.543C1740.09 481.245 1667.81 504.882 1612.42 480.57C1588.1 470.44 1573.24 448.154 1562.43 425.192C1528.66 454.907 1488.13 478.544 1442.87 485.297C1417.87 489.349 1396.26 468.414 1391.53 445.452C1380.05 401.556 1405.72 359.685 1410.44 317.139C1413.15 304.983 1400.99 293.502 1388.83 296.879C1359.11 298.905 1339.52 325.243 1326.68 348.88C1311.82 378.594 1299.66 410.335 1294.26 442.751C1291.56 456.258 1290.21 471.115 1280.07 481.92C1260.48 494.076 1234.14 477.193 1232.11 456.258C1230.76 434.647 1235.49 413.036 1239.54 391.426C1219.95 415.738 1185.5 420.465 1159.16 403.582C1141.6 459.634 1078.77 494.076 1020.68 483.271C981.502 475.842 946.376 444.777 938.945 405.608C930.164 363.062 936.243 315.788 961.912 279.32C1004.47 223.268 1102.42 225.294 1145.65 279.996C1162.54 301.606 1164.56 329.295 1163.21 355.633C1175.37 361.036 1189.56 364.412 1200.36 354.958C1230.09 332.672 1251.7 299.58 1261.83 264.463C1267.24 250.281 1286.83 244.203 1298.99 253.658C1311.82 261.086 1314.52 275.944 1314.52 288.775C1341.54 255.684 1385.45 233.398 1429.36 238.8C1453 241.502 1469.21 262.437 1471.91 284.723C1477.32 315.788 1468.54 344.828 1459.08 373.867L1455.7 385.348C1452.33 394.802 1449.62 404.932 1447.6 414.387C1445.57 429.92 1465.16 425.868 1473.27 420.465C1502.31 406.958 1528.66 388.049 1552.3 365.763C1558.38 265.138 1577.29 165.864 1590.13 65.915C1597.56 30.7976 1654.98 32.1483 1659.7 64.5643ZM231.021 11.8883C264.121 103.734 282.359 200.306 297.22 296.204C306.677 285.398 308.704 270.541 314.108 257.034C335.724 198.956 355.989 140.202 380.307 82.7983C389.764 60.5123 399.221 37.551 414.082 17.291C419.486 8.51167 430.294 4.45963 440.426 6.48563C456.638 16.6156 460.016 36.8756 462.042 53.759C471.499 157.085 476.903 261.086 485.685 364.412C487.711 395.478 501.221 425.868 499.87 456.933C494.466 486.648 439.751 490.024 436.373 456.933C425.565 354.958 417.459 251.632 413.406 148.981C383.684 223.943 363.419 302.957 333.022 377.919C321.538 398.179 306.677 427.894 278.982 424.517C262.094 423.842 261.419 404.932 258.717 392.776C241.829 319.84 226.293 246.904 212.783 173.293C191.167 253.658 167.524 334.022 126.994 407.634C109.431 437.348 88.4905 469.764 52.0135 479.219C34.4505 485.297 5.404 486.648 0 464.362C0 441.4 27.6955 436.673 40.53 421.816C64.1725 394.127 79.0335 360.36 93.219 327.269C132.398 227.995 158.743 123.994 183.736 20.6677C185.763 -0.942995 221.564 -8.37168 231.021 11.8883ZM1033.52 298.23C990.959 321.866 992.985 386.023 1026.76 416.413C1045.67 431.946 1075.4 423.166 1089.58 404.932C1111.87 377.244 1108.5 336.724 1089.58 308.36C1076.75 290.801 1051.08 288.1 1033.52 298.23ZM1669.16 295.528C1627.28 313.087 1606.34 369.14 1631.33 407.634C1644.17 427.894 1673.21 426.543 1692.8 418.439C1735.36 399.53 1750.9 340.776 1724.55 302.957C1712.39 284.723 1686.72 287.424 1669.16 295.528ZM2185.24 296.879C2137.96 314.438 2134.58 381.971 2167.68 414.387C2177.81 423.842 2196.05 427.218 2206.86 416.413C2232.53 392.776 2247.39 359.01 2253.47 325.243C2245.36 299.58 2209.56 289.45 2185.24 296.879ZM1927.88 292.827C1907.61 313.762 1905.59 344.152 1900.86 371.166C1926.53 355.633 1950.17 336.724 1972.46 317.139C1980.57 310.386 1987.32 298.905 1981.92 288.1C1967.73 271.892 1941.39 279.996 1927.88 292.827ZM801.143 240.826C845.726 259.736 875.448 306.334 872.071 353.607C792.362 353.607 712.653 354.282 632.944 352.932C632.944 321.191 643.752 288.775 666.719 266.489C700.494 232.047 756.56 221.242 801.143 240.826Z" fill="#5FC0C1"></path><path d="M797.765 544.726C802.494 544.726 806.547 547.427 806.547 550.804C806.547 554.18 802.494 556.882 797.765 556.882H669.42C664.692 556.882 660.639 554.18 660.639 550.804C660.639 547.427 664.692 544.726 669.42 544.726H797.765Z" fill="#E1177C"></path><path d="M641.725 556.882C646.575 556.882 650.506 552.951 650.506 548.102C650.506 543.254 646.575 539.323 641.725 539.323C636.875 539.323 632.943 543.254 632.943 548.102C632.943 552.951 636.875 556.882 641.725 556.882Z" fill="#E1177C"></path><path d="M718.732 524.466C723.582 524.466 727.513 520.535 727.513 515.687C727.513 510.838 723.582 506.907 718.732 506.907C713.882 506.907 709.95 510.838 709.95 515.687C709.95 520.535 713.882 524.466 718.732 524.466Z" fill="#E1177C"></path><path d="M869.368 506.907C874.097 506.907 878.15 510.959 878.15 515.687C878.15 520.414 874.097 524.466 869.368 524.466H743.725C738.997 524.466 734.944 520.414 734.944 515.687C734.944 510.959 738.997 506.907 743.725 506.907H869.368Z" fill="#E1177C"></path><path d="M553.91 492.05C558.76 492.05 562.691 488.119 562.691 483.271C562.691 478.422 558.76 474.491 553.91 474.491C549.06 474.491 545.128 478.422 545.128 483.271C545.128 488.119 549.06 492.05 553.91 492.05Z" fill="#E1177C"></path><path d="M678.877 474.491C683.606 474.491 687.659 478.543 687.659 483.271C687.659 487.998 683.606 492.05 678.877 492.05H575.526C570.797 492.05 566.744 487.998 566.744 483.271C566.744 478.543 570.797 474.491 575.526 474.491H678.877Z" fill="#E1177C"></path><path d="M910.574 474.491C915.302 474.491 919.355 478.543 919.355 483.271C919.355 487.998 915.302 492.05 910.574 492.05H705.222C700.493 492.05 696.44 487.998 696.44 483.271C696.44 478.543 700.493 474.491 705.222 474.491H910.574Z" fill="#E1177C"></path><path d="M872.07 442.075C876.799 442.075 880.852 446.127 880.852 450.855C880.852 455.582 876.799 459.634 872.07 459.634H620.109C615.38 459.634 611.327 455.582 611.327 450.855C611.327 446.127 615.38 442.075 620.109 442.075H872.07Z" fill="#E1177C"></path><path d="M592.413 459.634C597.263 459.634 601.195 455.703 601.195 450.855C601.195 446.006 597.263 442.075 592.413 442.075C587.563 442.075 583.632 446.006 583.632 450.855C583.632 455.703 587.563 459.634 592.413 459.634Z" fill="#E1177C"></path><path d="M819.381 410.335C824.11 410.335 828.163 414.387 828.163 419.114C828.163 423.842 824.11 427.894 819.381 427.894H567.42C562.691 427.894 558.638 423.842 558.638 419.114C558.638 414.387 562.691 410.335 567.42 410.335H819.381Z" fill="#E1177C"></path><path d="M537.022 427.894C541.872 427.894 545.804 423.963 545.804 419.114C545.804 414.266 541.872 410.335 537.022 410.335C532.172 410.335 528.241 414.266 528.241 419.114C528.241 423.963 532.172 427.894 537.022 427.894Z" fill="#E1177C"></path><path d="M592.413 395.478C597.263 395.478 601.195 391.547 601.195 386.698C601.195 381.85 597.263 377.919 592.413 377.919C587.563 377.919 583.632 381.85 583.632 386.698C583.632 391.547 587.563 395.478 592.413 395.478Z" fill="#E1177C"></path><path d="M896.389 377.919C901.117 377.919 905.17 381.971 905.17 386.698C905.17 391.426 901.117 395.478 896.389 395.478H622.136C617.407 395.478 613.354 391.426 613.354 386.698C613.354 381.971 617.407 377.919 622.136 377.919H896.389Z" fill="#E1177C"></path></svg> 