<?xml version="1.0" encoding="UTF-8"?> <svg xmlns="http://www.w3.org/2000/svg" width="2125" height="654" viewBox="0 0 2125 654" fill="none"><path d="M177.501 225.892C186.115 227.445 198.669 257.251 201.023 282.348C201.808 287.826 201.023 299.598 201.023 308.214C200.238 321.556 198.669 325.463 193.962 331.758C183.778 346.636 164.963 356.054 140.657 357.624C133.595 358.408 121.842 359.193 115.565 359.193C105.382 358.408 104.597 358.408 106.15 354.484C106.935 352.915 109.288 347.421 110.858 342.712C121.058 311.353 143.795 261.175 155.548 245.495C163.394 233.723 172.793 225.091 177.501 225.875V225.892ZM169.655 157.663C165.732 157.663 161.04 158.448 153.979 160.802C143.795 163.942 134.38 169.419 125.749 176.482C113.212 185.883 111.642 186.668 110.874 182.76C110.073 176.482 99.8894 167.849 90.474 167.064C81.075 165.511 69.3058 170.204 64.6144 177.267C62.2606 180.406 55.9836 190.592 49.7067 200.794C38.7385 219.597 34.8317 232.939 38.7385 240.787C41.0923 245.479 40.3077 250.973 33.2461 284.703C20.7086 345.852 0.324998 472.106 0.324998 496.402C-0.459617 551.289 0.324998 603.037 1.10961 613.24C3.46346 628.919 8.95577 639.89 19.1394 646.953C29.3231 654.016 34.8317 655.586 45.7837 652.447C56.7683 650.092 62.2606 646.168 68.5211 637.552C75.5827 627.35 77.1519 616.379 77.1519 568.555C76.3673 510.513 84.2135 418.773 88.9211 413.279C90.474 412.494 100.674 411.709 112.427 413.279C156.333 417.203 192.392 409.355 219.821 388.967C249.62 367.009 262.158 341.928 264.512 299.581C266.865 243.909 248.836 194.5 216.699 169.402C206.499 162.356 203.361 161.554 187.685 159.216C179.838 157.647 174.362 156.878 169.655 157.663ZM412.313 146.692C398.207 146.692 393.499 153.739 380.962 193.731C353.516 284.703 344.886 329.387 342.548 390.553C340.979 432.114 344.117 441.516 360.578 450.148C366.054 452.503 370.762 454.072 371.546 454.072C377.038 454.072 388.007 449.364 391.93 445.44C398.207 437.592 418.574 358.408 429.559 301.167C437.405 256.466 445.251 177.267 442.112 168.634C436.62 153.756 427.205 146.692 412.313 146.692ZM448.373 0.0491653C434.266 -0.735635 421.729 7.89717 414.667 24.3616C406.821 43.1641 413.098 64.3537 428.774 73.755C448.389 84.7422 469.541 74.5398 477.387 49.4425C483.648 29.8389 477.387 11.02 462.496 3.97317C457.788 1.61877 453.081 0.0491653 448.373 0.0491653ZM726.209 183.545C725.345 183.157 724.409 182.957 723.462 182.957C722.516 182.957 721.58 183.157 720.716 183.545C691.702 185.115 652.52 207.841 616.444 241.571C596.845 260.374 584.308 277.639 573.339 301.167C556.078 338.02 552.956 372.519 565.493 395.261C578.031 417.988 604.691 436.823 633.689 442.3C639.966 443.87 647.028 445.44 649.382 446.224C651.736 446.224 666.627 447.009 683.087 446.224C710.533 445.44 712.87 445.44 738.746 436.823C774.806 424.266 794.405 414.865 799.112 407.017C807.743 392.122 800.682 373.303 785.006 367.81C777.944 365.455 774.021 366.24 742.669 374.088C708.963 382.705 706.61 383.506 683.087 381.936C655.642 380.367 646.243 378.797 635.259 370.949C628.998 367.025 628.213 365.455 628.213 356.839C628.213 345.067 637.612 321.556 647.812 305.091C657.212 291.75 678.38 269.791 695.625 256.466L707.394 247.049L710.533 252.542C716.009 261.175 723.07 265.099 732.469 265.099C749.731 265.884 760.699 250.188 761.484 223.537C762.268 209.411 762.268 206.272 757.561 199.993C754.109 194.866 749.436 190.677 743.963 187.806C738.49 184.935 732.388 183.47 726.209 183.545ZM1022.61 247.049H1025.77L1032.03 247.833L1014.78 270.576C1002.92 287.499 991.166 304.492 979.509 321.556C972.843 330.605 966.309 339.751 959.91 348.991C959.125 349.776 959.125 344.298 959.91 337.219C961.479 311.353 969.325 294.889 994.4 267.437C1007.74 253.327 1014.77 247.833 1022.61 247.049ZM1030.46 189.022C1008.52 189.807 987.355 199.225 963.833 218.829C936.387 242.356 914.435 268.222 901.897 294.889C897.189 305.86 894.836 315.277 887.79 354.484C879.944 399.97 879.944 400.755 883.867 413.295C889.36 432.114 897.189 441.532 913.65 447.009C916.788 447.794 925.419 448.579 934.034 447.794C946.587 447.794 952.08 446.224 960.694 441.516C980.31 431.329 1007.74 401.54 1035.17 359.978L1051.63 335.666L1050.86 356.054C1050.08 388.983 1050.86 414.865 1053.2 423.481C1056.34 431.329 1065.75 437.608 1074.37 437.608C1082.21 437.608 1093.98 430.545 1099.46 422.697C1104.16 416.435 1104.95 412.511 1108.09 381.936C1109.66 363.886 1113.56 332.526 1115.93 312.939C1119.06 294.104 1121.41 269.791 1121.41 260.39C1121.41 250.973 1122.19 240.002 1123.76 236.078C1126.9 224.306 1121.41 210.196 1110.42 203.934C1103.38 200.01 1099.46 199.225 1089.27 200.794C1079.07 201.579 1074.37 200.794 1064.18 196.086C1055.55 192.946 1047.72 190.592 1039.09 189.807C1035.95 189.022 1032.8 189.022 1030.46 189.022ZM1313.61 176.482C1302.62 176.482 1291.65 178.052 1286.16 180.406C1272.84 187.453 1245.4 212.55 1239.12 224.322C1230.5 237.647 1229.72 255.681 1236.76 268.222C1243.83 282.348 1266.56 305.091 1301.05 330.957C1347.31 365.455 1349.67 372.519 1326.15 388.999C1321.44 392.907 1315.16 396.03 1312.04 396.03C1304.19 396.03 1283.81 385.844 1261.86 371.734C1252.46 364.671 1242.26 358.408 1239.13 357.624C1221.87 348.206 1199.14 366.24 1203.06 385.844C1204.63 395.261 1213.26 404.663 1239.12 423.481C1260.29 439.962 1285.38 453.288 1299.48 455.642C1312.04 457.996 1311.25 457.996 1326.93 455.642C1334.78 454.857 1346.53 450.148 1353.57 447.009C1368.48 438.393 1390.43 418.004 1399.05 403.878C1412.39 381.151 1407.68 345.067 1388.08 318.416C1381.02 308.214 1370.84 300.382 1342.61 279.994C1322.22 265.884 1304.19 251.757 1302.62 250.188C1299.48 246.264 1299.48 245.495 1304.98 240.002C1308.12 236.863 1313.61 233.723 1316.75 232.939C1322.22 232.154 1322.22 232.154 1322.22 237.647C1322.22 265.884 1364.56 271.361 1374.76 244.694C1379.45 234.508 1379.45 213.335 1375.53 203.934C1371.6 193.731 1359.07 183.545 1345.74 179.621C1337.9 177.267 1325.36 175.697 1313.61 176.482ZM1595.33 176.482C1584.37 176.482 1573.38 178.052 1567.9 180.406C1554.57 187.453 1527.14 212.55 1520.86 224.322C1512.23 237.647 1511.46 255.681 1518.51 268.222C1525.57 282.348 1548.31 305.091 1582.8 330.957C1629.06 365.455 1631.39 372.519 1607.89 388.999C1603.18 392.907 1596.9 396.03 1593.76 396.03C1585.92 396.03 1565.55 385.844 1543.58 371.734C1534.18 364.671 1524 358.408 1520.86 357.624C1503.62 348.206 1480.88 366.24 1484.8 385.844C1486.37 395.261 1494.98 404.663 1520.86 423.481C1542.03 439.962 1567.12 453.288 1581.23 455.642C1593.76 457.996 1593 457.996 1608.67 455.642C1616.52 454.857 1628.27 450.148 1635.32 447.009C1650.21 438.393 1672.16 418.004 1680.79 403.878C1694.11 381.151 1689.41 345.067 1669.81 318.416C1662.76 308.214 1652.56 300.382 1624.35 279.994C1603.96 265.884 1585.93 251.757 1584.37 250.188C1581.23 246.264 1581.23 245.495 1586.72 240.002C1589.86 236.863 1595.33 233.723 1598.49 232.939C1603.96 232.154 1603.96 232.154 1603.96 237.647C1603.96 265.884 1646.3 271.361 1656.48 244.694C1661.19 234.508 1661.19 213.335 1657.27 203.934C1653.35 193.731 1640.81 183.545 1627.49 179.621C1619.64 177.267 1607.1 175.697 1595.33 176.482ZM1856.69 272.146C1858.26 271.361 1859.05 272.146 1859.83 273.715C1861.4 278.424 1871.58 282.348 1887.26 285.487C1914.7 289.411 1923.34 300.366 1915.49 320.771C1910.78 330.172 1891.97 348.206 1878.65 355.269C1866.88 361.548 1845.72 363.886 1837.09 360.763C1829.25 356.839 1826.89 343.497 1830.03 315.277C1833.17 280.779 1834.74 278.424 1847.28 273.715C1851.98 272.931 1855.12 272.146 1856.69 272.146ZM1830.82 212.55C1822.2 212.55 1814.36 217.259 1805.74 225.892C1786.14 246.264 1774.37 273.715 1768.88 313.708C1762.62 356.839 1767.31 382.705 1786.93 403.878C1798.68 417.219 1815.92 425.836 1834.74 428.975C1848.06 431.329 1864.54 429.76 1882.57 425.836C1922.55 415.65 1964.87 377.227 1976.64 339.59C1994.67 279.994 1953.12 229.015 1888.83 231.369C1878.65 232.154 1868.45 232.939 1866.09 234.508C1863.75 235.293 1862.18 235.293 1862.18 232.939C1862.18 227.445 1849.63 216.474 1840.23 214.136C1837.17 213.228 1834.01 212.695 1830.82 212.55Z" fill="white"></path><path d="M2089.56 393.707C2083.3 393.707 2077.02 394.475 2071.53 397.615C2064.49 402.323 2058.99 413.311 2058.99 423.497C2058.99 432.113 2066.84 443.1 2075.45 447.793C2099.76 460.35 2125.64 432.113 2113.08 408.586C2109.16 399.969 2098.98 394.475 2089.56 393.707Z" fill="#FF8500"></path></svg> 