<svg width="1156" height="246" viewBox="0 0 1156 246" fill="none" xmlns="http://www.w3.org/2000/svg">
<path fill-rule="evenodd" clip-rule="evenodd" d="M314.09 211.135L324.959 160.044C330.929 160.743 338.706 161.396 349.53 161.396C374.817 161.396 395.458 154.491 409.799 142.255C424.16 130 432.105 112.48 432.105 91.4837C432.105 77.2425 428.303 65.2682 421.145 55.9461C413.988 46.6241 403.538 40.0392 390.391 36.4658C382.743 34.3819 374.178 33.3105 364.801 33.3105C354.868 33.3105 335.428 35.9759 323.707 37.9553L322.952 38.0794L286.053 211.142H314.084L314.09 211.135ZM348.317 135.618C344.509 135.618 341.12 135.559 338.003 135.416C335.253 135.285 332.717 135.089 330.284 134.802L346.096 60.6758C351.144 59.9572 358.237 59.0818 365.53 59.0818C370.028 59.0818 374.133 59.4476 377.844 60.1531C384.989 61.5119 390.669 64.1315 394.922 67.8029C401.351 73.3556 404.649 81.4561 404.649 91.7254C404.649 104.889 399.924 115.805 390.611 123.454C381.272 131.13 367.189 135.618 348.317 135.618Z" fill="white"/>
<path d="M560.872 211.135L598.119 36.42H570.076L532.835 211.135H560.878H560.872Z" fill="white"/>
<path fill-rule="evenodd" clip-rule="evenodd" d="M914.876 99.5122L928.443 36.42H956.512L931.915 150.957C929.727 160.991 927.817 172.384 927.817 179.099C927.817 181.85 928.178 183.953 928.901 185.331C929.25 186.004 929.676 186.475 930.16 186.782C930.638 187.089 931.244 187.272 932.032 187.272C933.051 187.272 934.316 186.801 935.807 185.802C937.285 184.815 938.879 183.378 940.532 181.621C943.765 178.185 947.115 173.625 950.09 169.085C950.071 168.516 950.065 167.942 950.065 167.354C950.065 148.618 956.758 129.393 968.375 114.838C979.999 100.277 996.599 90.3339 1016.4 90.3339C1030.13 90.3339 1041.11 95.1484 1048.65 103.399C1056.18 111.637 1060.19 123.193 1060.19 136.513C1060.19 168.334 1041.11 201.526 1011.27 211.077C1005.8 212.827 999.923 213.781 993.856 213.781C987.789 213.781 982.258 212.84 977.314 211.064C968.775 208.013 962.043 202.493 957.409 195.176C951.672 202.434 945.269 207.967 938.118 211.037C933.987 212.821 929.547 213.781 925.003 213.781C920.459 213.781 916.419 212.847 912.985 210.998C905.712 207.072 901.49 199.187 900.916 188.114C894.52 198.619 885.884 206.981 874.835 211.064C870.085 212.814 864.921 213.768 859.306 213.768C854.052 213.768 849.237 212.814 844.92 211.044C835.877 207.346 829.12 200.147 825.163 190.982C819.142 200.938 812.584 207.595 805.194 211.024C801.231 212.867 796.972 213.768 792.647 213.768C788.323 213.768 784.483 212.808 781.243 210.985C774.311 207.085 770.329 199.442 769.587 189.65C763.623 199.285 755.639 207.131 745.216 211.057C740.569 212.808 735.463 213.768 729.861 213.768C724.633 213.768 719.78 212.827 715.404 211.05C709.957 208.842 705.69 205.223 702.418 200.709C696.596 206.504 689.781 210.73 682.481 212.997C674.349 215.519 665.423 215.61 657.084 212.161C648.635 208.66 641.917 201.983 637.638 193.014C635.45 188.421 633.242 182.967 631.119 177.708C630.525 176.232 629.931 174.768 629.35 173.344C628.06 170.195 626.769 167.112 625.433 164.14C622.412 164.767 619.508 165.191 616.765 165.44L607 211.253H578.059L615.493 35.6492H644.44L623.677 133.031C638.283 128.778 658.42 116.745 672.258 87.0349L699.662 100.113C686.876 127.57 669.179 144.405 651.843 154.138C653.095 156.98 654.257 159.776 655.348 162.441C656.071 164.211 656.755 165.897 657.407 167.51C659.459 172.58 661.202 176.904 662.983 180.628C664.558 183.927 666.378 185.233 667.746 185.795C669.231 186.409 671.399 186.645 674.246 185.763C679.983 183.979 687.554 177.688 691.297 165.629L694.04 153.472C695.112 145.469 697.132 138.185 699.694 132.822C711.951 107.175 736.438 89.8374 763.552 89.8374C772.375 89.8374 781.591 91.9736 789.646 95.2007C797.694 98.4278 804.684 102.785 809.009 107.306L809.435 107.75L809.299 108.351C808.441 112.153 807.363 116.791 806.182 121.88C804.265 130.124 802.077 139.557 800.089 148.579C798.488 155.869 797.03 162.866 795.965 168.706C794.9 174.579 794.261 179.197 794.261 181.778C794.261 183.724 794.661 185.116 795.268 185.991C795.836 186.814 796.642 187.252 797.74 187.252C799.289 187.252 801.122 186.396 803.239 184.417C805.343 182.451 807.608 179.491 810.009 175.578C814.805 167.752 820.039 156.287 825.589 141.805C835.819 110.735 862.088 90.3273 888.414 90.3273C900.497 90.3273 908.913 93.9464 914.902 99.4992L914.876 99.5122ZM773.601 140.91L778.732 119.195C773.95 116.34 768.522 114.407 761.596 114.407C749.553 114.407 738.949 121.135 731.313 131.163C723.672 141.19 719.096 154.413 719.096 167.125C719.096 173.566 720.632 178.792 723.426 182.385C726.195 185.946 730.281 188.01 735.664 188.01C743.731 188.01 751.437 183.888 758.04 175.905C764.649 167.909 770.109 156.098 773.601 140.916V140.91ZM908.622 127.962L909.939 121.566C905.079 117.764 898.463 114.903 889.847 114.903C878.301 114.903 868.116 121.442 860.778 131.307C853.439 141.177 849.031 154.275 849.031 167.125C849.031 173.821 850.574 179.047 853.278 182.581C855.956 186.076 859.861 188.016 864.876 188.016C874.067 188.016 883.044 182.098 890.757 171.502C898.457 160.926 904.769 145.855 908.622 127.968V127.962ZM982.432 181.686C985.408 185.567 990.029 188.003 996.754 188.003C1006.42 188.003 1015.27 181.601 1021.77 172.038C1028.25 162.493 1032.24 149.99 1032.24 138.238C1032.24 131.901 1030.81 126.368 1027.8 122.442C1024.84 118.561 1020.21 116.118 1013.48 116.118C1003.82 116.118 994.973 122.579 988.473 132.175C981.993 141.752 978.005 154.262 978.005 165.897C978.005 172.234 979.431 177.76 982.432 181.686Z" fill="white"/>
<path d="M1155.44 178.244L1154.79 179.197C1149.65 186.801 1142.66 195.281 1137.89 199.533C1134 203.022 1129.53 206.262 1124.6 208.771C1118.65 211.815 1112.01 213.775 1104.91 213.775C1098.87 213.775 1093.66 212.69 1089.26 210.678C1077.33 205.223 1071.78 193.105 1071.78 178.368C1071.78 172.534 1072.44 166.851 1073.18 162.389V162.35L1073.2 162.252C1073.47 160.69 1073.73 159.273 1073.99 158.058L1082.67 117.34H1063.48L1068.71 92.7901H1087.76L1097.93 45.6245H1125.98L1115.76 92.7901H1149.74L1144.52 117.34H1110.43L1101.65 159.018C1101.63 159.109 1101.61 159.194 1101.6 159.279V159.312L1101.59 159.325C1101.57 159.423 1101.56 159.515 1101.54 159.612H1101.53L1101.52 159.704C1100.37 165.564 1099.48 170.836 1099.48 175.186C1099.48 179.217 1100.31 182.32 1101.76 184.378C1103.18 186.39 1105.25 187.513 1108.06 187.513C1111.27 187.513 1114.19 186.351 1117.47 183.992C1120.76 181.614 1124.33 178.08 1128.82 173.429C1129.17 173.031 1131.37 170.333 1133.75 167.406L1135.67 165.054L1155.44 178.244Z" fill="white"/>
<path fill-rule="evenodd" clip-rule="evenodd" d="M490.115 90.3405C470.32 90.3405 453.713 100.277 442.089 114.844C430.472 129.399 423.779 148.618 423.779 167.36C423.779 188.323 433.55 204.825 451.048 211.077C455.985 212.847 461.51 213.781 467.57 213.781C473.631 213.781 479.491 212.834 484.951 211.09C514.808 201.559 533.913 168.353 533.913 136.52C533.913 123.2 529.898 111.643 522.366 103.406C514.821 95.1615 503.843 90.3405 490.115 90.3405ZM470.481 188.003C463.756 188.003 459.135 185.56 456.159 181.686C453.152 177.76 451.732 172.234 451.732 165.897C451.732 154.262 455.72 141.759 462.2 132.175C468.7 122.579 477.548 116.118 487.21 116.118C493.942 116.118 498.563 118.561 501.532 122.442C504.54 126.368 505.96 131.901 505.96 138.238C505.96 149.99 501.971 162.493 495.491 172.038C488.998 181.601 480.143 188.003 470.481 188.003Z" fill="white"/>
<path d="M127.287 52.3989C151.391 52.3989 170.93 40.89 170.93 26.693C170.93 12.496 151.391 0.987061 127.287 0.987061C103.184 0.987061 83.644 12.496 83.644 26.693C83.644 40.89 103.184 52.3989 127.287 52.3989Z" fill="#FF2670"/>
<path d="M127.287 245.987C151.391 245.987 170.93 234.478 170.93 220.281C170.93 206.084 151.391 194.575 127.287 194.575C103.184 194.575 83.644 206.084 83.644 220.281C83.644 234.478 103.184 245.987 127.287 245.987Z" fill="#FF2670"/>
<path d="M66.4582 87.9402C78.5099 66.8123 78.435 43.9317 66.2908 36.835C54.1466 29.7383 34.5319 41.1129 22.4802 62.2408C10.4285 83.3688 10.5035 106.249 22.6477 113.346C34.7919 120.443 54.4065 109.068 66.4582 87.9402Z" fill="#FF2670"/>
<path d="M232.112 184.734C244.164 163.606 244.086 140.724 231.939 133.626C219.792 126.527 200.175 137.9 188.123 159.028C176.071 180.156 176.149 203.038 188.296 210.137C200.443 217.235 220.06 205.862 232.112 184.734Z" fill="#FF2670"/>
<path d="M66.2915 210.143C78.4388 203.045 78.5162 180.163 66.4645 159.035C54.4128 137.907 34.7957 126.534 22.6484 133.632C10.5011 140.731 10.4236 163.613 22.4754 184.741C34.5271 205.869 54.1442 217.242 66.2915 210.143Z" fill="#FF2670"/>
<path d="M231.935 113.341C244.082 106.243 244.16 83.3607 232.108 62.2327C220.056 41.1048 200.439 29.7316 188.292 36.8301C176.145 43.9286 176.067 66.8107 188.119 87.9386C200.171 109.067 219.788 120.44 231.935 113.341Z" fill="#FF2670"/>
</svg>
