<svg width="113" height="41" viewBox="0 0 113 41" fill="none" xmlns="http://www.w3.org/2000/svg">
<g clip-path="url(#clip0_1318_10948)">
<path fill-rule="evenodd" clip-rule="evenodd" d="M30.775 30.4531L22.8946 18.5787H23.1102C25.9844 18.5787 28.3126 16.2495 28.3126 13.3747V11.9059V7.68121V6.07947C28.3126 3.26068 26.0275 0.980469 23.218 0.980469H19.0719H1.80487C1.48152 0.980469 1.22284 1.23927 1.22284 1.56101V7.73717C1.22284 8.05892 1.48152 8.31771 1.80487 8.31771H18.497C18.8204 8.31771 19.0791 8.57651 19.0791 8.89826V11.3323C19.0791 11.6541 18.8204 11.9129 18.497 11.9129H1.7402C1.45278 11.9129 1.22284 12.1437 1.22284 12.4305L1.22282 30.4531V30.4536V34.7233C0.801821 34.8673 0.5 35.2577 0.5 35.7167C0.5 36.298 0.984145 36.7693 1.58137 36.7693C2.17859 36.7693 2.66274 36.298 2.66274 35.7167C2.66274 35.2591 2.36273 34.8696 1.94373 34.7246V30.4536H5.54916V38.9342C5.12816 39.0782 4.82634 39.4686 4.82634 39.9276C4.82634 40.509 5.31049 40.9802 5.90771 40.9802C6.50493 40.9802 6.98908 40.509 6.98908 39.9276C6.98908 39.47 6.68908 39.0806 6.27007 38.9356V30.4536H9.87132V34.7234C9.45041 34.8674 9.14867 35.2577 9.14867 35.7167C9.14867 36.298 9.63281 36.7693 10.23 36.7693C10.8273 36.7693 11.3114 36.298 11.3114 35.7167C11.3114 35.259 11.0113 34.8695 10.5922 34.7246V30.4531H10.5898V18.6324L12.1881 18.5857C12.3821 18.5857 12.5617 18.6836 12.6695 18.8445L19.9616 30.4536H19.9689V34.7233C19.5479 34.8673 19.2461 35.2577 19.2461 35.7167C19.2461 36.298 19.7302 36.7693 20.3275 36.7693C20.9247 36.7693 21.4088 36.298 21.4088 35.7167C21.4088 35.2591 21.1088 34.8696 20.6898 34.7246V30.4536H25.014V38.9342C24.5929 39.0782 24.2911 39.4686 24.2911 39.9276C24.2911 40.509 24.7752 40.9802 25.3725 40.9802C25.9697 40.9802 26.4538 40.509 26.4538 39.9276C26.4538 39.47 26.1539 39.0806 25.7349 38.9356V30.4536H30.0588V34.7233C29.6378 34.8673 29.3359 35.2577 29.3359 35.7167C29.3359 36.298 29.8201 36.7693 30.4173 36.7693C31.0145 36.7693 31.4987 36.298 31.4987 35.7167C31.4987 35.2591 31.1987 34.8696 30.7797 34.7246V30.4531H30.775Z" fill="#FAFAFA"/>
</g>
<path d="M48.836 11.4445H45.92V9.86047H53.684V11.4445H50.78V18.9805H48.836V11.4445ZM54.6896 9.86047H56.6216V13.4965H60.8696V9.86047H62.8016V18.9805H60.8696V15.0565H56.6216V18.9805H54.6896V9.86047ZM64.4518 9.86047H70.5238V11.3605H66.2518V13.5925H70.0438V15.0925H66.2518V17.4805H70.7038V18.9805H64.4518V9.86047ZM74.1792 9.86047H77.2273C77.9313 9.86047 78.5353 9.98047 79.0393 10.2205C79.5513 10.4605 79.9433 10.8045 80.2153 11.2525C80.4953 11.6925 80.6353 12.2205 80.6353 12.8365C80.6353 13.3885 80.4953 13.8765 80.2153 14.3005C79.9433 14.7165 79.5953 15.0525 79.1712 15.3085L81.5353 18.9805H79.3872L77.5153 15.7885C77.4753 15.7885 77.4313 15.7885 77.3832 15.7885H76.0153V18.9805H74.1792V9.86047ZM76.9273 14.3485C78.1433 14.3485 78.7513 13.8405 78.7513 12.8245C78.7513 11.8165 78.1593 11.3125 76.9753 11.3125H76.0153V14.3485H76.9273ZM82.0985 16.3165C81.8585 15.7325 81.7385 15.1005 81.7385 14.4205C81.7385 13.7485 81.8585 13.1245 82.0985 12.5485C82.3465 11.9725 82.6905 11.4685 83.1305 11.0365C83.5785 10.6045 84.0945 10.2685 84.6785 10.0285C85.2705 9.78847 85.9065 9.66847 86.5865 9.66847C87.2825 9.66847 87.9225 9.78847 88.5065 10.0285C89.0985 10.2605 89.6145 10.5925 90.0545 11.0245C90.4945 11.4485 90.8345 11.9485 91.0745 12.5245C91.3145 13.1005 91.4345 13.7325 91.4345 14.4205C91.4345 15.0925 91.3105 15.7165 91.0625 16.2925C90.8225 16.8685 90.4785 17.3725 90.0305 17.8045C89.5905 18.2365 89.0785 18.5725 88.4945 18.8125C87.9105 19.0525 87.2745 19.1725 86.5865 19.1725C85.8905 19.1725 85.2465 19.0565 84.6545 18.8245C84.0625 18.5845 83.5465 18.2525 83.1065 17.8285C82.6745 17.3965 82.3385 16.8925 82.0985 16.3165ZM89.4305 14.4205C89.4305 13.8285 89.3065 13.3045 89.0585 12.8485C88.8185 12.3925 88.4825 12.0365 88.0505 11.7805C87.6265 11.5165 87.1385 11.3845 86.5865 11.3845C86.0345 11.3845 85.5425 11.5165 85.1105 11.7805C84.6865 12.0365 84.3505 12.3925 84.1025 12.8485C83.8625 13.3045 83.7425 13.8285 83.7425 14.4205C83.7425 15.0045 83.8625 15.5285 84.1025 15.9925C84.3505 16.4485 84.6865 16.8085 85.1105 17.0725C85.5425 17.3285 86.0345 17.4565 86.5865 17.4565C87.1385 17.4565 87.6265 17.3285 88.0505 17.0725C88.4825 16.8085 88.8185 16.4485 89.0585 15.9925C89.3065 15.5365 89.4305 15.0125 89.4305 14.4205ZM92.5287 16.3165C92.2887 15.7325 92.1687 15.1005 92.1687 14.4205C92.1687 13.7485 92.2887 13.1245 92.5287 12.5485C92.7767 11.9725 93.1207 11.4685 93.5607 11.0365C94.0087 10.6045 94.5247 10.2685 95.1087 10.0285C95.7007 9.78847 96.3367 9.66847 97.0167 9.66847C97.7127 9.66847 98.3527 9.78847 98.9367 10.0285C99.5287 10.2605 100.045 10.5925 100.485 11.0245C100.925 11.4485 101.265 11.9485 101.505 12.5245C101.745 13.1005 101.865 13.7325 101.865 14.4205C101.865 15.0925 101.741 15.7165 101.493 16.2925C101.253 16.8685 100.909 17.3725 100.461 17.8045C100.021 18.2365 99.5087 18.5725 98.9247 18.8125C98.3407 19.0525 97.7047 19.1725 97.0167 19.1725C96.3207 19.1725 95.6767 19.0565 95.0847 18.8245C94.4927 18.5845 93.9767 18.2525 93.5367 17.8285C93.1047 17.3965 92.7687 16.8925 92.5287 16.3165ZM99.8607 14.4205C99.8607 13.8285 99.7367 13.3045 99.4887 12.8485C99.2487 12.3925 98.9127 12.0365 98.4807 11.7805C98.0567 11.5165 97.5687 11.3845 97.0167 11.3845C96.4647 11.3845 95.9727 11.5165 95.5407 11.7805C95.1167 12.0365 94.7807 12.3925 94.5327 12.8485C94.2927 13.3045 94.1727 13.8285 94.1727 14.4205C94.1727 15.0045 94.2927 15.5285 94.5327 15.9925C94.7807 16.4485 95.1167 16.8085 95.5407 17.0725C95.9727 17.3285 96.4647 17.4565 97.0167 17.4565C97.5687 17.4565 98.0567 17.3285 98.4807 17.0725C98.9127 16.8085 99.2487 16.4485 99.4887 15.9925C99.7367 15.5365 99.8607 15.0125 99.8607 14.4205ZM104.902 11.4445H101.986V9.86047H109.75V11.4445H106.846V18.9805H104.902V11.4445ZM46.568 22.8605H48.26L52.904 29.1605V22.8605H54.656V31.9805H52.964L48.332 25.7045V31.9805H46.568V22.8605ZM56.3068 22.8605H62.3788V24.3605H58.1068V26.5925H61.8988V28.0925H58.1068V30.4805H62.5588V31.9805H56.3068V22.8605ZM66.0518 24.4445H63.1358V22.8605H70.8998V24.4445H67.9958V31.9805H66.0518V24.4445ZM71.418 22.8605H73.446L75.138 29.6645L77.07 22.9805H78.786L80.73 29.5805L82.398 22.8605H84.402L81.678 31.9805H79.842L77.886 25.4285L75.99 31.9805H74.142L71.418 22.8605ZM84.7113 29.3165C84.4713 28.7325 84.3513 28.1005 84.3513 27.4205C84.3513 26.7485 84.4713 26.1245 84.7113 25.5485C84.9593 24.9725 85.3033 24.4685 85.7433 24.0365C86.1913 23.6045 86.7073 23.2685 87.2913 23.0285C87.8833 22.7885 88.5193 22.6685 89.1993 22.6685C89.8953 22.6685 90.5353 22.7885 91.1193 23.0285C91.7113 23.2605 92.2273 23.5925 92.6673 24.0245C93.1073 24.4485 93.4473 24.9485 93.6873 25.5245C93.9273 26.1005 94.0473 26.7325 94.0473 27.4205C94.0473 28.0925 93.9233 28.7165 93.6753 29.2925C93.4353 29.8685 93.0913 30.3725 92.6433 30.8045C92.2033 31.2365 91.6913 31.5725 91.1073 31.8125C90.5233 32.0525 89.8873 32.1725 89.1993 32.1725C88.5033 32.1725 87.8593 32.0565 87.2673 31.8245C86.6753 31.5845 86.1593 31.2525 85.7193 30.8285C85.2873 30.3965 84.9513 29.8925 84.7113 29.3165ZM92.0433 27.4205C92.0433 26.8285 91.9193 26.3045 91.6713 25.8485C91.4313 25.3925 91.0953 25.0365 90.6633 24.7805C90.2393 24.5165 89.7513 24.3845 89.1993 24.3845C88.6473 24.3845 88.1553 24.5165 87.7233 24.7805C87.2993 25.0365 86.9633 25.3925 86.7153 25.8485C86.4753 26.3045 86.3553 26.8285 86.3553 27.4205C86.3553 28.0045 86.4753 28.5285 86.7153 28.9925C86.9633 29.4485 87.2993 29.8085 87.7233 30.0725C88.1553 30.3285 88.6473 30.4565 89.1993 30.4565C89.7513 30.4565 90.2393 30.3285 90.6633 30.0725C91.0953 29.8085 91.4313 29.4485 91.6713 28.9925C91.9193 28.5365 92.0433 28.0125 92.0433 27.4205ZM95.2149 22.8605H98.2629C98.9669 22.8605 99.5709 22.9805 100.075 23.2205C100.587 23.4605 100.979 23.8045 101.251 24.2525C101.531 24.6925 101.671 25.2205 101.671 25.8365C101.671 26.3885 101.531 26.8765 101.251 27.3005C100.979 27.7165 100.631 28.0525 100.207 28.3085L102.571 31.9805H100.423L98.5509 28.7885C98.5109 28.7885 98.4669 28.7885 98.4189 28.7885H97.0509V31.9805H95.2149V22.8605ZM97.9629 27.3485C99.1789 27.3485 99.7869 26.8405 99.7869 25.8245C99.7869 24.8165 99.1949 24.3125 98.0109 24.3125H97.0509V27.3485H97.9629ZM103.5 22.8605H105.408V26.7605L109.008 22.8605H111.372L107.196 27.2165L111.78 31.9805H109.212L105.408 27.8645V31.9805H103.5V22.8605Z" fill="white"/>
<defs>
<clipPath id="clip0_1318_10948">
<rect width="31" height="40" fill="white" transform="translate(0.5 0.980469)"/>
</clipPath>
</defs>
</svg>
