<svg width="1067" height="329" viewBox="0 0 1067 329" fill="none" xmlns="http://www.w3.org/2000/svg">
<path fill-rule="evenodd" clip-rule="evenodd" d="M199.567 121.351C199.66 121.351 201.217 121.365 201.217 121.365C206.666 121.365 211.695 118.117 215.738 111.648C217.355 109.222 228.675 88.1999 229.753 85.7742C235.144 72.8373 223.824 65.0212 215.199 65.0212C213.582 65.0212 170.728 65.0212 168.842 65.0212C165.608 65.0212 151.054 63.9432 143.777 77.1496C137.847 88.7389 117.903 122.429 113.59 130.245C105.774 145.338 113.051 159.353 125.449 166.9C133.535 172.29 145.394 180.106 157.522 188.192C157.522 188.192 152.132 194.93 145.663 190.617C144.046 189.539 116.286 171.481 114.668 170.403C108.739 166.63 95.5326 163.126 87.1775 174.177C86.3689 175.255 76.1272 191.965 73.1625 196.277C63.1903 211.64 63.4598 227.002 75.0491 236.166C77.7443 238.592 88.7946 249.642 91.2203 252.068C100.653 261.501 100.923 262.579 115.207 262.848C115.477 262.848 157.253 262.848 157.522 262.848C165.877 263.118 170.189 261.501 174.771 256.38C188.786 231.854 225.171 161.779 227.867 157.197C231.909 150.728 229.484 144.26 224.632 141.295C222.746 139.948 217.625 136.444 215.738 135.096C208.731 129.975 209.27 130.245 199.298 130.245C198.758 130.245 191.481 130.245 188.517 130.245C186.9 130.245 183.665 130.514 180.431 127.55C178.814 125.933 178.005 123.776 177.736 121.351C187.439 121.351 189.864 121.351 199.567 121.351Z" fill="#FBFFEA"/>
<path fill-rule="evenodd" clip-rule="evenodd" d="M232.719 135.089C225.981 131.046 221.129 121.074 226.25 111.641C228.676 106.52 237.031 91.1576 242.691 81.1853C249.159 70.1351 252.124 65.5532 267.487 65.5532C268.295 65.5532 314.114 65.5532 314.383 65.5532C331.632 65.5532 332.171 77.9511 332.171 82.8025C332.171 84.9586 332.171 125.926 332.171 128.351C332.171 137.245 320.043 146.948 305.489 135.628C304.68 135.089 294.978 127.812 288.509 122.961C286.623 121.613 278.807 115.414 277.728 114.606C276.92 113.797 273.147 123.769 281.502 129.699C285.005 132.394 293.091 138.862 296.595 141.558C305.758 147.757 305.489 159.615 297.403 165.275C294.708 167.432 287.701 171.744 284.197 173.9C272.877 180.099 276.92 190.341 277.189 190.071C279.346 188.184 307.645 170.935 310.61 168.51C319.234 162.311 332.98 165.814 332.441 177.673C332.441 178.482 332.441 239.393 332.441 240.202C332.98 255.025 327.859 262.841 311.957 263.38C310.34 263.65 208.731 263.38 206.845 263.38C192.021 263.38 187.979 248.557 194.986 236.698C210.349 211.902 234.066 163.119 238.648 154.764C241.613 149.374 244.308 142.097 236.492 137.515C228.676 132.664 242.421 141.019 232.719 135.089Z" fill="#FBFFEA"/>
<path fill-rule="evenodd" clip-rule="evenodd" d="M341.336 246.667C341.066 245.05 341.066 80.643 341.066 79.565C341.605 71.4794 346.996 65.2804 358.316 65.55C358.855 65.55 380.686 65.55 381.225 65.55C390.927 66.089 398.205 72.0184 403.864 82.5297C407.638 89.8067 479.33 228.07 485.798 238.851C492.536 250.44 486.068 263.377 475.287 263.377C469.088 263.377 439.441 263.377 432.164 263.108C423.27 262.838 419.227 256.37 418.418 250.71C418.149 248.554 417.34 240.738 416.801 237.234C416.262 233.46 417.34 227.262 422.192 224.836C427.852 221.871 435.129 220.254 438.363 218.367C442.675 215.942 441.597 211.629 441.597 211.629C438.093 211.629 374.217 211.629 374.217 211.629C374.217 211.629 373.409 216.75 377.452 218.098C378.53 218.367 390.658 221.871 397.396 224.297C406.29 227.801 406.829 232.382 407.907 236.695C408.177 238.042 409.255 249.901 409.255 251.518C409.794 257.178 407.099 262.838 397.665 263.108C386.346 263.108 369.366 263.108 360.472 263.108C349.961 263.108 341.605 257.178 341.336 246.667Z" fill="#FBFFEA"/>
<path fill-rule="evenodd" clip-rule="evenodd" d="M414.101 82.8107C422.187 98.7124 485.793 218.379 493.34 233.472L494.418 235.898V236.437C496.574 239.94 501.156 251.26 506.007 256.381C510.589 261.502 514.901 263.119 523.256 262.85C523.256 262.85 562.067 262.85 562.337 262.85C576.621 262.58 576.891 261.502 586.324 252.069C588.749 249.643 599.8 238.593 602.764 236.167C614.084 227.004 614.354 211.641 604.382 196.278C601.417 191.966 591.175 175.256 590.367 174.178C582.011 163.127 569.075 166.631 562.876 170.405C562.067 170.944 555.868 174.986 549.13 179.299L547.513 180.377C542.931 183.072 538.349 182.533 536.463 180.916C534.576 179.568 533.229 177.412 532.689 172.83C529.994 155.581 521.909 116.501 518.135 90.3573C515.171 68.2567 500.347 65.292 491.992 65.292C487.141 65.5615 427.846 65.5615 423.804 65.5615C415.179 65.831 409.25 74.7252 414.101 82.8107Z" fill="#FBFFEA"/>
<path d="M553.718 128.402C556.413 128.402 559.108 128.941 561.804 130.558C564.499 131.906 566.655 134.062 568.272 136.757C569.62 139.453 570.428 142.148 570.428 145.113C570.428 148.077 569.62 150.772 568.272 153.468C566.655 156.163 564.768 158.319 562.073 159.667C559.378 161.284 556.413 161.823 553.718 161.823C550.753 161.823 548.058 161.284 545.363 159.667C542.668 158.319 540.512 156.163 539.164 153.468C537.547 150.772 536.738 148.077 536.738 145.113C536.738 142.148 537.547 139.453 539.164 136.757C540.512 134.062 542.668 131.906 545.363 130.558C548.058 128.941 550.753 128.402 553.718 128.402ZM553.718 131.098C551.292 131.098 548.867 131.637 546.71 132.984C544.554 134.062 542.668 135.949 541.59 138.105C540.242 140.261 539.703 142.687 539.703 145.113C539.703 147.538 540.242 149.964 541.59 152.12C542.668 154.276 544.554 155.893 546.71 157.241C548.867 158.589 551.292 159.128 553.718 159.128C556.144 159.128 558.3 158.589 560.456 157.241C562.882 155.893 564.499 154.276 565.846 152.12C566.924 149.964 567.733 147.538 567.733 145.113C567.733 142.687 566.924 140.261 565.846 138.105C564.499 135.949 562.612 134.062 560.456 132.984C558.3 131.637 555.874 131.098 553.718 131.098ZM546.171 154.276V136.488H552.37C554.527 136.488 556.144 136.488 556.952 136.757C558.03 137.296 558.839 137.836 559.378 138.644C559.917 139.453 560.186 140.261 560.186 141.339C560.186 142.687 559.647 143.765 558.839 144.573C557.761 145.652 556.683 146.191 555.066 146.46C555.605 146.46 556.144 146.999 556.683 147.269C557.222 148.077 558.3 149.155 559.108 150.772L561.534 154.276H557.761L556.144 151.581C555.066 149.425 553.988 147.808 553.179 147.269C552.64 146.999 551.831 146.73 551.023 146.73H549.136V154.276H546.171ZM549.136 144.304H552.64C554.527 144.304 555.605 144.034 556.144 143.495C556.683 142.956 557.222 142.417 557.222 141.609C557.222 141.07 556.952 140.531 556.683 139.992C556.413 139.722 555.874 139.453 555.335 139.183C554.796 138.914 553.988 138.914 552.37 138.914H549.136V144.304Z" fill="#FBFFEA"/>
<path fill-rule="evenodd" clip-rule="evenodd" d="M654.503 206.555L712.648 259.83C710.356 259.83 646.197 259.83 644.192 259.83C631.016 259.544 619.845 242.358 633.594 227.75C639.323 221.735 651.639 209.705 654.503 206.555Z" fill="#FBFFEA" stroke="#0F0F0F" stroke-width="5.63833" stroke-linecap="round" stroke-linejoin="round"/>
<path fill-rule="evenodd" clip-rule="evenodd" d="M716.778 259.819C677.251 260.678 655.196 238.05 652.904 209.121C649.467 161.861 671.522 132.072 718.783 112.309C758.023 96.2688 780.651 66.1939 830.776 65.0482C905.819 63.3297 931.311 107.439 969.12 211.699C970.266 214.85 984.582 222.386 993.753 230.317C1007.72 242.395 999.762 260.392 984.582 260.392C974.843 260.392 726.802 259.819 716.778 259.819Z" fill="#FBFFEA" stroke="#0F0F0F" stroke-width="5.63833" stroke-linecap="round" stroke-linejoin="round"/>
<path d="M681.428 224.291C696.036 224.577 700.618 209.97 700.905 199.085C699.759 230.879 734.13 232.597 745.874 205.96" stroke="#0F0F0F" stroke-width="5.63833" stroke-linecap="round" stroke-linejoin="round"/>
<path fill-rule="evenodd" clip-rule="evenodd" d="M700.602 199.666C699.17 199.093 694.873 195.942 693.155 193.937C683.13 182.194 709.195 179.616 712.918 187.35C715.21 191.359 712.059 194.224 709.767 195.656C704.898 198.807 700.602 199.666 700.602 199.666Z" fill="#0F0F0F" stroke="#0F0F0F" stroke-width="5.63833" stroke-linecap="round" stroke-linejoin="round"/>
<path fill-rule="evenodd" clip-rule="evenodd" d="M695.477 145.831C702.065 145.258 706.361 150.987 705.216 158.72C703.784 166.454 697.196 173.042 690.321 173.901C683.734 174.474 679.437 168.745 680.869 161.012C682.302 153.278 688.889 146.404 695.477 145.831Z" fill="#0F0F0F" stroke="#0F0F0F" stroke-width="5.63833" stroke-linecap="round" stroke-linejoin="round"/>
<path fill-rule="evenodd" clip-rule="evenodd" d="M736.137 145.831C743.011 145.258 747.307 150.987 745.875 158.72C744.443 166.454 737.855 173.042 731.267 173.901C724.393 174.474 720.097 168.745 721.529 161.012C722.961 153.278 729.549 146.404 736.137 145.831Z" fill="#0F0F0F" stroke="#0F0F0F" stroke-width="5.63833" stroke-linecap="round" stroke-linejoin="round"/>
<path fill-rule="evenodd" clip-rule="evenodd" d="M749.012 151.835C749.012 147.825 751.303 156.99 751.303 159.568C751.303 162.146 749.584 168.734 747.293 169.307C745.288 169.88 740.419 175.895 742.424 172.744C744.429 169.307 740.705 166.442 738.414 164.437C735.263 162.146 735.263 158.709 739.273 157.563C742.71 156.417 748.725 156.417 749.012 151.835Z" fill="#FBFFEA"/>
<path fill-rule="evenodd" clip-rule="evenodd" d="M708.353 151.835C708.353 147.825 710.644 156.99 710.644 159.568C710.644 162.146 708.639 168.734 706.634 169.307C704.629 169.88 699.76 175.895 701.765 172.744C703.77 169.307 700.046 166.442 697.468 164.437C694.604 162.146 694.604 158.709 698.614 157.563C702.051 156.417 708.066 156.417 708.353 151.835Z" fill="#FBFFEA"/>
<path d="M835.246 194.22C840.402 198.516 847.849 206.823 851.859 210.832C867.039 226.013 873.627 240.334 864.748 251.219C858.733 258.379 843.552 259.812 822.93 260.098" stroke="#0F0F0F" stroke-width="5.63833" stroke-linecap="round" stroke-linejoin="round"/>
<path fill-rule="evenodd" clip-rule="evenodd" d="M684.576 224.018C694.601 223.158 698.038 217.143 698.898 212.274C698.898 211.701 700.043 214.279 701.189 215.711C703.48 218.575 704.34 223.445 719.52 224.59L684.576 224.018Z" fill="#0F0F0F" stroke="#0F0F0F" stroke-width="5.63833" stroke-linecap="round" stroke-linejoin="round"/>
<path fill-rule="evenodd" clip-rule="evenodd" d="M852.4 258.672C862.425 257.526 876.174 248.647 864.43 226.019C863.857 224.587 859.275 219.145 859.275 219.145C859.847 219.145 899.088 259.245 899.088 259.245L852.4 258.672Z" fill="#0F0F0F" stroke="#0F0F0F" stroke-width="5.63833" stroke-linecap="round" stroke-linejoin="round"/>
<path fill-rule="evenodd" clip-rule="evenodd" d="M698.345 259.24C683.451 255.23 673.999 249.216 662.828 234.608C658.818 229.452 652.803 220.573 653.09 213.985C653.09 213.699 652.517 212.266 652.23 211.98C657.959 235.753 662.542 247.497 652.23 259.24H698.345Z" fill="#0F0F0F" stroke="#0F0F0F" stroke-width="5.63833" stroke-linecap="round" stroke-linejoin="round"/>
<path fill-rule="evenodd" clip-rule="evenodd" d="M749.885 97.9863L714.368 115.458C713.508 115.745 724.965 112.308 738.714 112.308C751.89 112.308 775.949 112.308 775.949 112.308C768.502 111.735 752.462 108.011 749.885 97.9863Z" fill="#0F0F0F" stroke="#0F0F0F" stroke-width="5.63833" stroke-linecap="round" stroke-linejoin="round"/>
<path d="M967.865 202.548L979.322 242.361" stroke="#0F0F0F" stroke-width="5.63833" stroke-linecap="round" stroke-linejoin="round"/>
<path fill-rule="evenodd" clip-rule="evenodd" d="M972.426 214.84L978.727 239.473C975.576 231.74 978.727 226.297 983.31 222.574C984.169 221.715 973.571 215.127 972.426 214.84Z" fill="#0F0F0F" stroke="#0F0F0F" stroke-width="5.63833" stroke-linecap="round" stroke-linejoin="round"/>
<path d="M729.265 133.2L725.828 131.482" stroke="#0F0F0F" stroke-width="5.63833" stroke-linecap="round" stroke-linejoin="round"/>
<path d="M706.062 133.211L709.213 131.779" stroke="#0F0F0F" stroke-width="5.63833" stroke-linecap="round" stroke-linejoin="round"/>
</svg>
