<svg xmlns="http://www.w3.org/2000/svg" xmlns:xlink="http://www.w3.org/1999/xlink" width="126.929" height="26" viewBox="0 0 126.929 26">
  <defs>
    <clipPath id="clip-path">
      <rect id="Rectangle_69839" data-name="Rectangle 69839" width="26" height="26" transform="translate(26.462 26) rotate(180)" fill="#fff"/>
    </clipPath>
  </defs>
  <g id="swisstronik-" transform="translate(-669 -1025)">
    <path id="Path_8028" data-name="Path 8028" d="M-43.421.14A5.983,5.983,0,0,1-45.7-.252a3.345,3.345,0,0,1-1.435-1.029,2.409,2.409,0,0,1-.511-1.393.281.281,0,0,1,.091-.2.3.3,0,0,1,.217-.091h1.764A.525.525,0,0,1-45.3-2.9a.964.964,0,0,1,.217.189,1.455,1.455,0,0,0,.588.6,2.121,2.121,0,0,0,1.078.238A2.4,2.4,0,0,0-42.2-2.128a.769.769,0,0,0,.42-.686.648.648,0,0,0-.217-.5,1.937,1.937,0,0,0-.679-.35,13.968,13.968,0,0,0-1.372-.35,5.889,5.889,0,0,1-2.513-1.029A2.358,2.358,0,0,1-47.4-6.986a2.575,2.575,0,0,1,.476-1.526,3.119,3.119,0,0,1,1.358-1.05,5.191,5.191,0,0,1,2.058-.378,4.938,4.938,0,0,1,2.114.42,3.484,3.484,0,0,1,1.365,1.057,2.3,2.3,0,0,1,.5,1.253.285.285,0,0,1-.084.21.285.285,0,0,1-.21.084h-1.848a.579.579,0,0,1-.273-.056.536.536,0,0,1-.189-.182.922.922,0,0,0-.455-.546,1.745,1.745,0,0,0-.917-.224,1.74,1.74,0,0,0-.966.224.74.74,0,0,0-.336.658.678.678,0,0,0,.189.49A1.684,1.684,0,0,0-44-6.195a8.821,8.821,0,0,0,1.225.329,8.958,8.958,0,0,1,2.079.6,2.59,2.59,0,0,1,1.141.924,2.581,2.581,0,0,1,.364,1.421A2.579,2.579,0,0,1-39.732-1.3a3.4,3.4,0,0,1-1.5,1.064A6.041,6.041,0,0,1-43.421.14ZM-36.337,0a.526.526,0,0,1-.378-.133.547.547,0,0,1-.168-.329l-1.526-8.946a.31.31,0,0,1-.014-.1.281.281,0,0,1,.091-.2.281.281,0,0,1,.2-.091h1.736q.392,0,.434.308l.91,5.46,1.008-3.22q.154-.378.462-.378h1.008a.457.457,0,0,1,.462.378l1.008,3.22.91-5.46q.042-.308.434-.308h1.736a.3.3,0,0,1,.217.091.281.281,0,0,1,.091.2l-.014.1L-29.253-.462a.532.532,0,0,1-.175.329A.532.532,0,0,1-29.8,0h-1.33a.509.509,0,0,1-.35-.112.669.669,0,0,1-.182-.252l-1.414-4-1.414,4A.5.5,0,0,1-35.007,0Zm10.416,0a.336.336,0,0,1-.245-.1.336.336,0,0,1-.1-.245v-9.1a.329.329,0,0,1,.1-.252.348.348,0,0,1,.245-.1h1.876a.365.365,0,0,1,.259.1.329.329,0,0,1,.1.252v9.1a.329.329,0,0,1-.1.252.365.365,0,0,1-.259.1Zm7.84.14a5.983,5.983,0,0,1-2.282-.392A3.345,3.345,0,0,1-21.8-1.281a2.409,2.409,0,0,1-.511-1.393.281.281,0,0,1,.091-.2A.3.3,0,0,1-22-2.968h1.764a.525.525,0,0,1,.273.063.964.964,0,0,1,.217.189,1.455,1.455,0,0,0,.588.6,2.121,2.121,0,0,0,1.078.238,2.4,2.4,0,0,0,1.218-.252.769.769,0,0,0,.42-.686.648.648,0,0,0-.217-.5,1.937,1.937,0,0,0-.679-.35,13.969,13.969,0,0,0-1.372-.35,5.889,5.889,0,0,1-2.513-1.029,2.358,2.358,0,0,1-.833-1.939,2.575,2.575,0,0,1,.476-1.526,3.119,3.119,0,0,1,1.358-1.05,5.191,5.191,0,0,1,2.058-.378,4.938,4.938,0,0,1,2.114.42,3.484,3.484,0,0,1,1.365,1.057,2.3,2.3,0,0,1,.5,1.253.285.285,0,0,1-.084.21.285.285,0,0,1-.21.084h-1.848a.579.579,0,0,1-.273-.056.536.536,0,0,1-.189-.182.922.922,0,0,0-.455-.546,1.745,1.745,0,0,0-.917-.224,1.74,1.74,0,0,0-.966.224.74.74,0,0,0-.336.658.678.678,0,0,0,.189.49,1.684,1.684,0,0,0,.616.357,8.822,8.822,0,0,0,1.225.329,8.958,8.958,0,0,1,2.079.6,2.59,2.59,0,0,1,1.141.924,2.581,2.581,0,0,1,.364,1.421A2.579,2.579,0,0,1-14.392-1.3a3.4,3.4,0,0,1-1.5,1.064A6.041,6.041,0,0,1-18.081.14ZM-8.8.14a5.983,5.983,0,0,1-2.282-.392,3.345,3.345,0,0,1-1.435-1.029,2.409,2.409,0,0,1-.511-1.393.281.281,0,0,1,.091-.2.3.3,0,0,1,.217-.091h1.764a.525.525,0,0,1,.273.063.964.964,0,0,1,.217.189,1.455,1.455,0,0,0,.588.6A2.121,2.121,0,0,0-8.8-1.876a2.4,2.4,0,0,0,1.218-.252.769.769,0,0,0,.42-.686.648.648,0,0,0-.217-.5,1.937,1.937,0,0,0-.679-.35,13.969,13.969,0,0,0-1.372-.35,5.889,5.889,0,0,1-2.513-1.029,2.358,2.358,0,0,1-.833-1.939A2.575,2.575,0,0,1-12.3-8.512a3.119,3.119,0,0,1,1.358-1.05A5.191,5.191,0,0,1-8.883-9.94a4.938,4.938,0,0,1,2.114.42A3.484,3.484,0,0,1-5.4-8.463a2.3,2.3,0,0,1,.5,1.253A.285.285,0,0,1-4.991-7a.285.285,0,0,1-.21.084H-7.049a.579.579,0,0,1-.273-.056.536.536,0,0,1-.189-.182A.922.922,0,0,0-7.966-7.7a1.745,1.745,0,0,0-.917-.224,1.74,1.74,0,0,0-.966.224.74.74,0,0,0-.336.658.678.678,0,0,0,.189.49,1.684,1.684,0,0,0,.616.357,8.822,8.822,0,0,0,1.225.329,8.958,8.958,0,0,1,2.079.6,2.59,2.59,0,0,1,1.141.924,2.581,2.581,0,0,1,.364,1.421A2.579,2.579,0,0,1-5.11-1.3a3.4,3.4,0,0,1-1.5,1.064A6.041,6.041,0,0,1-8.8.14ZM-.763,0a.336.336,0,0,1-.245-.1.336.336,0,0,1-.1-.245V-7.6H-3.605a.336.336,0,0,1-.245-.105.336.336,0,0,1-.105-.245v-1.5A.329.329,0,0,1-3.85-9.7a.348.348,0,0,1,.245-.1H3.927a.341.341,0,0,1,.252.1.341.341,0,0,1,.1.252v1.5a.341.341,0,0,1-.1.252.341.341,0,0,1-.252.1H1.435V-.35a.348.348,0,0,1-.1.245.329.329,0,0,1-.252.1ZM5.9,0a.336.336,0,0,1-.245-.1A.336.336,0,0,1,5.551-.35v-9.1A.329.329,0,0,1,5.656-9.7.348.348,0,0,1,5.9-9.8H9.709a4.433,4.433,0,0,1,2.863.833A2.862,2.862,0,0,1,13.6-6.608a2.913,2.913,0,0,1-.462,1.666,2.951,2.951,0,0,1-1.274,1.05L13.783-.448a.348.348,0,0,1,.042.154.281.281,0,0,1-.091.2.281.281,0,0,1-.2.091H11.669a.585.585,0,0,1-.574-.378L9.5-3.458H8.071V-.35A.329.329,0,0,1,7.966-.1a.365.365,0,0,1-.259.1Zm3.78-5.446a1.382,1.382,0,0,0,.98-.315A1.141,1.141,0,0,0,11-6.636a1.2,1.2,0,0,0-.329-.889,1.341,1.341,0,0,0-.987-.329H8.071v2.408ZM19.187.14a4.64,4.64,0,0,1-3.108-.966,3.72,3.72,0,0,1-1.2-2.842q-.014-.406-.014-1.2t.014-1.218A3.768,3.768,0,0,1,16.1-8.939a4.549,4.549,0,0,1,3.087-1,4.576,4.576,0,0,1,3.094,1A3.715,3.715,0,0,1,23.5-6.09q.028.812.028,1.218t-.028,1.2a3.72,3.72,0,0,1-1.2,2.842A4.64,4.64,0,0,1,19.187.14Zm0-2.016a1.641,1.641,0,0,0,1.225-.462,2.033,2.033,0,0,0,.483-1.414q.028-.812.028-1.148,0-.364-.028-1.148a2.013,2.013,0,0,0-.49-1.414,1.647,1.647,0,0,0-1.218-.462,1.623,1.623,0,0,0-1.211.462,2.081,2.081,0,0,0-.5,1.414q-.014.392-.014,1.148t.014,1.148a2.1,2.1,0,0,0,.49,1.414A1.618,1.618,0,0,0,19.187-1.876ZM25.5,0a.336.336,0,0,1-.245-.1.336.336,0,0,1-.1-.245v-9.1a.329.329,0,0,1,.1-.252.348.348,0,0,1,.245-.1h1.484a.477.477,0,0,1,.476.266l3.416,5.376V-9.45a.329.329,0,0,1,.105-.252.348.348,0,0,1,.245-.1h1.68a.341.341,0,0,1,.252.1.341.341,0,0,1,.1.252V-.364a.365.365,0,0,1-.1.259.329.329,0,0,1-.252.1h-1.5a.5.5,0,0,1-.462-.266l-3.416-5.18v5.1a.348.348,0,0,1-.1.245.329.329,0,0,1-.252.1ZM35.567,0a.336.336,0,0,1-.245-.1.336.336,0,0,1-.1-.245v-9.1a.329.329,0,0,1,.1-.252.348.348,0,0,1,.245-.1h1.876a.365.365,0,0,1,.259.1.329.329,0,0,1,.1.252v9.1a.329.329,0,0,1-.1.252.365.365,0,0,1-.259.1ZM40.1,0a.336.336,0,0,1-.245-.1.336.336,0,0,1-.1-.245v-9.1a.329.329,0,0,1,.1-.252.348.348,0,0,1,.245-.1h1.764a.341.341,0,0,1,.252.1.341.341,0,0,1,.1.252v3.108l2.59-3.192a.6.6,0,0,1,.546-.266h2.016a.274.274,0,0,1,.21.091.292.292,0,0,1,.084.2.321.321,0,0,1-.042.168L44.261-5.11,47.873-.462a.228.228,0,0,1,.056.168.292.292,0,0,1-.084.2.274.274,0,0,1-.21.091H45.549a.69.69,0,0,1-.56-.28L42.217-3.738V-.35a.341.341,0,0,1-.1.252.341.341,0,0,1-.252.1Z" transform="translate(748 1043)" fill="#fff"/>
    <g id="swisstronik" transform="translate(668.538 1025)" clip-path="url(#clip-path)">
      <path id="Path_8021" data-name="Path 8021" d="M18.305,0H14.682V3.873H11.089V0H7.466V3.873H3.873V7.5H0v3.624H3.873v3.592H0v3.624H3.873v3.592H7.466V25.8h3.624V21.929h3.592V25.8h3.624V21.929h3.624V18.336H25.8V14.713H21.929V11.121H25.8V7.5H21.929V3.873H18.305ZM11.089,7.5h3.592v3.624h3.624v3.592H14.682v3.624H11.089V14.713H7.466V11.121h3.624Z" transform="translate(0 0.393)" fill="#e74e43" fill-rule="evenodd"/>
    </g>
  </g>
</svg>
