<?xml version="1.0" encoding="UTF-8"?> <svg xmlns="http://www.w3.org/2000/svg" width="4072" height="833" viewBox="0 0 4072 833" fill="none"><path d="M1168.39 578.472V534.971L1297.95 347.084H1175.33V280.444H1412.24V325.796L1284.07 511.832H1415.02V578.472H1168.39ZM1565.93 583.1C1540.32 583.1 1517.65 578.935 1497.91 570.605C1478.47 561.967 1463.2 549.162 1452.1 532.195C1441.3 515.227 1435.9 494.247 1435.9 469.257C1435.9 434.393 1445.77 406.627 1465.52 385.957C1485.26 364.977 1514.72 354.488 1553.9 354.488C1589.68 354.488 1617.6 363.588 1637.65 381.792C1658.01 399.995 1668.19 424.83 1668.19 456.299V494.71H1515.95C1519.96 506.434 1527.83 514.764 1539.55 519.7C1551.28 524.635 1567.16 527.104 1587.21 527.104C1599.86 527.104 1612.51 526.023 1625.16 523.865C1638.11 521.396 1648.45 518.619 1656.16 515.535V567.829C1634.57 578.01 1604.49 583.1 1565.93 583.1ZM1515.95 447.506H1593.23V439.639C1593.23 431.001 1590.45 423.905 1584.9 418.351C1579.65 412.798 1570.25 410.021 1556.67 410.021C1541.56 410.021 1530.91 413.261 1524.74 419.74C1518.88 425.911 1515.95 435.166 1515.95 447.506ZM1706.7 329.961V267.023H1800.63V329.961H1706.7ZM1713.64 578.472V422.516H1681.71L1689.12 359.116H1800.63V578.472H1713.64ZM1936.29 583.1C1906.99 583.1 1885.7 575.696 1872.44 560.887C1859.17 546.078 1852.54 526.023 1852.54 500.726V423.442H1823.85V359.116H1852.54V314.226L1939.53 293.401V359.116H1989.97L1986.73 423.442H1939.53V494.247C1939.53 503.502 1941.85 510.136 1946.47 514.146C1951.1 517.848 1958.2 519.7 1967.76 519.7C1976.7 519.7 1985.81 518.156 1995.06 515.072V572.919C1978.71 579.706 1959.12 583.1 1936.29 583.1ZM2114.39 659.921C2103.59 659.921 2091.87 659.458 2079.22 658.533C2066.58 657.915 2054.54 656.682 2043.13 654.831C2032.02 652.98 2022.77 650.821 2015.37 648.352V592.819C2023.69 595.595 2033.26 597.909 2044.05 599.76C2055.16 601.611 2066.42 603 2077.83 603.925C2089.25 604.851 2099.74 605.314 2109.3 605.314C2125.65 605.314 2138.45 604.388 2147.71 602.537C2157.27 600.994 2162.05 598.064 2162.05 593.744C2162.05 590.042 2160.51 587.573 2157.42 586.34C2154.34 585.414 2148.48 584.951 2139.84 584.951H2082C2059.48 584.951 2042.05 581.404 2029.71 574.307C2017.68 566.903 2011.66 555.951 2011.66 541.45C2011.66 521.088 2022.92 506.897 2045.44 498.875C2032.8 492.396 2023.54 484.221 2017.68 474.347C2011.82 464.474 2008.89 451.979 2008.89 436.862C2008.89 408.478 2018.45 387.653 2037.58 374.387C2057.01 361.122 2084.93 354.488 2121.33 354.488C2129.04 354.488 2137.68 355.106 2147.24 356.339C2156.81 357.265 2163.75 358.19 2168.07 359.116H2254.13L2252.28 411.872H2223.13C2228.68 418.969 2231.46 427.607 2231.46 437.788C2231.46 460.309 2224.83 478.205 2211.56 491.47C2198.6 504.428 2178.09 510.907 2150.02 510.907C2146.01 510.907 2141.69 510.752 2137.06 510.444C2132.44 509.826 2128.12 509.363 2124.11 509.056C2117.32 509.674 2111.46 510.907 2106.52 512.758C2101.59 514.609 2099.12 517.693 2099.12 522.013C2099.12 525.098 2100.51 527.259 2103.28 528.492C2106.06 529.418 2109.92 529.881 2114.85 529.881H2165.29C2187.81 529.881 2205.55 535.126 2218.5 545.615C2231.46 556.104 2237.94 571.531 2237.94 591.893C2237.94 613.488 2227.91 630.148 2207.86 641.873C2187.81 653.905 2156.65 659.921 2114.39 659.921ZM2121.79 463.241C2135.37 463.241 2144.78 460.927 2150.02 456.299C2155.26 451.671 2157.88 443.959 2157.88 433.16C2157.88 422.361 2155.26 414.494 2150.02 409.559C2144.78 404.623 2135.37 402.154 2121.79 402.154C2109.15 402.154 2099.89 404.623 2094.03 409.559C2088.48 414.186 2085.7 422.053 2085.7 433.16C2085.7 443.649 2088.32 451.364 2093.57 456.299C2099.12 460.927 2108.53 463.241 2121.79 463.241ZM2397.85 583.1C2372.24 583.1 2349.57 578.935 2329.83 570.605C2310.39 561.967 2295.12 549.162 2284.01 532.195C2273.22 515.227 2267.82 494.247 2267.82 469.257C2267.82 434.393 2277.69 406.627 2297.43 385.957C2317.18 364.977 2346.63 354.488 2385.82 354.488C2421.59 354.488 2449.52 363.588 2469.58 381.792C2489.94 399.995 2500.12 424.83 2500.12 456.299V494.71H2347.88C2351.88 506.434 2359.75 514.764 2371.48 519.7C2383.18 524.635 2399.08 527.104 2419.14 527.104C2431.77 527.104 2444.43 526.023 2457.08 523.865C2470.04 521.396 2480.36 518.619 2488.08 515.535V567.829C2466.48 578.01 2436.4 583.1 2397.85 583.1ZM2347.88 447.506H2425.15V439.639C2425.15 431.001 2422.38 423.905 2416.82 418.351C2411.57 412.798 2402.16 410.021 2388.6 410.021C2373.47 410.021 2362.82 413.261 2356.67 419.74C2350.79 425.911 2347.88 435.166 2347.88 447.506ZM2538.61 329.961V267.023H2632.55V329.961H2538.61ZM2545.56 578.472V422.516H2513.63L2521.03 359.116H2632.55V578.472H2545.56ZM2759.89 583.1C2741.06 583.1 2723.34 581.712 2706.68 578.935C2690.32 576.466 2677.36 573.227 2667.81 569.217V506.742C2678.59 511.677 2691.41 515.535 2706.21 518.311C2721.32 521.088 2734.12 522.476 2744.62 522.476C2755.73 522.476 2764.06 522.169 2769.61 521.551C2775.46 520.933 2778.4 518.311 2778.4 513.684C2778.4 508.438 2773.31 504.428 2763.13 501.651C2752.95 498.875 2740.13 494.865 2724.72 489.619C2704.66 482.522 2689.7 474.192 2679.84 464.629C2669.96 455.066 2665.03 441.182 2665.03 422.979C2665.03 401.073 2673.66 384.261 2690.94 372.536C2708.2 360.504 2735.37 354.488 2772.36 354.488C2786.57 354.488 2801.21 355.569 2816.34 357.727C2831.45 359.886 2843.32 362.355 2851.97 365.132V426.219C2842.72 422.209 2832.54 419.277 2821.43 417.426C2810.63 415.575 2800.75 414.649 2791.82 414.649C2781.94 414.649 2773.15 415.112 2765.44 416.037C2757.72 416.963 2753.88 419.585 2753.88 423.905C2753.88 428.84 2758.18 432.39 2766.83 434.549C2775.76 436.707 2787.65 440.102 2802.46 444.73C2819.12 449.665 2832.08 455.066 2841.33 460.927C2850.89 466.788 2857.53 473.885 2861.23 482.215C2865.23 490.545 2867.24 500.881 2867.24 513.221C2867.24 535.434 2858.13 552.712 2839.94 565.052C2822.04 577.084 2795.36 583.1 2759.89 583.1ZM2986.93 583.1C2957.61 583.1 2936.33 575.696 2923.07 560.887C2909.79 546.078 2903.17 526.023 2903.17 500.726V423.442H2874.49V359.116H2903.17V314.226L2990.17 293.401V359.116H3040.6L3037.37 423.442H2990.17V494.247C2990.17 503.502 2992.48 510.136 2997.11 514.146C3001.74 517.848 3008.82 519.7 3018.39 519.7C3027.32 519.7 3036.44 518.156 3045.69 515.072V572.919C3029.34 579.706 3009.74 583.1 2986.93 583.1Z" fill="white"></path><path d="M3215.96 587.728V509.056H3301.1V587.728H3215.96Z" fill="#0001FE"></path><mask id="mask0_120_22" style="mask-type:luminance" maskUnits="userSpaceOnUse" x="0" y="0" width="810" height="820"><path d="M809.773 0H0V819.39H809.773V0Z" fill="white"></path></mask><g mask="url(#mask0_120_22)"><path d="M404.953 0.000635828C309.782 -0.155739 217.603 33.6638 144.646 95.5065H665.196C592.27 33.653 500.109 -0.169108 404.953 0.000635828ZM404.953 819.39C499.229 819.566 590.593 786.366 663.218 725.541H146.624C219.28 786.354 310.661 819.554 404.953 819.39ZM598.225 207.988H757.943C744.785 184.532 729.39 162.436 711.978 142.017H98.2039C72.595 171.881 51.4141 205.355 35.326 241.387H574.698L598.225 207.988ZM401.067 433.778H0.0681597C1.9913 467.533 8.06207 500.913 18.1404 533.148H363.558L387.361 499.266H800.703C805.467 477.721 808.5 455.82 809.773 433.778H401.067ZM491.291 353.592H806.705C803.72 331.231 798.885 309.163 792.247 287.621H17.5949C7.68268 319.879 1.7724 353.259 0 386.991H467.833L491.291 353.592ZM99.3633 679.029H259.967L283.427 645.631H736.46C751.004 624.882 763.586 602.794 774.036 579.659H35.8715C52.1607 615.724 73.5486 649.196 99.3633 679.029Z" fill="white"></path></g><path d="M3493.59 575.695V277.667H3626.39C3649.23 277.667 3668.04 281.987 3682.85 290.624C3697.65 299.262 3708.6 311.142 3715.7 326.258C3722.8 341.067 3726.34 358.035 3726.34 377.164C3726.34 406.781 3717.09 430.538 3698.58 448.431C3680.37 466.325 3655.71 475.273 3624.54 475.273H3544.03V575.695H3493.59ZM3544.03 435.474H3615.29C3635.35 435.474 3650.46 430.228 3660.64 419.739C3670.82 409.25 3675.91 395.057 3675.91 377.164C3675.91 358.035 3670.98 343.226 3661.1 332.737C3651.54 322.248 3637.04 317.003 3617.6 317.003H3544.03V435.474Z" fill="white"></path><path d="M3766.53 575.695V277.667H3818.36L3912.75 470.645L4006.69 277.667H4058.51V575.695H4008.54V359.578L3928.02 524.327H3897.48L3816.5 359.578V575.695H3766.53Z" fill="white"></path></svg> 