<svg width="274" height="55" viewBox="0 0 274 55" fill="none" xmlns="http://www.w3.org/2000/svg">
<path d="M225.502 11.5055V13.5348H221.604V20.0424H225.498V41.0245H234.199V20.0424H241.422V13.5348H233.481V11.5055C233.481 9.31386 235.37 7.53093 237.693 7.53093H241.422V0H237.693C230.97 0 225.502 5.16124 225.502 11.5055Z" fill="#FCFCFC"/>
<path d="M274 12.0436H265.667L258.945 32.5851L251.37 12.0436H242.339L254.733 41.6536L250.366 55H258.063L263.442 40.5094H263.434L274 12.0436Z" fill="#FCFCFC"/>
<path d="M218.004 1.07316H209.304V9.23184H218.004V1.07316Z" fill="#FCFCFC"/>
<path d="M218.004 12.0436H209.304V41.0248H218.004V12.0436Z" fill="#FCFCFC"/>
<path d="M205.049 11.6704H204.117C203.265 11.6704 202.372 11.8343 201.461 12.1579C200.57 12.4762 199.681 12.938 198.817 13.5311C197.959 14.1205 197.15 14.8187 196.412 15.6066C196.107 15.9313 195.819 16.2743 195.546 16.6347V12.0434H187.467V41.0245H196.167V23.7269C196.909 22.2871 198.076 21.2301 199.733 20.4973C201.455 19.7351 203.446 19.3311 205.651 19.297L206.21 19.288V11.8202L205.751 11.734C205.525 11.692 205.288 11.6704 205.049 11.6704Z" fill="#FCFCFC"/>
<path d="M179.73 16.0433C178.348 14.6842 176.653 13.5869 174.693 12.7805C172.729 11.9736 170.479 11.5644 168.006 11.5644C165.531 11.5644 163.263 11.9731 161.264 12.779C159.265 13.5848 157.54 14.6922 156.139 16.0701C154.738 17.4474 153.653 19.0664 152.915 20.8824C152.179 22.6922 151.805 24.6475 151.805 26.694C151.805 28.6724 152.189 30.5845 152.946 32.378C153.704 34.1756 154.798 35.7762 156.199 37.1342C157.601 38.4937 159.314 39.5827 161.295 40.3702C163.275 41.1575 165.513 41.5573 167.949 41.5573C171.349 41.5573 174.323 40.8413 176.792 39.4292C179.264 38.0152 181.094 36.1738 182.23 33.9576L182.528 33.3777L174.892 31.3725L174.7 31.8168C174.258 32.8439 173.445 33.653 172.217 34.2901C170.972 34.9352 169.631 35.2624 168.23 35.2624C167.326 35.2624 166.444 35.1128 165.609 34.8175C164.774 34.5218 164.019 34.0905 163.363 33.5357C162.707 32.9809 162.162 32.3003 161.744 31.5122C161.408 30.8771 161.17 30.1558 161.035 29.3621H183.684L183.793 28.9545C183.877 28.6345 183.929 28.2511 183.951 27.7809C183.97 27.3475 183.979 26.8968 183.979 26.4277C183.979 24.4903 183.616 22.5987 182.899 20.8053C182.178 19.0061 181.113 17.4038 179.73 16.0433ZM160.906 23.653C161.016 22.9155 161.232 22.2267 161.551 21.6006C161.949 20.8147 162.468 20.1334 163.092 19.5766C163.714 19.0224 164.442 18.5831 165.255 18.2727C166.069 17.9628 166.956 17.8058 167.892 17.8058C169.829 17.8058 171.428 18.3778 172.782 19.554C173.997 20.6119 174.721 21.9572 174.983 23.653H160.906Z" fill="#FCFCFC"/>
<path d="M146.85 2.13818L136.529 29.6684L126.1 2.13818H116.68L132.87 41.0248H140.194L156.269 2.13818H146.85Z" fill="#FCFCFC"/>
<path d="M117.747 12.0964H108.163L97.1395 23.7889V1.07316H88.4385V41.0245H97.1395V32.4036L100.542 29.2375L108.905 41.0245H118.368L106.207 24.4959L117.747 12.0964Z" fill="#FCFCFC"/>
<path d="M84.7881 17.1433V12.0436H59.893V18.1252H75.0398L59.2158 35.924V41.0248H85.0704V34.9431H69.0717L84.7881 17.1433Z" fill="#FCFCFC"/>
<path d="M32.448 30.4934H21.1045L32.349 42.9166H11.3843V30.4116L0.002419 42.9865H0V52.0521H43.7582V42.9865H43.7558L32.448 30.4934Z" fill="#FCFCFC"/>
<path d="M0 1.0166V10.0821H0.002419L11.3843 22.6571V10.0122H32.5206V10.0821H32.4122L20.9272 22.771H32.2708L43.7558 10.0821H43.7582V1.0166H0Z" fill="#FCFCFC"/>
</svg>
