<?xml version="1.0" encoding="UTF-8" standalone="no"?>
<svg
   fill="none"
   height="400"
   viewBox="0 0 1382 400"
   width="1382"
   version="1.1"
   id="svg3"
   sodipodi:docname="peaq.svg"
   inkscape:version="1.4.2 (2aeb623e1d, 2025-05-12)"
   xmlns:inkscape="http://www.inkscape.org/namespaces/inkscape"
   xmlns:sodipodi="http://sodipodi.sourceforge.net/DTD/sodipodi-0.dtd"
   xmlns="http://www.w3.org/2000/svg"
   xmlns:svg="http://www.w3.org/2000/svg">
  <defs
     id="defs3" />
  <sodipodi:namedview
     id="namedview3"
     pagecolor="#ffffff"
     bordercolor="#000000"
     borderopacity="0.25"
     inkscape:showpageshadow="2"
     inkscape:pageopacity="0.0"
     inkscape:pagecheckerboard="0"
     inkscape:deskcolor="#d1d1d1"
     inkscape:zoom="0.65053824"
     inkscape:cx="255.17332"
     inkscape:cy="223.66095"
     inkscape:window-width="2494"
     inkscape:window-height="1531"
     inkscape:window-x="0"
     inkscape:window-y="32"
     inkscape:window-maximized="1"
     inkscape:current-layer="svg3" />
  <g
     fill="#6666fe"
     id="g3"
     style="fill:#ffffff;fill-opacity:1">
    <path
       d="m872.141 0h-5.794c-81.332 0-129.831 52.0346-162.879 97.1885-12.661 17.4165-24.464 35.6935-35.623 53.3245-21.245 33.543-41.417 64.936-65.237 87.728-25.108 24.082-56.654 36.983-91.204 36.983-28.112-.86-54.292-12.686-73.821-33.113-19.528-20.427-30.258-47.519-30.258-76.116 0-28.598 11.803-57.41 31.975-77.8373 20.387-20.6418 47.641-32.0378 76.611-32.0378h.215c11.802 0 25.537 2.3652 39.056 6.6656 2.575.8601 4.721 2.7953 5.58 5.5905.858 2.7952.429 5.8055-1.288 8.1707l-70.387 101.9193c-2.146 3.01-2.361 6.88-.644 10.106 1.716 3.225 4.935 5.16 8.584 5.16h39.914c5.365 0 10.516-2.58 13.52-7.096l72.534-105.7889c3.004-4.0854 4.721-8.8158 5.794-13.9762.858-4.9455.858-10.1059 0-15.0514-1.073-4.9454-3.219-9.6758-6.009-13.7612-3.004-4.0853-6.653-7.5256-10.944-10.3209-3.005-1.7201-6.009-3.4403-9.228-5.1604-26.61-14.6213-56.868-22.361981-87.126-22.361981-43.563 0-84.551 17.201481-115.453 48.379281-30.473 30.7477-48.07 73.3217-48.07 117.1857 0 43.863 16.095 83.857 45.709 114.82 29.615 31.177 69.315 49.024 112.02 50.314 45.923 0 86.482-15.911 123.822-48.809 33.262-29.243 58.799-67.516 80.259-100.844 16.524-26.017 32.189-50.53 49.357-70.741 6.009-7.096 11.803-13.3315 17.597-18.7069 25.966-24.2972 53.22-35.6932 85.838-35.6932h4.078c28.112.8601 54.292 12.4711 73.821 33.1129 16.738 17.6312 27.468 41.0682 29.829 65.5812.429 3.655.643 7.31.643 10.966 0 29.242-11.373 56.765-31.974 77.406-20.387 20.642-47.641 32.038-76.611 32.038h-.215c-15.022 0-29.4-3.655-39.056-6.665-2.576-.861-4.721-2.796-5.58-5.591-.858-2.795-.429-5.805 1.288-8.386l70.173-100.844c2.146-3.01 2.36-6.88.643-10.105-1.716-3.441-4.935-5.161-8.583-5.161h-39.915c-5.365 0-10.301 2.58-13.52 7.096l-72.533 104.714c-3.005 4.3-4.721 8.816-5.794 13.976-.859 4.946-.859 10.106 0 15.051 1.073 4.946 3.218 9.676 6.008 13.762 2.79 4.085 6.867 7.74 11.159 10.321 3.005 1.72 5.794 3.44 8.799 5.16 26.61 14.621 56.868 22.362 87.126 22.362 43.777 0 84.765-17.201 115.667-48.379 30.906-31.178 48.066-72.462 48.066-116.54 0-44.079-16.52-85.1479-45.92-115.6806-29.614-31.1777-69.314-49.02429-112.019-50.3144z"
       id="path1"
       style="fill:#ffffff;fill-opacity:1" />
    <path
       d="m1329.04 5.61201-9.42 25.15719c-.75 2.0212-3.22 2.7093-4.96 1.4406-27.55-20.3407-61.63-32.3603-98.54-32.1882845-88.89.4085355-162.28 72.5473845-164.3 161.5864845-2.1 93.125 72.6 169.285 165.07 169.285 40.52 0 77.6-14.643 106.33-38.897 1.42-1.183 3.54-.215 3.54 1.612v97.769c0 4.752 3.84 8.601 8.59 8.601h38.07c4.74 0 8.58-3.849 8.58-8.601v-382.71173c0-4.75191-3.84-8.6007508-8.58-8.6007508h-36.38c-3.58-.0215019-6.78 2.1931908-8.05 5.5689908zm-104.96 269.71999c-66.23 4.236-121.06-50.702-116.83-117.057 3.5-54.851 47.73-99.1663 102.47-102.6711 66.23-4.2359 121.08 50.7011 116.83 117.0561-3.5 54.851-47.73 99.167-102.47 102.672z"
       id="path2"
       style="fill:#ffffff;fill-opacity:1" />
    <path
       d="m44.9579.0434008h-36.37405c-4.74258.0215019-8.58385 3.8703392-8.58385 8.6222592v382.73334c0 4.752 3.84127 8.601 8.58385 8.601h38.06935c4.7426 0 8.5839-3.849 8.5839-8.601v-97.769c0-1.849 2.1459-2.817 3.5408-1.612 28.7345 24.254 65.8171 38.896 106.3321 38.896 92.47 0 167.171-76.159 165.068-169.284-1.996-89.0392-75.388-161.178063-164.274-161.608101-36.91-.172015-70.9881 11.826001-98.5422 32.188301-1.7383 1.2901-4.2061.5806-4.9572-1.4406l-9.4208-25.15721c-1.2446-3.35429-4.4636-5.590491-8.0259-5.5689892zm10.5152 172.6175992c-4.2275-66.355 50.6019-121.3141 116.8259-117.0567 54.744 3.5048 98.972 47.8197 102.47 102.6717 4.228 66.355-50.602 121.292-116.826 117.056-54.744-3.505-98.9719-47.82-102.4699-102.671z"
       id="path3"
       style="fill:#ffffff;fill-opacity:1" />
  </g>
</svg>
