<svg width="601" height="162" viewBox="0 0 601 162" fill="none" xmlns="http://www.w3.org/2000/svg">
<g clip-path="url(#clip0_1350_2412)">
<path fill-rule="evenodd" clip-rule="evenodd" d="M57.9113 55.9132C61.199 56.6977 62.6802 56.6677 65.2183 56.1918C69.5014 55.3986 73.7845 53.0191 76.4812 49.6878C77.433 48.4188 78.3848 46.6738 78.7021 44.9289C79.178 43.3425 79.178 41.5976 78.8607 40.1699C78.5435 39.3767 79.0194 38.7422 79.6539 38.5835C80.4471 38.4249 81.0816 38.7422 81.2402 39.3767C81.8748 41.2803 81.7161 43.5012 81.2402 45.5634C80.7643 47.6256 79.8125 49.5292 78.7021 50.9569C79.178 51.2742 80.2885 51.5914 81.5575 51.7501C82.9852 51.9087 84.7302 51.7501 86.4751 50.9569C87.9028 50.3224 88.8546 49.3706 89.4891 48.1015C90.1237 46.8324 90.4409 45.2461 90.4409 43.5012C90.4409 41.4389 89.9337 38.3883 89.418 36.7648C88.6469 34.3376 86.1579 30.176 86.1579 30.176C84.4129 27.4792 82.5273 24.3327 79.9712 23.672C79.7376 23.6116 79.2665 23.598 79.0194 23.8307C78.2983 24.5098 78.2462 25.1743 78.2262 25.8929C78.21 26.4724 77.7657 29.0367 75.2122 29.2242C73.5082 29.3493 72.3175 26.7467 71.5636 25.7343C71.1616 25.1945 70.4668 24.9563 69.3428 24.7825C65.0153 24.1134 62.514 24.8585 60.4593 25.7343C57.6052 26.9509 55.2244 29.5415 53.6381 32.2382C52.8449 33.5073 52.2104 34.935 51.7345 36.204C53.7967 35.0936 55.5556 34.3331 56.3348 33.9832C56.982 33.6926 57.7298 33.9971 58.0798 34.7763C58.3705 35.4235 58.2237 36.1539 57.6039 36.3627C56.4591 36.7484 53.7967 38.1076 50.7827 40.0112C50.7827 40.0112 50.6463 41.7999 50.6279 42.3151C50.5485 44.5401 50.6241 46.1979 50.9413 47.9429C53.7967 44.6116 56.6521 42.2321 57.7625 41.4389C58.2384 41.1217 59.1771 41.2893 59.5075 41.7562C59.9656 42.4037 59.784 43.1129 59.1902 43.5012C58.1533 44.1793 56.4239 45.8541 55.5527 46.6936C54.3049 47.8961 52.0517 50.6396 51.8931 50.7983C51.8931 50.7983 53.7186 54.9127 57.9113 55.9132ZM65.2183 16.0576C65.5356 15.7404 66.3288 15.5817 66.8046 15.899C67.2805 16.2163 67.2805 16.6922 66.9632 17.1681L63.3147 22.403L60.3007 23.0375L65.2183 16.0576ZM77.7503 15.2645C78.0676 14.7886 78.7021 14.63 79.178 14.9472C79.6539 15.2645 79.8125 15.7404 79.4953 16.2163L76.7985 20.3407H74.2604L77.7503 15.2645ZM89.0132 109.175C90.4467 109.175 90.4409 107.589 90.5996 106.003C91.8686 95.2155 91.8686 84.7457 91.3927 75.545C90.9168 68.7238 90.2823 62.6958 89.4891 57.7781C89.1719 55.8745 88.8546 54.1296 88.5373 52.8605C88.2201 53.0191 87.9028 53.1778 87.4269 53.3364C85.8406 53.9709 84.2543 54.2882 82.8266 54.2882C82.6679 56.1918 80.923 57.9368 79.4953 59.0472C79.3366 59.2058 79.178 59.3645 78.8607 59.5231C83.7784 73.8001 84.8888 83.6353 86.1579 96.3259C86.6338 99.6572 86.951 103.147 87.4269 107.272C87.4269 107.272 87.5797 109.175 89.0132 109.175ZM26.3532 103.94C26.654 100.75 27.4636 96.6432 30.9536 93.9464C30.9536 93.9464 32.1703 92.7882 36.1885 92.3601C36.9771 92.2761 37.3786 91.7374 37.2989 90.9324C37.2364 90.301 36.6644 89.822 35.8712 89.822C34.6021 89.9806 33.4917 90.1393 32.3813 90.4565C31.2708 90.7738 30.319 91.2497 29.3672 92.0428C25.0841 95.3741 24.4496 99.8159 23.8151 103.464C23.4978 105.685 23.1805 107.43 22.3874 107.748C20.6424 108.699 19.2147 106.637 18.1043 104.575C17.787 104.099 17.4698 103.306 17.1525 102.83C16.6766 101.878 16.2925 101.11 15.8834 100.768C14.9888 100.021 14.2459 100.652 13.9798 101.085C12.204 103.977 9.69674 105.051 7.47595 104.733C6.20685 104.416 4.93785 103.782 3.82735 102.671C2.71695 101.561 1.76515 99.9745 1.13055 98.2295C-0.931655 93.1533 -0.455755 86.0148 4.93775 79.8281C9.22085 75.0691 13.3452 72.2137 17.6283 70.3101C21.4355 68.5652 25.2427 67.6134 29.0499 66.9788C35.0779 66.027 43.0096 66.3443 50.4653 70.6274C51.0999 70.9447 51.893 70.786 52.2103 70.1515C52.6862 69.517 52.3689 68.8824 51.7344 68.4065C44.2786 64.1234 36.347 63.6475 30.1603 64.2821C32.0639 51.4328 33.1743 41.5976 34.1261 33.6659C34.9193 28.1138 35.3952 23.5134 36.0297 19.3889C36.347 16.8508 37.1402 14.4713 38.0919 12.4091C40.1542 8.12603 43.1682 4.79473 46.8168 2.57383C50.4653 0.511633 54.5898 -0.440167 58.7142 0.194333C60.3006 0.511633 61.8869 0.987533 63.4732 1.62203C67.2804 3.36703 70.1358 5.90513 72.0394 8.91913C72.9912 10.3468 73.7844 11.7745 74.4189 13.3608C74.1016 13.5194 73.7844 13.5194 73.6257 13.5194C71.7221 13.6781 71.0876 14.3126 70.6117 14.7885L69.9772 14.4712C69.66 14.3126 69.1738 14.1223 68.3908 13.9953C67.8956 13.915 67.3807 13.9162 66.4873 13.9953L58.7142 14.6299C57.4484 14.7199 56.652 14.7885 56.0175 15.1058L39.6783 21.7683C38.8851 22.0856 37.6161 24.3065 37.1402 26.0514C36.9815 26.5273 36.7965 27.0039 36.8229 27.4791C36.9392 29.5749 38.7265 29.2241 38.7265 29.2241C39.5314 29.1444 39.8369 27.955 40.3128 26.8446C40.7887 25.7342 41.1933 24.5529 41.7405 24.3065C42.4266 23.9975 44.099 23.2105 44.5959 23.3547C44.7662 23.4041 44.8548 23.8217 44.9132 23.9892C45.311 25.1299 46.9754 29.0655 48.5617 28.4309C49.0376 28.2723 50.624 27.6378 52.2103 27.1619C53.1621 26.8446 54.1139 26.686 54.907 26.3687C53.638 27.6378 52.3689 29.2241 51.4171 30.969C49.9894 33.3485 49.0376 35.8867 48.5617 38.2662C47.9272 38.7421 47.4513 39.0593 46.8168 39.5352C44.4373 41.4388 42.2164 43.8183 40.6301 46.5151C40.3128 47.1496 40.6301 47.9428 41.2646 48.26C41.8991 48.7359 42.5337 48.5773 42.8509 48.1014C44.2786 45.7219 46.1822 43.6597 48.2445 42.0734C47.9272 45.4047 48.2445 48.1014 49.0376 50.4809C47.7686 52.2259 46.6581 54.1295 45.865 56.3503C45.7063 56.9849 46.0236 57.6194 46.6581 57.9367C47.2927 58.0953 48.115 57.7846 48.2445 57.1435C48.4786 55.9843 50.2608 53.2512 50.2608 53.2512C51.8471 55.6307 54.1139 57.3021 56.652 58.2539C59.3488 65.8683 61.2524 74.2759 62.5214 82.842C63.7905 91.7255 64.425 101.085 65.0596 110.286C65.0596 110.286 65.3494 114.727 69.0254 114.727C73.3152 114.727 73.6257 109.81 73.6257 109.81C75.0535 99.3399 75.688 88.8701 75.8466 79.6694C75.8466 72.6895 75.688 66.3442 75.2121 61.5852C75.688 61.4266 76.1639 61.1093 76.6398 60.9507C81.2401 74.5931 82.3506 84.2697 83.6196 96.4845C84.0955 99.9744 84.4128 103.782 84.8887 107.589C84.8887 107.589 85.5883 111.476 89.0131 111.713C92.4379 111.95 93.1376 106.32 93.1376 106.32C94.4067 95.374 94.3649 84.7476 93.9308 75.3863C93.8661 73.9911 93.6135 72.055 93.6135 72.055C93.6135 72.055 94.6403 72.2695 98.0552 75.5449C102.772 80.0689 108.049 88.5528 109.794 95.6913C111.38 102.195 111.222 109.017 109.477 115.362C107.891 121.707 104.559 127.735 99.8002 132.494C96.6275 135.826 93.4674 138.179 88.9712 140.604C85.6197 142.411 79.1779 144.074 79.1779 144.074C74.2603 145.344 69.1841 145.344 64.5837 144.709C60.1419 144.074 56.1424 142.863 53.638 141.378C53.3162 141.187 52.3689 140.585 52.3689 140.585C53.1621 138.046 54.7484 132.177 54.7484 132.177C54.907 131.384 54.5616 130.853 53.7966 130.591C53.1253 130.361 52.5397 130.752 52.3689 131.384C51.7236 133.771 49.9348 140.137 49.6722 140.902C49.442 141.573 49.6889 142.14 50.3067 142.488C51.0831 142.926 53.3207 144.392 53.3207 144.392C54.5898 145.185 56.4934 146.454 58.397 148.675C61.7283 152.323 62.8283 155.748 62.9973 158.51C63.1287 160.658 62.2042 162 62.2042 162H46.9754C45.7063 162 44.4373 161.841 43.3268 161.524C42.375 161.207 41.2646 160.572 39.9955 159.621C38.8851 158.669 37.7747 157.717 36.5056 156.765C32.2225 153.275 26.6704 148.675 23.1804 146.613C20.1664 144.55 18.5801 142.488 18.2628 140.267C17.9456 137.888 18.7387 135.35 20.6423 132.336C21.1182 131.225 21.4355 128.211 21.7528 123.928C22.07 120.121 22.5459 115.362 23.1804 110.286C23.1804 110.286 25.7799 110.018 26.3532 103.94ZM93.1377 65.8684C93.2619 66.7109 93.4249 68.0471 93.455 68.7238C93.455 68.7238 96.9755 71.0806 99.8003 73.8001C102.625 76.5196 107.097 82.2076 109.318 86.9666C110.587 86.4907 111.698 85.8562 112.967 85.2216C115.664 83.6353 118.36 81.8903 121.057 79.5108C128.037 73.3242 129.465 66.1857 128.037 60.9508C127.561 58.8886 126.768 57.3022 125.657 55.8745C124.547 54.6055 123.278 53.6537 121.85 53.3364C119.312 52.5432 116.615 53.495 114.077 56.5091C113.443 57.1436 112.744 57.2369 112.015 56.6677C111.485 56.2535 111.279 55.3809 110.905 54.2882C110.076 51.8631 108.208 47.467 105.828 48.5774C105.194 48.736 105.194 50.0051 105.194 51.5914C105.194 55.5573 105.281 61.067 97.4208 64.5993C94.5304 65.8982 93.1377 65.8684 93.1377 65.8684ZM112.566 136.056C111.639 136.578 110.587 137.412 109.794 138.046C109.318 138.522 108.525 138.522 108.049 138.046C107.573 137.412 107.573 136.619 108.049 136.143C109.001 135.35 110.064 134.758 111.063 134.081C111.435 133.829 111.687 133.641 112.015 133.446C111.539 131.86 110.746 129.322 109.953 126.783C109.636 125.832 109.318 124.721 109.16 123.769C107.256 127.577 104.718 131.225 101.704 134.398C98.5312 137.571 94.8828 140.426 90.5996 142.647C92.8204 145.819 95.6758 149.627 98.3726 152.799C100.435 155.496 102.964 158.308 104.55 159.577C104.36 159.027 104.371 158.151 104.559 157.4C105.194 155.337 106.939 152.641 109.477 149.151C111.222 147.088 113.284 144.709 115.346 142.805C117.409 140.902 119.629 139.157 121.692 137.888C122.326 137.571 123.022 137.788 123.437 138.364C123.83 138.91 123.593 139.848 123.119 140.109C121.068 141.24 118.995 142.805 117.091 144.55C115.029 146.613 113.125 148.675 111.539 150.737C109.16 153.91 107.7 156.268 106.856 158.378C106.461 159.366 106.463 160.096 106.939 160.255C109.16 160.572 111.698 159.621 114.077 158.193C117.25 156.131 120.581 153.117 123.278 149.785C125.975 146.295 128.257 142.83 129.465 139.791C130.467 137.273 131 136.037 131 134.588C131 129.746 119.431 133.176 115.822 134.556C114.985 134.876 113.53 135.514 112.566 136.056ZM73.6258 23.8307C74.2027 24.4208 74.4641 24.8712 74.8988 25.8122C74.9487 25.9202 75.1294 26.5437 75.3708 26.3688C75.6483 26.1678 75.4814 25.5466 75.5609 24.884C75.7228 23.5346 76.4088 22.9816 76.7985 22.403C76.8872 22.2714 76.6399 22.2443 76.6399 22.2443C74.5805 21.7863 71.0877 22.2741 71.0877 22.5616C71.0877 22.8491 72.3555 22.5313 73.6258 23.8307ZM76.9571 52.8605C76.3226 53.495 75.3708 54.2882 74.5776 54.9227C74.7363 55.8745 74.8949 57.3022 75.0535 58.7299C76.0053 58.254 77.2744 57.6195 78.2262 56.985C79.178 56.1918 80.447 54.9227 80.1298 54.1296C78.8607 53.8123 77.7503 53.3364 76.9571 52.8605ZM71.0877 109.334C72.5154 99.0227 73.1499 88.7116 73.3086 79.6695C73.3086 69.6756 72.8327 61.2681 72.1981 56.3504C70.1359 57.4609 67.9151 58.254 65.6942 58.7299C63.632 59.0472 61.5697 59.2058 59.5075 58.8886C62.2043 66.3443 63.7906 74.276 65.0597 82.3662C66.3287 91.4083 66.9633 100.926 67.5978 110.127C67.5978 110.127 67.5862 112.189 69.1841 112.189C70.782 112.189 71.0877 109.334 71.0877 109.334Z" fill="white"/>
</g>
<path d="M187 123H169V99H163V75H157V57H151L151 39.0001L163 39L163 56.9999H169V75H175V105H181V87H187V57H193V39H211V56.9999H217V87H223V105H229.125V75H235V57H241V39H251.5V56.9999H247V75H241V99H235V123H217V111H211V87H205V57H199V87H193V111H187V123Z" fill="white"/>
<path d="M262 123H250V105H256V87H262V69H268V51H274V39H292V51H298V69H304V87H310V105H316V123H304V105H262V123ZM268 93H298V87H292V69H286.02V57.2202H279.886L280 69H274V87H268V93Z" fill="white"/>
<path d="M382 123H325V39H337V111H382V123Z" fill="white"/>
<path d="M403 123H391V39H445V45H451V51H457V78H451V84H445V90H451V96H457V123H445V102H439V96H433V90H403V123ZM403 78H439V72H445V57H439V51H403V78Z" fill="white"/>
<path d="M514 123H478V117H472V111H466V39H478V105H484V111H508V105H514V39H526V111H520V117H514V123Z" fill="white"/>
<path d="M589 123H547V117H541V111H535V99H547V105H553V111H583V105H589V93H583V87H553V81H541V75H535V51H541V45H547V39H589V45H595V51H601V63H589V57H583V51H553V57H547V69H553V75H583V81H595V87H601V111H595V117H589V123Z" fill="white"/>
<defs>
<clipPath id="clip0_1350_2412">
<rect width="131" height="162" fill="white"/>
</clipPath>
</defs>
</svg>
