<svg xmlns="http://www.w3.org/2000/svg" width="21.87" height="15.004" viewBox="0 0 21.87 15.004">
  <path id="dicords_icons" data-name="dicords icons" d="M41.63,117.444c4.756,1.856,8.8,2.218,13.39-.671a6.015,6.015,0,0,1-3.327,2.083c.5.689,1.193,1.479,1.193,1.479a7.912,7.912,0,0,0,4.318-1.277,3.276,3.276,0,0,0,1.462-3.041A22.467,22.467,0,0,0,57.221,110a7.053,7.053,0,0,0-5.931-4.52c-.235-.017-.4-.017-.5-.017l-.269.269a11.918,11.918,0,0,1,4.637,2.285,16.941,16.941,0,0,0-15.055-.1,10.757,10.757,0,0,1,4.856-2.285l-.2-.2a7.262,7.262,0,0,0-1.042.084,7.082,7.082,0,0,0-5.427,4.453,23.113,23.113,0,0,0-1.462,6.284,3.243,3.243,0,0,0,1.378,2.924,7.662,7.662,0,0,0,4.217,1.26s.6-.79,1.21-1.5a5.827,5.827,0,0,1-3.209-2.067l.427.218A8.579,8.579,0,0,0,41.63,117.444Zm2.637-1.461a1.993,1.993,0,1,1,1.915-1.915A1.992,1.992,0,0,1,44.267,115.983Zm6.855,0a1.993,1.993,0,1,1,1.915-1.915A1.992,1.992,0,0,1,51.122,115.983Z" transform="translate(-36.812 -105.431)" fill="#fff"/>
</svg>
