<svg xmlns="http://www.w3.org/2000/svg" xmlns:xlink="http://www.w3.org/1999/xlink" width="1116" height="1116" viewBox="0 0 1116 1116">
  <defs>
    <radialGradient id="radial-gradient" cx="0.5" cy="0.5" r="0.445" gradientUnits="objectBoundingBox">
      <stop offset="0" stop-color="#b32d3c"/>
      <stop offset="1" stop-color="#060815"/>
    </radialGradient>
    <linearGradient id="linear-gradient" x1="0.434" y1="0.145" x2="0.608" y2="0.678" gradientUnits="objectBoundingBox">
      <stop offset="0" stop-color="#76202c"/>
      <stop offset="1" stop-color="#131313"/>
    </linearGradient>
  </defs>
  <g id="hero_backround" data-name="hero backround" transform="translate(8917 2136)">
    <circle id="Ellipse_17" data-name="Ellipse 17" cx="558" cy="558" r="558" transform="translate(-8917 -2136)" opacity="0.997" fill="url(#radial-gradient)"/>
    <g id="Group_41415" data-name="Group 41415" transform="translate(-9036 -2306)">
      <path id="Ellipse_5" data-name="Ellipse 5" d="M327.5,1a328.912,328.912,0,0,0-65.8,6.633A324.705,324.705,0,0,0,144.951,56.76,327.456,327.456,0,0,0,26.658,200.412,324.845,324.845,0,0,0,7.633,261.7a329.691,329.691,0,0,0,0,131.6A324.705,324.705,0,0,0,56.76,510.049,327.456,327.456,0,0,0,200.412,628.342,324.845,324.845,0,0,0,261.7,647.367a329.691,329.691,0,0,0,131.6,0A324.705,324.705,0,0,0,510.049,598.24,327.456,327.456,0,0,0,628.342,454.588,324.845,324.845,0,0,0,647.367,393.3a329.691,329.691,0,0,0,0-131.6A324.705,324.705,0,0,0,598.24,144.951,327.456,327.456,0,0,0,454.588,26.658,324.845,324.845,0,0,0,393.3,7.633,328.912,328.912,0,0,0,327.5,1m0-1C508.373,0,655,146.627,655,327.5S508.373,655,327.5,655,0,508.373,0,327.5,146.627,0,327.5,0Z" transform="translate(350 400)" fill="url(#linear-gradient)"/>
      <path id="Ellipse_6" data-name="Ellipse 6" d="M263.5,1a264.446,264.446,0,0,0-52.9,5.333,261.057,261.057,0,0,0-93.862,39.5A263.269,263.269,0,0,0,21.628,161.323,261.169,261.169,0,0,0,6.333,210.6a265.07,265.07,0,0,0,0,105.808,261.058,261.058,0,0,0,39.5,93.862,263.269,263.269,0,0,0,115.493,95.106,261.169,261.169,0,0,0,49.273,15.3,265.07,265.07,0,0,0,105.808,0,261.058,261.058,0,0,0,93.862-39.5,263.269,263.269,0,0,0,95.106-115.493,261.169,261.169,0,0,0,15.3-49.273,265.07,265.07,0,0,0,0-105.808,261.057,261.057,0,0,0-39.5-93.862A263.269,263.269,0,0,0,365.677,21.628,261.169,261.169,0,0,0,316.4,6.333,264.445,264.445,0,0,0,263.5,1m0-1C409.027,0,527,117.973,527,263.5S409.027,527,263.5,527,0,409.027,0,263.5,117.973,0,263.5,0Z" transform="translate(413 463)" fill="url(#linear-gradient)"/>
      <path id="Ellipse_4" data-name="Ellipse 4" d="M203.5,1a204,204,0,0,0-40.812,4.114A201.385,201.385,0,0,0,90.281,35.583a203.094,203.094,0,0,0-73.368,89.095,201.473,201.473,0,0,0-11.8,38.01,204.483,204.483,0,0,0,0,81.624,201.385,201.385,0,0,0,30.469,72.407,203.094,203.094,0,0,0,89.095,73.368,201.473,201.473,0,0,0,38.01,11.8,204.483,204.483,0,0,0,81.624,0,201.385,201.385,0,0,0,72.407-30.469,203.094,203.094,0,0,0,73.368-89.095,201.473,201.473,0,0,0,11.8-38.01,204.483,204.483,0,0,0,0-81.624,201.385,201.385,0,0,0-30.469-72.407,203.094,203.094,0,0,0-89.095-73.368,201.473,201.473,0,0,0-38.01-11.8A204,204,0,0,0,203.5,1m0-1C315.89,0,407,91.11,407,203.5S315.89,407,203.5,407,0,315.89,0,203.5,91.11,0,203.5,0Z" transform="translate(474 524)" fill="url(#linear-gradient)"/>
      <path id="Ellipse_2" data-name="Ellipse 2" d="M149,1a149.1,149.1,0,0,0-29.828,3.007A147.183,147.183,0,0,0,66.253,26.276,148.435,148.435,0,0,0,12.63,91.392a147.249,147.249,0,0,0-8.623,27.78,149.454,149.454,0,0,0,0,59.656,147.183,147.183,0,0,0,22.269,52.919A148.435,148.435,0,0,0,91.392,285.37a147.249,147.249,0,0,0,27.78,8.623,149.454,149.454,0,0,0,59.656,0,147.183,147.183,0,0,0,52.919-22.269,148.436,148.436,0,0,0,53.622-65.117,147.249,147.249,0,0,0,8.623-27.78,149.454,149.454,0,0,0,0-59.656,147.183,147.183,0,0,0-22.269-52.919A148.436,148.436,0,0,0,206.608,12.63a147.249,147.249,0,0,0-27.78-8.623A149.1,149.1,0,0,0,149,1m0-1A149,149,0,1,1,0,149,149,149,0,0,1,149,0Z" transform="translate(528 578)" fill="url(#linear-gradient)"/>
      <path id="Ellipse_3" data-name="Ellipse 3" d="M90.5,1A90.168,90.168,0,0,0,72.462,2.818a89.006,89.006,0,0,0-32,13.466A89.764,89.764,0,0,0,8.033,55.663a89.04,89.04,0,0,0-5.215,16.8,90.383,90.383,0,0,0,0,36.077,89.006,89.006,0,0,0,13.466,32,89.764,89.764,0,0,0,39.378,32.427,89.04,89.04,0,0,0,16.8,5.215,90.383,90.383,0,0,0,36.077,0,89.006,89.006,0,0,0,32-13.466,89.764,89.764,0,0,0,32.427-39.378,89.04,89.04,0,0,0,5.215-16.8,90.383,90.383,0,0,0,0-36.077,89.006,89.006,0,0,0-13.466-32A89.764,89.764,0,0,0,125.337,8.033a89.04,89.04,0,0,0-16.8-5.215A90.168,90.168,0,0,0,90.5,1m0-1A90.5,90.5,0,1,1,0,90.5,90.5,90.5,0,0,1,90.5,0Z" transform="translate(587 637)" fill="url(#linear-gradient)"/>
    </g>
  </g>
</svg>
